<svg xmlns="http://www.w3.org/2000/svg" viewBox="25.98 50.18 559.9 563.65">
    <path
        d="m229.58 294.22.92.14 1.97.35 1.28.3 3.12.87 1.73.71.8.48 1.58 1.06.85.73 1.78 1.63 1.08 1.09 3.71 4.39 1.77 2.89.55 1.5.9 3.03.15 1.64.1 3.37-.22 1.89-1.05 4.32-.53 1.42-.29.63-.6 1.18-.31.45-.97 1.17-1.15 1.27-.8.86-1.73 1.84-1.06 1.11-2.24 2.33-1.29 1.32-2.67 2.75-1.47 1.5-3.02 3.08-1.62 1.63-3.3 3.33-1.73 1.73-3.5 3.5-1.79 1.79-3.67 3.65-2.28 2.29-1.06 1.06-2.08 2.09-.97.98-1.88 1.91-.87.88-3.3 3.39-1.39 1.46-2.62 2.76-1.08 1.18-2.02 2.24-.81.94-1.49 1.78-.57.75-1.05 1.42-.38.6-.67 1.13-.22.49-1.87 4.04-.56 1.17-.22.46-.41.83-.13.24-.51 1.69-.24 1.64-.07 1.01-.13 2.12-.01 1.17-.01 2.41.04 1.24.25 5.01.28 2.16.3 2.08.19.85.39 1.57.23.53 1.1 2.51.63 1.41.28.6 1.04 2.15.49.84.98 1.58.59.77 1.28 1.59.86 1.01 4.41 4.37 3.22 2.44 1.73.97 3.54 1.8 1.89.65 3.83 1.12 2.02.31 5.53.57 3.52.07 1.69-.12 3.32-.36 1.6-.34 3.17-.79 1.53-.56 3.04-1.25 1.49-.79 2.96-1.71 1.46-1.04 2.91-2.19 1.45-1.27 2.9-2.68 1.46-1.53 1.73-1.79 1.62-1.64 1-1.02 2.15-2.15 1.24-1.24 2.58-2.59 1.43-1.42 2.93-2.93 1.58-1.57 3.2-3.18 1.68-1.66 6.86-6.79 3.49-3.45 5.23-5.15 3.18-3.11 1.44-1.41 2.8-2.72 1.27-1.21 2.47-2.35 1.12-1.04 2.16-2.01.99-.88 1.91-1.69.87-.73 1.69-1.4.78-.6 1.52-1.13.7-.48 2.69-1.68 1.23-.55 2.42-.93 1.21-.25 2.45-.39 1.36-.06 2.81-.06 1.65.02 4.51.15 2.36.22 1 .19 1.9.46.93.35 1.87.79 1.07.54 4.68 3.1 2.99 2.65 1.33 1.51 2.52 3.12 1 1.62 1.78 3.27.52 1.58 1 4.52.42 3.45.06 1.71.04 3.34-.13 1.38-.15 1.32-.12.54-.26 1-.17.34-.48.99-.43.9-.25.51-1.07 2.24-.52 1.1-.55.98-.51.79-.31.46-1.43 1.97-.91 1.14-1.9 2.35-1.06 1.22-2.17 2.46-1.1 1.18-2.58 2.77-1.45 1.6-.61.72-1.14 1.37-.48.64-.9 1.25-.39.61-1.38 2.46-.59 1.44-.58 1.49-.29.85-.6 1.79-.33 1.03-.74 3.07-.29 2.14-.04 1.12.08 4.54.42 2.34 1.09 4.69.9 2.31 2.05 4.55 1.36 2.12 2.62 3.53 1.95 2.07 1.13.94 2.36 1.82 1.37.85 2.9 1.68 1.7.82 1.66.75.85.28 1.72.51.95.18 1.98.3 1.13.09 2.39.14 1.41.01 4.2-.06 2.2-.21.99-.22 1.94-.53 1.05-.42 2.22-.98 1.4-.7 2.5-1.38.88-.57.5-.35 1.02-.74.58-.46 1.22-.98.71-.6 1.49-1.28.87-.78 1.82-1.64 1.06-.98 2.23-2.07 1.28-1.22 2.7-2.56 1.54-1.49 3.24-3.12 1.84-1.79 3.83-3.74 2.17-2.12 4.5-4.42 2.53-2.49 2.58-2.53 1.36-1.34 2.77-2.74 1.46-1.44 2.97-2.93 1.57-1.55 3.19-3.15 1.67-1.66 3.41-3.37 1.79-1.77 3.63-3.6 1.91-1.88 3.87-3.84 2.03-2.01 4.12-4.08 2.15-2.13 5.68-5.62 4.12-4.07 2.18-2.14 8.97-8.85 4.61-4.53 4.6-4.52 2.26-2.23 4.49-4.4 2.16-2.12 4.23-4.15 1.98-1.93 3.84-3.76 1.73-1.68 10.3-10.05 3.32-3.25 1.59-1.55 3.12-3.05 1.45-1.42 2.83-2.77 1.28-1.24 2.45-2.4 1.05-1.04 1.99-1.94.79-.78 1.44-1.4.48-.48 3.16-3.25 1.61-1.82.56-.76.98-1.41.27-.58.4-1.08v-.44l.04-.21.48 4.22.19 1.7.67 3.56.18.84.36 1.46.54 1.66.17.41.37 1.13.18.61.37 1.38.87 4.25.2 1.32.72 3.06.2.75.41 1.37.62 1.71.39.94.62 2.48.42 3.42v.94l.44 2.32 1.05 3.03.41.78.65 2.16.44 3.06v.43l.16 1.13.1.6.33 1.34 1.4 4 .54 1.2.86 2.75.18.66.25 1.22.17 1.5v.4l.12 1.07.07.56.24 1.25 1 3.72.33.92.59 2.1.28 1.09.5 2.33.48 2.38.64 4.98.26 2.46.13 4.47v1.04l-.12 1.84-.36 2.26-.31 1.25-.49 2.72-.11.65-.14 1.16-.09 1.36v.36l-.15.95-.1.5-.32 1.14-1.36 3.44-.07.14-.52.64-.31.38-.99 1.12-.55.61-1.45 1.56-.78.84-1.88 1.99-1 1.05-2.31 2.41-1.21 1.25-2.72 2.81-1.41 1.45-3.1 3.18-1.6 1.64-3.48 3.55-1.79 1.82-3.83 3.89-1.96 1.99-4.17 4.22-2.13 2.15-4.49 4.52-2.29 2.31-4.79 4.82-2.44 2.44-5.08 5.1-2.58 2.58-5.35 5.35-2.7 2.7-5.61 5.6-8.66 8.63-3.29 3.27-6.27 6.24-3.08 3.07-5.87 5.84-2.88 2.87-5.49 5.46-2.69 2.68-5.12 5.09-2.51 2.5-4.76 4.73-2.34 2.32-4.42 4.39-2.17 2.15-4.09 4.06-2.01 1.99-3.78 3.75-1.85 1.83-3.49 3.44-1.7 1.68-3.2 3.16-1.57 1.54-2.93 2.87-1.43 1.41-2.68 2.61-1.31 1.28-2.43 2.37-1.19 1.15-2.21 2.13-1.08 1.04-2 1.91-.97.93-1.81 1.7-1.75 1.65-2.98 2.74-1.41 1.28-2.37 2.09-1.12.96-1.88 1.54-.89.71-1.51 1.09-.72.5-1.25.76-.6.35-1.1.53-3.32 1.29-.52.18-1.47.31-.8.15-1.92.22-1.01.11-2.24.14-1.15.07-2.42.05-2.43.04-4.82-.19-1.15-.07-2.12-.21-1.01-.12-1.74-.3-.53-.11-1.28-.29-.68-.16-1.57-.39-.82-.21-1.83-.48-.95-.25-2.08-.57-2.13-.58-4.93-1.41-8.2-2.43-.96-.29-2.35-.69-1.22-.36-2.62-.75-1.31-.38-2.58-.73-3.46-.96-1.03-.28-2.36-.67-1.2-.34-2.47-.72-1.22-.36-2.3-.69-2.92-.9-2.62-.83-4.85-1.52-2.38-.74-4.43-1.35-2.18-.66-4.11-1.21-5.93-1.7-2.06-.58-4.41-1.28-1.04-.31-1.85-.55-2.14-.67-2.94-.94-6.07-1.88-3.11-.96-6.65-1.99-1.72-.51-3.59-1.05-1.83-.54-3.85-1.11-1.97-.57-4.15-1.18-6.62-1.88-.89-.25-2.54-.75-1.36-.4-3.18-.96-10.03-3.1-1.58-.5-3.2-.98-1.58-.49-2.94-.87-1.4-.42-2.34-.66-.53-.15-.89-.24-1.04-.27-.55-.13-1.36-.35-.7-.19-1.54-.42-4.35-1.31-.8-.26-2.19-.68-1.17-.37-2.78-.85-1.44-.45-3.19-.96-1.63-.5-3.4-1.02-3.42-1.03-6.69-1.97-1.6-.47-2.92-.85L136 551l-2.06-.59-4.42-1.33-1.05-.33-1.85-.59-2.15-.72-1.11-.4-2.18-.62-.5-.13-.84-.18-.9-.11h-.26l-.98-.28-.56-.17-1.45-.58-.77-.31-1.78-.8-.91-.42-1.95-.95-1.96-.97-3.79-2.07-.89-.51-1.55-.94-1.85-1.26-1.69-1.28-3.07-3.27-1.47-1.76-2.64-4.21-1.26-2.23-2.21-5.16-2.83-8.83-.55-2.06-.9-3.44-.43-1.64-.73-2.78-.35-1.33-.6-2.36-.3-1.15-.55-2.17-.27-1.09-.54-2.24-.28-1.16-.61-2.54-.32-1.34-.73-3.09-1.3-5.52-.38-1.63-.79-2.86-.19-.64-.32-.97-.36-.88-.09-.15-.28-.8-.15-.47-.37-1.32-.18-.71-.41-1.68-.6-2.71-.2-.93-.51-2.4-.28-1.26-.61-2.81-.32-1.43-.63-2.87-.9-4-.23-1.01-.38-1.7-.17-.81-.27-1.33-.12-.63-.16-1.03-.07-.48-.06-.78-.03-.73.23-.96.78-1.18.35-.39.44-.64.17-.33.08-.7-.01-.38-.28-1.01-.85-2.12-.61-1.42v-.02l.57 1.33.72 1.5.5.8.26.3.55.53.31.16.64.27.38.03.79.01.46-.09.98-.25.57-.22 1.21-.49.71-.34 1.49-.75.86-.46 2.13-1.3.84-.61.49-.39 1.05-.83.62-.53 1.33-1.15.79-.71 1.69-1.52 1-.93 2.12-1.97 1.25-1.19 2.63-2.5 1.53-1.47 3.22-3.11 1.86-1.8 3.89-3.78 2.22-2.17 2.26-2.21 1.21-1.19 2.46-2.41 1.31-1.29 2.67-2.62 1.42-1.39 2.89-2.85 1.53-1.5 3.11-3.07 1.65-1.62 3.35-3.3 1.77-1.75 3.59-3.54 1.9-1.87 3.85-3.81 2.02-2 4.12-4.06 2.16-2.14 4.39-4.34 2.31-2.27 4.67-4.62 2.45-2.42 4.97-4.92 2.6-2.56 7.59-7.51 4.59-4.53 2.08-2.05 4.01-3.96 1.8-1.77 3.48-3.41 1.55-1.52 2.99-2.92 1.33-1.28 2.55-2.46 1.12-1.07 2.15-2.05.95-.88 1.8-1.68.79-.71 1.5-1.35.66-.56 1.25-1.06.54-.44 1.98-1.51.79-.49 1.48-.82.68-.28 1.34-.48.75-.23 3.42-.94 1.79-.34.82-.03m75.42 173.94-2.61.22-1.18.24-2.3.58-1 .42-3.5 1.56-2.09 1.01-.98.54-1.92 1.12-.96.63-1.91 1.33-1.01.79-2.06 1.67-1.15 1.01-2.37 2.13-1.35 1.29-2.84 2.73-1.65 1.62-1.69 1.68-.91.91-1.87 1.87-1 1.01-3.63 3.67-2.21 2.25-1 1.04-1.95 2.03-.88.94-1.69 1.83-.77.86-2.82 3.24-1.11 1.44-2.03 2.78-.76 1.28-1.35 2.52-.47 1.25-.83 2.49-.25 1.32-.42 2.69-.1 1.5-.15 3.12-.01 1.79-.01 2.87.02 1.63.03.7.19 2.54.25 1.11.6 2.16.52 1.24.56 1.28.34.73.74 1.54.45.9 2.09 3.74 1.54 2.34.85 1.09 1.74 2.13.94.97 1.91 1.89 1.01.85 2.07 1.63 1.08.72 2.2 1.37 1.14.58 2.32 1.08 1.19.43 2.41.78 1.23.28 1.27.21.84.07 1.81.12 1.04.03 4.48.02 2.29-.11 2.28-.12 1.06-.08 2.04-.19.86-.11 1.62-.23.57-.14.99-.28.2-.16 1.5-.86 1.35-.58.64-.19 1.84-.73 1.33-.7.74-.46 1.53-1.02.85-.64 1.78-1.39 1-.84 2.08-1.8 1.17-1.06 2.44-2.26 1.37-1.31 2.84-2.76 1.6-1.59 3.32-3.3 1.85-1.88 4.26-4.36 2.44-2.53 1.05-1.12 1.98-2.12.84-.94 1.58-1.8.67-.81 1.26-1.55.53-.72 1-1.4.43-.67 1.55-2.62.66-1.4 1.68-3.86.74-2.15.22-1.08.34-2.2.08-1.35.05-1.41.02-.8.01-1.68v-.97l-.12-4.33-.18-2.38-.15-1-.36-1.88-.25-.83-.55-1.58-.36-.75-1.37-3.09-.33-.83-.1-.31-.16-.54-.01-.13-.33-.93-.51-.85-.37-.51-.81-1.08-.5-.59-1.03-1.21-.58-.63-2.43-2.54-1.24-1.15-1.24-1.11-.59-.48-1.15-.9-.52-.35-3.83-2.24-2.74-1.3-1.43-.55-2.91-1.03-1.48-.41-2.97-.74-1.48-.26-2.94-.44-1.43-.1-2.82-.12M64.76 419.32l-.04-.12v-.01m-.59-1.81.46 1.44-.46-1.42-.99-3.4-1.07-4.29 1.06 4.28M242.73 54.3l1.36.21 3.2.71 1.69.41 3.89 1.13 6.63 2.17 1.3.45 2.35.8 1.13.39 2.03.67.97.32 1.73.56.82.26 1.45.44.68.2 1.18.33.56.15.93.21 1.93.29h.23l.84.14.48.1 1.27.3.67.17 1.57.43.81.22 1.75.52 1.77.52 3.58 1.18.86.29 1.57.56 2.04.78.34.15 1.03.35.55.19 1.31.42 4.27 1.2 1.38.35 3.03.85.73.21 1.3.39 1.56.5.41.14 1.11.33.59.18 1.33.36 4.06 1.02 1.24.28 2.82.79.68.2 1.24.4 1.52.56.82.33 2.18.46 2.34.15-.31.06-.26.11-.56.27-.36.23-.79.53-.51.4-1.1.9-.71.61-1.52 1.34-.95.87-2.04 1.87-1.23 1.16-2.64 2.5-1.57 1.51-1.62 1.56-.88.84-1.81 1.75-.98.95-2 1.95-1.09 1.05-2.22 2.17-1.19 1.16-2.44 2.39-1.31 1.28-2.68 2.62-1.43 1.4-2.92 2.87-1.56 1.53-3.18 3.12-1.7 1.66-3.45 3.39-1.83 1.8-3.73 3.67-1.98 1.95-4.03 3.96-2.13 2.09-4.33 4.26-2.28 2.25-4.65 4.57-2.45 2.41-4.98 4.9-2.61 2.57-7.86 7.73-5.5 5.4-2.82 2.77-11.4 11.21-5.57 5.46-5.52 5.42-2.65 2.59-5.19 5.1-2.41 2.37-4.7 4.6-2.1 2.06-2.06 2.02-.96.94-1.87 1.83-.86.84-2.74 2.69-2.01 1.97-1.09 1.07-2.22 2.18-1.18 1.16-2.41 2.37-1.27 1.25-5.25 5.17-2.82 2.78-5.75 5.67-3.01 2.97-12.31 12.16-6.22 6.16-6.21 6.14-3.03 3-5.99 5.94-2.85 2.83-17.35 17.2-5.73 5.67-2.78 2.74-5.48 5.42-2.59 2.56-5.07 5.01-2.34 2.3-4.51 4.45-1.99 1.96-1.95 1.91-.9.88-1.74 1.71-.79.78-1.52 1.49-.67.65-1.27 1.25-.54.53-15.73 15.32 1.84 3.66.76 1.78.5 1.39.23.74.84 3.01.05.35-.36-1.35-.25-.86-.69-1.92-2.58-5.76-1.01-1.87-1.44-3.65-.3-.86-.39-1.54-.25-1.88v-.97l-.41-2.31-.97-2.94-.19-.37-.4-1.03-.21-.55-.39-1.28-.9-3.97-.1-.62-.29-1.48-.15-.77-.37-1.63-1.17-4.5-.77-2.54-1.39-4.85-.65-2.35-1.08-4.19-.25-.98-.41-1.77-.2-.85-.3-1.47-.14-.69-.18-1.11-.12-1.2-.01-.69-.43-1.81-1.02-2.5-.39-.69-.63-1.85-.44-2.58-.01-.36-.17-1.15-.1-.63-.34-1.55L28 283l-.37-1.17-.57-2.33-.26-1.19-.36-2.58-.16-1.34-.18-3.06-.1-5.42v-1.3l.01-2.17.01-1.03.06-1.74.03-.82.12-1.42.07-.69.21-1.23.24-1.22.85-2.41.26-.64.63-1.44 1.15-2.51.84-1.8 1.65-2.93.45-.74 1.06-1.49.57-.77 1.39-1.68.75-.88 1.85-2.02 1-1.07 2.45-2.52 1.32-1.33 3.18-3.17.85-.84 1.86-1.84 3.03-2.99.64-.62 1.62-1.6.86-.85 2.05-2.01 1.07-1.06 2.43-2.4 1.27-1.25 2.79-2.76 1.45-1.43 3.13-3.1 1.6-1.58 3.44-3.4 1.75-1.73 3.71-3.67 1.88-1.87 3.95-3.91 2.01-1.98 4.16-4.12 2.1-2.09 4.35-4.3 4.38-4.34 9.19-9.11 4.64-4.6 9.52-9.44 14.4-14.28 3.13-3.1 5.92-5.87 2.91-2.88 5.49-5.42 2.69-2.66 5.06-5 2.48-2.44 4.65-4.58 2.28-2.23 4.25-4.17 2.08-2.03 3.86-3.77 1.88-1.83 3.49-3.38 1.69-1.64 3.12-3.01 1.51-1.45 2.76-2.64 1.34-1.27 2.42-2.28 1.16-1.1 2.08-1.94 1-.92 1.76-1.6.84-.76 1.45-1.28.68-.6 1.15-.97.54-.44.86-.67.97-.67 1.63-.96 3.92-1.78 2.02-.85 4.27-1.42 2.13-.65 4.08-.89.99-.18 1.83-.24 2.5-.15h1.04m336.45 207.67-.89 2.66-.49 1.38-1.22 3.01-.64 1.54-1.5 3.3-.78 1.67-.94 1.9.95-1.92.78-1.68 1.49-3.29.65-1.54 1.21-3.01.49-1.37.9-2.65m-243.93-183-1.23.33h-.21l1.48-.34m8.77-3.84-3.29 1.63-2.11.94-.91.37 1.47-.65.87-.4 2.2-1.05 1.19-.58 1.73-.86m20.81-10.31-3.24 1.5-1.7.81-1.61.78 3.57-1.82 5.31-2.34m6.76-2.84-5.35 2.22 1.28-.56 4-1.67.8-.28m23.79-6.79-2.08.41 1.7-.39 3.15-.5m24.52-2.15-5.61.18-3.59.28-9.49.92-5.83.77 5.1-.82 4.15-.56 8.45-.6 4.26-.21Z"
        fill="rgba(2,12,12,1)"></path>
    <path
        d="m434.12 82.65 4.13.08 1.84.09 3.52.19 1.61.16 3.15.34 1.5.24 2.98.54 1.51.34 3.04.76 1.62.47 3.33 1.01 1.85.61 3.83 1.3 2.19.78 5.98 2.39 4.19 1.93 2.15 1.11 4.32 2.3 2.18 1.26 4.34 2.58 2.14 1.38 4.24 2.79 2.03 1.45 4.01 2.93 1.88 1.48 3.66 2.98 1.65 1.48 3.18 2.94 1.37 1.44 5.04 5.62 3.37 4.04 1.53 1.98 1.51 1.96.69.94 1.32 1.83.58.85 1.1 1.64.45.71.81 1.37.28.56 1.79 3.27.57.95.26.38.47.69.17.21 1.03 1.49.83 1.39.46.84.94 1.78.5.99 1.01 2.05.5 1.09 2.02 4.45.88 2.14.84 2.11.36.98.67 1.88.25.81.96 3.39.74 2.84.38 1.59 1.56 6.64.62 3.02.65 3.35.36 2.01.15.94.48 3.65.12 1.9.1 1.94.02 1.05.04 2.17-.01 1.22-.03 2.53-.04 1.46-.08 3.03-.06 1.75-.18 4.94-.13 2.82-.08 1.24-.16 2.36-.11 1.06-.22 2.07-.14.97-.65 3.79-.51 2.07-.54 2.13-.32 1.18-.69 2.47-.41 1.42-4.19 12.33-3.31 7.87-1.92 3.76-4 7.4-2.26 3.52-4.69 6.92-2.6 3.28-5.36 6.42-2.93 3.03-6.03 5.92-3.27 2.77-6.69 5.41-3.59 2.52-7.34 4.89-3.91 2.24-6.84 3.6-4.7 2.13-2.54.97-5.25 1.9-2.96.91-3.02.91-1.62.46-3.31.91-1.78.46-3.72.92-1.76.35-3.5.63-1.85.22-3.82.4-2.22.13-2.28.13-1.26.05-2.59.09-1.43.04-6.12.09-4.05-.02-1.87-.05-3.58-.11-1.45-.08-1.39-.09-.59-.06-1.09-.11-.41-.06-10.38-1.95-6.78-1.7-3.31-1.04-6.58-2.2-3.19-1.29-6.34-2.71-3.08-1.53-6.08-3.19-2.93-1.77-5.79-3.66-2.78-2-5.49-4.12-2.61-2.23-5.15-4.57-2.44-2.44-6.17-6.6-3.84-4.53-1.79-2.34-3.48-4.71-1.61-2.44-3.12-4.91-1.43-2.54-2.79-5.13-1.26-2.65-2.44-5.35-1.09-2.76-2.11-5.59-.94-2.89-1.78-5.84-.77-3.02-.96-4.67-.55-3.6-.21-1.98-.41-4.07-.15-2.14-.26-4.35-.07-2.21-.15-8.91.17-4.17.21-4.09.17-1.89.37-3.63.26-1.59 2.34-11.31 2.07-7.69 1.18-3.61 1.21-3.55.62-1.66 1.25-3.23.63-1.45 1.26-2.79.61-1.19 1.23-2.23.59-.87 1.86-3 .44-.82.13-.3.21-.53v-.12l.44-.99.7-1.21.5-.82 1.11-1.75.67-1.02 1.4-2.11.77-1.12 2.72-3.59 2.31-2.78 1.33-1.52 2.77-3.08 1.48-1.59 3-3.17 1.53-1.55 3.03-3.05 1.46-1.41 2.86-2.71 1.29-1.16 2.47-2.16 1.02-.8.98-.75.42-.29.79-.52.32-.17 1.48-.85 1.23-.75.68-.44 2.84-1.88 1.27-.91 2.43-1.6 1.94-1.15 1.1-.6 4.69-2.47 2.61-1.24 5.33-2.43 2.62-1.07 2.6-1.04 1.25-.46 2.44-.88 1.12-.36 5.46-1.72 3.16-.95 1.41-.38 2.74-.71 1.29-.27 2.56-.5 1.31-.19 2.63-.33 1.43-.11 2.94-.2 1.68-.06 3.5-.1 2.05-.02 4.3-.04H427m-11.54 12.43-1.16.02-2.19.07-.94.06-1.78.13-.8.1-1.53.22-.73.14-2.86.65-1.66.49-6.72 1.95-2.24.66-1.01.29-1.9.55-.72.21-6.9 2.44-4.74 2.12-2.49 1.32-5.05 2.83-2.68 1.71-5.49 3.62-2.96 2.13-1.75 1.29-.97.74-.4.33-1.38 1.22-.41.54-.66 1.04-.15.57-.19 1.18v.75l.15 1.72.26 1 .23.46.51.89.36.43.81.85.52.45 1.39.99 1.13.68.66.34 2.91 1.37 1.78.69 3.76 1.37 2.14.67 4.42 1.32 2.39.62 4.89 1.22 2.55.55 5.16 1.06 2.62.45 5.23.86 2.58.33 5.11.6 2.44.18 3.5.3 2.64.26 1.36.14 2.72.3 1.28.15 2.47.31 1.03.14 3.78.47 3.07.34 1.68.17 3.41.34 1.7.15 3.35.3 1.51.12 2.38.16 1.31.07 2.69.14 1.44.05 6.01.18 3.26.04 13.56.03 6.7-.16 6.61-.18 3.07-.13 3.01-.13 1.42-.08 2.78-.16 1.28-.08 2.48-.18 1.12-.1 2.14-.2.92-.11 1.73-.22.7-.12 1.28-.24.44-.12 3.83-1.26 2.02-.88.74-.49 1.3-1 .39-.56.58-1.18.03-.67-.12-1.41-.32-.8-.83-1.69-.68-.98-1.54-2.03-1.03-1.16-2.23-2.42-1.38-1.39-3.97-3.72-2.87-2.47-1.53-1.22-6.3-4.81-3.28-2.17-3.29-2.13-1.63-.98-3.25-1.9-1.59-.84-3.12-1.61-1.49-.68-2.92-1.26-1.35-.48-3.81-1.36-2.74-.98-1.36-.49-2.69-.96-1.21-.43-2.3-.82-.89-.32-4.08-1.26-1.39-.31-.77-.12-1.59-.24-.93-.09-1.94-.17-1.15-.08-2.43-.13-1.44-.05-3.06-.1-1.82-.05-3.83-.09-2.26-.04-6.18-.11-3.46-.04h-1.46Z"
        fill="rgba(23,235,235,1)"></path>
    <path
        d="m307.52 468.2 1.43.1 2.94.44 1.48.26 2.97.74 1.48.41 2.91 1.03 1.43.55 2.74 1.3 3.83 2.24.52.35 1.15.9.59.48 1.24 1.11 1.24 1.15 2.43 2.54.58.63 1.03 1.21.5.59.81 1.08.37.51.51.85.33.93.01.13.16.54.1.31.33.83 1.37 3.09.36.75.55 1.58.25.83.36 1.88.15 1 .18 2.38.12 4.33v.97l-.01 1.68-.02.8-.05 1.41-.08 1.35-.34 2.2-.22 1.08-.74 2.15-1.68 3.86-.66 1.4-1.55 2.62-.43.67-1 1.4-.53.72-1.26 1.55-.67.81-1.58 1.8-.84.94-1.98 2.12-1.05 1.12-2.44 2.53-4.26 4.36-1.85 1.88-3.32 3.3-1.6 1.59-2.84 2.76-1.37 1.31-2.44 2.26-1.17 1.06-2.08 1.8-1 .84-1.78 1.39-.85.64-1.53 1.02-.74.46-1.33.7-1.84.73-.64.19-1.35.58-1.5.86-.2.16-.99.28-.57.14-1.62.23-.86.11-2.04.19-1.06.08-2.28.12-2.29.11-4.48-.02-1.04-.03-1.81-.12-.84-.07-1.27-.21-1.23-.28-2.41-.78-1.19-.43-2.32-1.08-1.14-.58-2.2-1.37-1.08-.72-2.07-1.63-1.01-.85-1.91-1.89-.94-.97-1.74-2.13-.85-1.09-1.54-2.34-2.09-3.74-.45-.9-.74-1.54-.34-.73-.56-1.28-.52-1.24-.6-2.16-.25-1.11-.19-2.54-.03-.7-.02-1.63.01-2.87.01-1.79.15-3.12.1-1.5.42-2.69.25-1.32.83-2.49.47-1.25 1.35-2.52.76-1.28 2.03-2.78 1.11-1.44 2.82-3.24.77-.86 1.69-1.83.88-.94 1.95-2.03 1-1.04 2.21-2.25 3.63-3.67 1-1.01 1.87-1.87.91-.91 1.69-1.68 1.65-1.62 2.84-2.73 1.35-1.29 2.37-2.13 1.15-1.01 2.06-1.67 1.01-.79 1.91-1.33.96-.63 1.92-1.12.98-.54 2.09-1.01 3.5-1.56 1-.42 2.3-.58 1.18-.24 2.61-.22 1.33-.07m130.8-417.6 3.38.21 7.16.81 1.85.24 3.9.58 6.21 1.04 2.02.35 4.42 1.02 2.26.55 4.71 1.33 4.76 1.41 9.48 3.42 2.3.88 4.32 1.81 2.1.91 3.77 1.81 1.79.89 3 1.72.69.42 1.2.82 1.5 1.16.25.21.72.56.39.29.92.65 2.92 1.9 2.02 1.21 4.16 2.8 2.09 1.46 4.23 3.22 2.12 1.65 4.2 3.53 2.08 1.8 4.08 3.76 2.01 1.9 3.84 3.89 1.88 1.95 3.51 3.92 1.71 1.96 3.08 3.86 4.04 5.63.95 1.45 2.13 3.57 1.1 1.88 2.34 4.24 1.17 2.17 2.4 4.62 1.19 2.33 2.31 4.71 1.13 2.34 2.1 4.52 1.01 2.21 1.74 4.05.82 1.94 1.25 3.3.28.76.43 1.34.47 1.69.4 1.75.94 4.22.23 1.03.43 1.93.53 2.44.15.69.39 1.8.21.96.48 2.14 1.43 6.41.29 1.31.43 2.76.19 1.43.23 3.26.1 1.72.05 4.09.01 1.09-.03 2.39-.08 3.95-.05 2.09-.15 3.77-.09 1.84-.26 3.46-.29 3.41-1.04 6.83-.32 1.78-.79 3.84-.43 1.99-1.05 4.43-.57 2.31-1.35 5.24-.36 1.37-.78 2.93-1.28 4.71-.31 1.17-.9 2.65-.49 1.37-1.21 3.01-.65 1.54-1.49 3.29-.78 1.68-1.73 3.5-1.79 3.54-4.15 7.4-6.79 11.02-.93 1.41-1.67 2.74-.8 1.34-1.32 2.42-.61 1.14-.82 1.81-.17.41-.22.65-.13.7v.44l-.4 1.08-.27.58-.98 1.41-.56.76-1.61 1.82-3.16 3.25-.48.48-1.44 1.4-.79.78-1.99 1.94-1.05 1.04-2.45 2.4-1.28 1.24-2.83 2.77-1.45 1.42-3.12 3.05-1.59 1.55-3.32 3.25-10.3 10.05-1.73 1.68-3.84 3.76-1.98 1.93-4.23 4.15-2.16 2.12-4.49 4.4-2.26 2.23-4.6 4.52-4.61 4.53-8.97 8.85-2.18 2.14-4.12 4.07-5.68 5.62-2.15 2.13-4.12 4.08-2.03 2.01-3.87 3.84-1.91 1.88-3.63 3.6-1.79 1.77-3.41 3.37-1.67 1.66-3.19 3.15-1.57 1.55-2.97 2.93-1.46 1.44-2.77 2.74-1.36 1.34-2.58 2.53-2.53 2.49-4.5 4.42-2.17 2.12-3.83 3.74-1.84 1.79-3.24 3.12-1.54 1.49-2.7 2.56-1.28 1.22-2.23 2.07-1.06.98-1.82 1.64-.87.78-1.49 1.28-.71.6-1.22.98-.58.46-1.02.74-.5.35-.88.57-2.5 1.38-1.4.7-2.22.98-1.05.42-1.94.53-.99.22-2.2.21-4.2.06-1.41-.01-2.39-.14-1.13-.09-1.98-.3-.95-.18-1.72-.51-.85-.28-1.66-.75-1.7-.82-2.9-1.68-1.37-.85-2.36-1.82-1.13-.94-1.95-2.07-2.62-3.53-1.36-2.12-2.05-4.55-.9-2.31-1.09-4.69-.42-2.34-.08-4.54.04-1.12.29-2.14.74-3.07.33-1.03.6-1.79.29-.85.58-1.49.59-1.44 1.38-2.46.39-.61.9-1.25.48-.64 1.14-1.37.61-.72 1.45-1.6 2.58-2.77 1.1-1.18 2.17-2.46 1.06-1.22 1.9-2.35.91-1.14 1.43-1.97.31-.46.51-.79.55-.98.52-1.1 1.07-2.24.25-.51.43-.9.48-.99.17-.34.26-1 .12-.54.15-1.32.13-1.38-.04-3.34-.06-1.71-.42-3.45-1-4.52-.52-1.58-1.78-3.27-1-1.62-2.52-3.12-1.33-1.51-2.99-2.65-4.68-3.1-1.07-.54-1.87-.79-.93-.35-1.9-.46-1-.19-2.36-.22-4.51-.15-1.65-.02-2.81.06-1.36.06-2.45.39-1.21.25-2.42.93-1.23.55-2.69 1.68-.7.48-1.52 1.13-.78.6-1.69 1.4-.87.73-1.91 1.69-.99.88-2.16 2.01-1.12 1.04-2.47 2.35-1.27 1.21-2.8 2.72-1.44 1.41-3.18 3.11-5.23 5.15-3.49 3.45-6.86 6.79-1.68 1.66-3.2 3.18-1.58 1.57-2.93 2.93-1.43 1.42-2.58 2.59-1.24 1.24-2.15 2.15-1 1.02-1.62 1.64-1.73 1.79-1.46 1.53-2.9 2.68-1.45 1.27-2.91 2.19-1.46 1.04-2.96 1.71-1.49.79-3.04 1.25-1.53.56-3.17.79-1.6.34-3.32.36-1.69.12-3.52-.07-5.53-.57-2.02-.31-3.83-1.12-1.89-.65-3.54-1.8-1.73-.97-3.22-2.44-4.41-4.37-.86-1.01-1.28-1.59-.59-.77-.98-1.58-.49-.84-1.04-2.15-.28-.6-.63-1.41-1.1-2.51-.23-.53-.39-1.57-.19-.85-.3-2.08-.28-2.16-.25-5.01-.04-1.24.01-2.41.01-1.17.13-2.12.07-1.01.24-1.64.51-1.69.13-.24.41-.83.22-.46.56-1.17 1.87-4.04.22-.49.67-1.13.38-.6 1.05-1.42.57-.75 1.49-1.78.81-.94 2.02-2.24 1.08-1.18 2.62-2.76 1.39-1.46 3.3-3.39.87-.88 1.88-1.91.97-.98 2.08-2.09 1.06-1.06 2.28-2.29 3.67-3.65 1.79-1.79 3.5-3.5 1.73-1.73 3.3-3.33 1.62-1.63 3.02-3.08 1.47-1.5 2.67-2.75 1.29-1.32 2.24-2.33 1.06-1.11 1.73-1.84.8-.86 1.15-1.27.97-1.17.31-.45.6-1.18.29-.63.53-1.42 1.05-4.32.22-1.89-.1-3.37-.15-1.64-.9-3.03-.55-1.5-1.77-2.89-3.71-4.39-1.08-1.09-1.78-1.63-.85-.73-1.58-1.06-.8-.48-1.73-.71-3.12-.87-1.28-.3-1.97-.35-.92-.14-1.63-.01-.82.03-1.79.34-3.42.94-.75.23-1.34.48-.68.28-1.48.82-.79.49-1.98 1.51-.54.44-1.25 1.06-.66.56-1.5 1.35-.79.71-1.8 1.68-.95.88-2.15 2.05-1.12 1.07-2.55 2.46-1.33 1.28-2.99 2.92-1.55 1.52-3.48 3.41-1.8 1.77-4.01 3.96-2.08 2.05-4.59 4.53-7.59 7.51-2.6 2.56-4.97 4.92-2.45 2.42-4.67 4.62-2.31 2.27-4.39 4.34-2.16 2.14-4.12 4.06-2.02 2-3.85 3.81-1.9 1.87-3.59 3.54-1.77 1.75-3.35 3.3-1.65 1.62-3.11 3.07-1.53 1.5-2.89 2.85-1.42 1.39-2.67 2.62-1.31 1.29-2.46 2.41-1.21 1.19-2.26 2.21-2.22 2.17-3.89 3.78-1.86 1.8-3.22 3.11-1.53 1.47-2.63 2.5-1.25 1.19-2.12 1.97-1 .93-1.69 1.52-.79.71-1.33 1.15-.62.53-1.05.83-.49.39-.84.61-2.13 1.3-.86.46-1.49.75-.71.34-1.21.49-.57.22-.98.25-.46.09-.79-.01-.38-.03-.64-.27-.31-.16-.55-.53-.26-.3-.5-.8-.72-1.5-.6-1.39-1.27-3.35-.63-1.72-1.21-3.62-.58-1.79-1-3.39-1.06-4.28-.2-.99-.51-2.31-.14-.62-.33-1.41-.17-.74-.41-1.68-.22-.89-.49-2.02-.27-1.06-.6-2.42-.32-1.26-.73-2.89-1.25-4.92-.42-1.65-1.07-3.91-.26-.95-.51-1.77-.67-2.22-.38-1.24-.81-3.26-.19-.82-.33-1.58-.38-2.1-.19-1.24-.84-3.01-.23-.74-.5-1.39-.76-1.78-1.84-3.66 15.73-15.32.54-.53 1.27-1.25.67-.65 1.52-1.49.79-.78 1.74-1.71.9-.88 1.95-1.91 1.99-1.96 4.51-4.45 2.34-2.3 5.07-5.01 2.59-2.56 5.48-5.42 2.78-2.74 5.73-5.67 17.35-17.2 2.85-2.83 5.99-5.94 3.03-3 6.21-6.14 6.22-6.16 12.31-12.16 3.01-2.97 5.75-5.67 2.82-2.78 5.25-5.17 1.27-1.25 2.41-2.37 1.18-1.16 2.22-2.18 1.09-1.07 2.01-1.97 2.74-2.69.86-.84 1.87-1.83.96-.94 2.06-2.02 2.1-2.06 4.7-4.6 2.41-2.37 5.19-5.1 2.65-2.59 5.52-5.42 5.57-5.46 11.4-11.21 2.82-2.77 5.5-5.4 7.86-7.73 2.61-2.57 4.98-4.9 2.45-2.41 4.65-4.57 2.28-2.25 4.33-4.26 2.13-2.09 4.03-3.96 1.98-1.95 3.73-3.67 1.83-1.8 3.45-3.39 1.7-1.66 3.18-3.12 1.56-1.53 2.92-2.87 1.43-1.4 2.68-2.62 1.31-1.28 2.44-2.39 1.19-1.16 2.22-2.17 1.09-1.05 2-1.95.98-.95 1.81-1.75.88-.84 1.62-1.56 1.57-1.51 2.64-2.5 1.23-1.16 2.04-1.87.95-.87 1.52-1.34.71-.61 1.1-.9.51-.4.79-.53.36-.23.56-.27.26-.11.42-.08h1.54l1.23-.33.69-.21 1.78-.69.94-.38 2.11-.94 3.29-1.63 2.11-1.1 3.98-2.06 1.95-1 3.7-1.86 1.82-.9 3.46-1.68 1.7-.81 3.24-1.5 3.2-1.46 5.89-2.45 2.89-1.15 5.47-1.89 2.72-.89 5.32-1.43 2.68-.66 5.44-1.06 2.77-.48 5.83-.77 9.49-.92 3.59-.28 6.73-.22 3.34-.05m-4.39 32.42-4.3.04-2.05.02-3.5.1-1.68.06-2.94.2-1.43.11-2.63.33-1.31.19-2.56.5-1.29.27-2.74.71-1.41.38-3.16.95L388 88.2l-1.12.36-2.44.88-1.25.46-2.6 1.04-2.62 1.07-5.33 2.43-2.61 1.24-4.69 2.47-1.1.6-1.94 1.15-2.43 1.6-1.27.91-2.84 1.88-.68.44-1.23.75-1.48.85-.32.17-.79.52-.42.29-.98.75-1.02.8-2.47 2.16-1.29 1.16-2.86 2.71-1.46 1.41-3.03 3.05-1.53 1.55-3 3.17-1.48 1.59-2.77 3.08-1.33 1.52-2.31 2.78-2.72 3.59-.77 1.12-1.4 2.11-.67 1.02-1.11 1.75-.5.82-.7 1.21-.44.99v.12l-.21.53-.13.3-.44.82-1.86 3-.59.87-1.23 2.23-.61 1.19-1.26 2.79-.63 1.45-1.25 3.23-.62 1.66-1.21 3.55-1.18 3.61-2.07 7.69-2.34 11.31-.26 1.59-.37 3.63-.17 1.89-.21 4.09-.17 4.17.15 8.91.07 2.21.26 4.35.15 2.14.41 4.07.21 1.98.55 3.6.96 4.67.77 3.02 1.78 5.84.94 2.89 2.11 5.59 1.09 2.76 2.44 5.35 1.26 2.65 2.79 5.13 1.43 2.54 3.12 4.91 1.61 2.44 3.48 4.71 1.79 2.34 3.84 4.53 6.17 6.6 2.44 2.44 5.15 4.57 2.61 2.23 5.49 4.12 2.78 2 5.79 3.66 2.93 1.77 6.08 3.19 3.08 1.53 6.34 2.71 3.19 1.29 6.58 2.2 3.31 1.04 6.78 1.7L410.5 335l.41.06 1.09.11.59.06 1.39.09 1.45.08 3.58.11 1.87.05 4.05.02 6.12-.09 1.43-.04 2.59-.09 1.26-.05 2.28-.13 2.22-.13 3.82-.4 1.85-.22 3.5-.63 1.76-.35 3.72-.92 1.78-.46 3.31-.91 1.62-.46 3.02-.91 2.96-.91 5.25-1.9 2.54-.97 4.7-2.13 6.84-3.6 3.91-2.24 7.34-4.89 3.59-2.52 6.69-5.41 3.27-2.77 6.03-5.92 2.93-3.03 5.36-6.42 2.6-3.28 4.69-6.92 2.26-3.52 4-7.4 1.92-3.76 3.31-7.87 4.19-12.33.41-1.42.69-2.47.32-1.18.54-2.13.51-2.07.65-3.79.14-.97.22-2.07.11-1.06.16-2.36.08-1.24.13-2.82.18-4.94.06-1.75.08-3.03.04-1.46.03-2.53.01-1.22-.04-2.17-.02-1.05-.1-1.94-.12-1.9-.48-3.65-.15-.94-.36-2.01-.65-3.35-.62-3.02-1.56-6.64-.38-1.59-.74-2.84-.96-3.39-.25-.81-.67-1.88-.36-.98-.84-2.11-.88-2.14-2.02-4.45-.5-1.09-1.01-2.05-.5-.99-.94-1.78-.46-.84-.83-1.39-1.03-1.49-.17-.21-.47-.69-.26-.38-.57-.95-1.79-3.27-.28-.56-.81-1.37-.45-.71-1.1-1.64-.58-.85-1.32-1.83-.69-.94-1.51-1.96-1.53-1.98-3.37-4.04-5.04-5.62-1.37-1.44-3.18-2.94-1.65-1.48-3.66-2.98-1.88-1.48-4.01-2.93-2.03-1.45-4.24-2.79-2.14-1.38-4.34-2.58-2.18-1.26-4.32-2.3-2.15-1.11-4.19-1.93-5.98-2.39-2.19-.78-3.83-1.3-1.85-.61-3.33-1.01-1.62-.47-3.04-.76-1.51-.34-2.98-.54-1.5-.24-3.15-.34-1.61-.16-3.52-.19-1.84-.09-4.13-.08-7.12-.03M550.06 309l-.95.39-.69.57-.31.38-.59.79-.2.42-.32.81v.34l.17.97.27.2.62.21.38-.14.77-.43.32-.42.59-.95.12-.64.15-1.77-.15-.73M419.67 95.04l3.46.04 6.18.11 2.26.04 3.83.09 1.82.05 3.06.1 1.44.05 2.43.13 1.15.08 1.94.17.93.09 1.59.24.77.12 1.39.31 4.08 1.26.89.32 2.3.82 1.21.43 2.69.96 1.36.49 2.74.98 3.81 1.36 1.35.48 2.92 1.26 1.49.68 3.12 1.61 1.59.84 3.25 1.9 1.63.98 3.29 2.13 3.28 2.17 6.3 4.81 1.53 1.22 2.87 2.47 3.97 3.72 1.38 1.39 2.23 2.42 1.03 1.16 1.54 2.03.68.98.83 1.69.32.8.12 1.41-.03.67-.58 1.18-.39.56-1.3 1-.74.49-2.02.88-3.83 1.26-.44.12-1.28.24-.7.12-1.73.22-.92.11-2.14.2-1.12.1-2.48.18-1.28.08-2.78.16-1.42.08-3.01.13-3.07.13-6.61.18-6.7.16-13.56-.03-3.26-.04-6.01-.18-1.44-.05-2.69-.14-1.31-.07-2.38-.16-1.51-.12-3.35-.3-1.7-.15-3.41-.34-1.68-.17-3.07-.34-3.78-.47-1.03-.14-2.47-.31-1.28-.15-2.72-.3-1.36-.14-2.64-.26-3.5-.3-2.44-.18-5.11-.6-2.58-.33-5.23-.86-2.62-.45-5.16-1.06-2.55-.55-4.89-1.22-2.39-.62-4.42-1.32-2.14-.67-3.76-1.37-1.78-.69-2.91-1.37-.66-.34-1.13-.68-1.39-.99-.52-.45-.81-.85-.36-.43-.51-.89-.23-.46-.26-1-.15-1.72v-.75l.19-1.18.15-.57.66-1.04.41-.54 1.38-1.22.4-.33.97-.74 1.75-1.29 2.96-2.13 5.49-3.62 2.68-1.71 5.05-2.83 2.49-1.32 4.74-2.12 6.9-2.44.72-.21 1.9-.55 1.01-.29 2.24-.66 6.72-1.95 1.66-.49 2.86-.65.73-.14 1.53-.22.8-.1 1.78-.13.94-.06 2.19-.07 1.16-.02 2.75-.01m8.1 1.96-4.67.21-3.48.34-1.86.26-3.81.57-1.97.36-3.99.77-2.01.45-8.02 1.94-3.69 1.14-3.6 1.16-1.65.61-3.18 1.22-1.38.63-8.86 4.43-2.84 1.58-1.34.8-2.63 1.58-1.2.78-2.31 1.52-1 .72-1.89 1.39-.76.63-1.37 1.2-.46.51-.76.95-.11.36-.25 1.65.14 1.05.24.5.61.98.49.48 1.1.96.76.48 1.65.96 1.05.49 2.24.98 1.35.52 2.87 1.04 1.69.54 3.55 1.13 2.04.6 3 .73 2.62.54 1.56.29 3.26.57 1.81.3 3.73.58 1.96.29 8.07 1.12 3.98.47 3.92.45 1.86.18 3.61.35 1.62.12 1.99.16 1.55.13.87.07 3.67.33 2.04.19 4.17.39 2.1.21 4.18.41 1.93.2 5.75.58 3.68.36 1.63.16 3.09.28 1.19.11 1.12.09.45.04.81.06.28.02 2.44.12 1.44.02 3.03.03 1.67-.01 7.07-.13 3.74-.17 7.48-.4 3.41-.27 3.32-.29 1.49-.16 2.85-.32 1.19-.18 3.97-.58 2.38-.34.96-.13 1.77-.25.58-.07.94-.12h.08l.96-.5.82-.72.41-.44.78-.93.27-.43.45-.82v-.25l-.18-.49-.28-.46-.22-.29-1.07-1.32-.77-.85-1.7-1.8-1.02-1.02-2.12-2.09-1.16-1.09-4.82-4.44-2.29-1.94-2.25-1.86-.99-.77-1.89-1.41-.74-.48-4.98-3.22-1.49-.97-.6-.41-1.11-.74-.35-.24-3.23-1.99-2.47-1.32-1.32-.62-2.67-1.19-1.35-.52-2.67-.98-1.26-.38-2.19-.66-1.73-.53-.92-.29-3.76-1.18-1.55-.5-3.35-.97-2.44-.62-1.29-.29-5.36-1.11-2.77-.44-5.54-.8-2.61-.25-2.57-.22-1.2-.06-2.35-.1Z"
        fill="rgba(85,252,248,1)"></path>
    <path
        d="M547 312.7v-.34l.32-.81.2-.42.59-.79.31-.38.69-.57.95-.39h.18l.15.73-.15 1.77-.12.64-.59.95-.32.42-.77.43-.38.14-.62-.21-.27-.2M458.5 145.25l-.28-.02-.81-.06-.45-.04-1.12-.09-1.19-.11-3.09-.28-1.63-.16-3.68-.36-5.75-.58-1.93-.2-4.18-.41-2.1-.21-4.17-.39-2.04-.19-3.67-.33-.87-.07-1.55-.13-1.99-.16-1.62-.12-3.61-.35-1.86-.18-3.92-.45-3.98-.47-8.07-1.12-1.96-.29-3.73-.58-1.81-.3-3.26-.57-1.56-.29-2.62-.54-3-.73-2.04-.6-3.55-1.13-1.69-.54-2.87-1.04-1.35-.52-2.24-.98-1.05-.49-1.65-.96-.76-.48-1.1-.96-.49-.48-.61-.98-.24-.5-.14-1.05.25-1.65.11-.36.76-.95.46-.51 1.37-1.2.76-.63 1.89-1.39 1-.72 2.31-1.52 1.2-.78 2.63-1.58 1.34-.8 2.84-1.58 8.86-4.43 1.38-.63 3.18-1.22 1.65-.61 3.6-1.16 3.69-1.14 8.02-1.94 2.01-.45 3.99-.77 1.97-.36 3.81-.57 1.86-.26 3.48-.34 4.67-.21h1.06l2.35.1 1.2.06 2.57.22 2.61.25 5.54.8 2.77.44 5.36 1.11 1.29.29 2.44.62 3.35.97 1.55.5 3.76 1.18.92.29 1.73.53 2.19.66 1.26.38 2.67.98 1.35.52 2.67 1.19 1.32.62 2.47 1.32 3.23 1.99.35.24 1.11.74.6.41 1.49.97 4.98 3.22.74.48 1.89 1.41.99.77 2.25 1.86 2.29 1.94 4.82 4.44 1.16 1.09 2.12 2.09 1.02 1.02 1.7 1.8.77.85 1.07 1.32.22.29.28.46.18.49v.25l-.45.82-.27.43-.78.93-.41.44-.82.72-.96.5h-.08l-.94.12-.58.07-1.77.25-.96.13-2.38.34-3.97.58-1.19.18-2.85.32-1.49.16-3.32.29-3.41.27-7.48.4-3.74.17-7.07.13-1.67.01-3.03-.03-1.44-.02Z"
        fill="rgba(185,252,249,1)"></path>
</svg>