<svg id="logo-SLT-svg" xmlns="http://www.w3.org/2000/svg" xml:space="preserve" version="1.1" viewBox="151.13 228.12 1173.05 257.88">
  
  <g id="g1" transform="matrix(.46227 0 0 .46227 240.41 239.578)">
    <path id="path1" fill="#000" fill-rule="evenodd" d="M3.17 63.998c-13.5-7.1-30.6-7.3-44.4-.7-13.8 6.6-22.4 19-22.4 32.5v273.3c0 13.5 8.6 26 22.4 32.6 13.8 6.6 30.9 6.2 44.4-.7l263.7-136.7c13.1-6.8 21.1-18.8 21.1-31.8 0-13.1-8-25-21.1-31.9z"/>
    <path id="path2" fill="#fff" fill-rule="evenodd" stroke="#000" stroke-linejoin="round" stroke-width="6" d="M-139.03 134.099c-14.1-2.2-29.3 2.8-39.5 12.8s-14.1 23.7-10 35.6l82.9 242c4.1 11.9 15.5 20.3 29.7 22 14.3 1.6 29.2-3.8 39.1-14.1l192-201c9.5-9.9 12.9-23 9-34.5-4-11.6-14.7-19.7-28.3-21.8z" paint-order="stroke fill markers"/>
  </g>
  <text xml:space="preserve" id="text1" x="381.98" y="384.81" fill="#000" direction="ltr" font-size="100" letter-spacing="-.1" style="text-align:start" text-anchor="start" word-spacing="0" writing-mode="lr-tb"><tspan id="tspan1" x="381.98" y="384.81" dx="0" dy="0" font-family="Atkinson Hyperlegible" font-size="100" font-stretch="normal" font-style="normal" font-variant="normal" font-weight="700" letter-spacing="-.1" rotate="0 0 0 0 0 0 0 0 0 0 0 0 0 0 0 0 0 0 0" style="-inkscape-font-specification:&quot;Atkinson Hyperlegible Bold&quot;" word-spacing="0">Sign Language Tech</tspan></text>
</svg>
