<svg id="logo-cobrando-svg"   xmlns="http://www.w3.org/2000/svg" viewBox="40.73 0.08 1056.27 838.75">
    <title>Logo Cobrando BPO</title>
    <path
        d="m567.85 836.64-.54.13-1.51.14-3.09.07h-1.7l-.51-.04.65.04 1.62-.02 3.22-.11 1.23-.16.93-.15m.18-5.97 1.18.2.29-.11.11.95.07.66.07 1.07.02.49-.04.72-.17.7-.18.35-.15.13.02-.13-.17-.22-.17-.09-.93-.29h-.72l-1.57-.26-.67-.42-.15-.32-.17-.73.12-.46.35-1 .38-.59 1.06-.72.96-.1m-5.12-51.27-.29.39-.45.79-.2.42-.26 1.01-.1.56-.04 1.47.01.81.21 2.14.08.67-.08-.52-.11-1.04-.16-1.9.01-.72.07-1.31.11-.5.28-.93.21-.38.46-.75.29-.37 1.36-2.01m-3.69-48.8 1.34 1.34.65.7 1.19 1.6.57.84 1.02 1.83.49.94.86 2.04.82 2.08 1.15 4.6.48 2.36.47 4.97.15 2.51-.01.17-.15-2.49-.47-5-.49-2.38-1.15-4.66-.82-2.1-.86-2.05-.49-.95-1.02-1.86-.57-.83-1.18-1.62-.65-.7-1.34-1.34m513.57 21.11.7.11.46.13 1.97.91 1.17.81.31.39 1.47.76.83-.02-.19.05-1.54.24-1.58.2-3.46.06-1.72-.03-1.49-.19.27-.05.34-.32.59-.79.16-.62.38-.99.31-.43.22-.1.48-.15m-9.87 1.22-.21-.11-.24-.19m25.78-2.04-.85.71-1.9 1.24-.54.27 1.69-1.06 1.25-.95 1.27-1.04m-30.85-6.91.36.2.77.51.48.43 1.04.97.63.68 2.79 2.69.8.68.32.24.57.38.16.06.63.63.04.63-.2.33-1.01.68-.94-.13-.66-.36-1.43-.69-.7-.25-.23-.01-.4.04-.1.13-.15.33v.27l.26.44.03.03-1.83-1.44-1.47-1.32-.52-.67.01.02.25.22h.07l.08-.07-.04-.16-.12-.39-.15-.33-.35-.74-.28-.52-.63-1.89.22-.93.41-.41.71-.35m33.27-24.5 1.19 1.26 1.7 2.71.75 1.41.9 3.13.52 5.35.01 1.3-.22 2.49-.15 1.22-.52 2.31-.3 1.13-.81 2.12-.44 1.03-1.09 1.92-.58.93-1.37 1.7-.71.82-.59.53.57-.53.22-.26.39-.47.09-.17.11-.31-.03-.08-.15-.13-.16.02-.39.08-.29.12-.63.3-.41.24-.86.54-.52.37-2.62 1.63-.66.29-.26.08-.48.11-.17-.02-.29-.09-.07-.12-.08-.28.03-.21.13-.47.15-.3.35-.66.26-.4 1.67-2.55-3.57 1.82 1.66-1.05.91-.63 1.55-1.29.71-.65.99-1.19.64-1.48v-.33l.44-.7 1.06-.76.22-.09.38-.67.18-.41.29-1.19.13-.63.18-1.52.08-.78.08-1.66.05-1.66-.24-3-.09-.66-.27-1.02-.55-.89-.29-.18-.73-.99-.96-1.89-.25-.67-.62-.97-.78-.52.22-.56.13-.48.35-.87.33-.41.22-.12.47-.19.29-.02.63.02.39.08 1.02.15.29-.08-.06-.15-.21-.31m-18.03 32.43.91.11 1.8-.03.75-.05-.66.13-1.13.01-2.27-.15-1.14-.32m-16.26-6.09 1.77 2.79-.49-.63-1.07-1.57-.43-.98m6.4-.69.58.86 1.33 1.51.7.72.13.11-.21-.15-2.07-2.18-.74-1.28-.2-.4m15.35-6.35.15.11.34.29.25.25 1.18.94.63.29.21-.03.35-.17.03-.26-.02-.61-.16-.41.23.39 1.41 1.61.51.46.75 1.11.32.57.33 1.16.11.56-.12.99-.74 1.05-.23.14-.99-.22-.55-.18-1.23-.74-.59-.42-.93-1.07-.64-1.47v-.3l-.17-.47-.1-.2-.33-.28-.37-.24-.58.02.66-.06.41-.16.1-.13.15-.32-.01-.22-.09-.5-.12-.33-.28-.81-.05-.3.05-.04m-1.73 2.99-.92.63-.8 1.53-.11.74-.64.94-.03.01.12-.15.57-.94.09-.61.75-1.68.93-.56h.49m-.23-15.84.65.11h-.02l-1.1.31-.37.42-.63 1-.11.76-.05 1.07.11.51.13.18.33.29.26.08.58.11h-.04l-.89.39-.61.94v.67l-.41-.54-.32-.34h-.09l-.13.12-.02.22-.03.57v.45l.48 1.85.71 1.32.45.5.85 1.01.28.45v.17l-.09.29-.19.13-.48.24-.37.15-1.16.96-.48.95v.48l-.44 1.62-.65 1.06-.41.34-.74.56-.35.18h-.11l-.19-.07-.04-.13-.07-.33v-.25l-.18-.74-.23-.11-.02-.11-.06-.44-.09-1.12-.04-.6-.07-1.49-.07-1.81.06.63.05.27.11.43.07.01.13-.11.06-.27.61-1.73.52-1.05.24-.3.24-1.31-.38-1.12-.44-.57-.78-.9-.33-.14-.1.2-.13.59.01-.54.12-1.89.07-.87.24-1.29.47-1.18.36-.44 1.07-.55.58-.22 1.39-.16.72-.04m-18.41.65-.84 2-.32 1.06-.56 2.18-.17 1.15-.25 2.34-.01 1.22.1 2.69-.02-.11-.23-1.81.2-3.65.21-1.82 1.1-3.52.66-1.73.54-.88m3.8 12.63v-.63l.06.95m23.35-4.76-.58.74.59-.75m-5.42-1.9v.4l-.37 1.44-.55.6-.36.1-.22.02.48-.28.39-.35.45-1.3.11-.56-.16-.3m4.46-2.84.54.46.75 1.02.48 1.63v.53l-.43.98.37-1.07-.07-.66-.35-1.31-.48-.64-.95-1.05m-2.76-8.24.75.2-.96-.21m9.51-2.47 1.68 1.2.79.75-.6-.51-2.24-1.67m-3.7-.47.44.65v.41l-.17.79-.27.27-.65.44h-.41l-1.06-.44-.44-.65v-.41l.44-1.06.65-.44h.41m-.27-1.74.29.13-.38-.16m-13.16 5.79.78-.17 3.3-.52 1.75.03 2.32.17-2.61-.12h-1.72l-3.21.52-.76.18-1.33.48-1.64.91 1.74-.97Z"
        fill="rgba(0,0,0,1)"></path>
    <path
        d="m531.21.15 1.23.69 1.65 1.92.17.28.65 1.13.39.65 1.05 1.79.57.97 1.4 2.39.74 1.25 1.71 2.89.88 1.5 1.95 3.31 1 1.7 2.15 3.64 2.2 3.72 4.78 8.11 2.43 4.11 4.96 8.4 2.47 4.17 4.74 8.04 1.16 1.95 2.2 3.73 1.08 1.83 2.02 3.41.98 1.65 1.78 3.01 2.36 3.98 1.45 2.45 2.9 4.9 1.42 2.41 2.59 4.41.62 1.05 1.12 1.92.54.93.95 1.62.45.77.73 1.27.82 1.42 2.24 3.95 4.89 8.48 2.49 4.3 5.18 8.84 2.6 4.42 5.17 8.7 2.56 4.28 4.87 8.08 1.19 1.96 2.27 3.72 1.11 1.82 2.08 3.39 1.02 1.65 1.88 3.01.91 1.45 1.62 2.57.78 1.22 1.34 2.07.63.96 1.01 1.5.47.67.65.87.54.53.24.01.37.02.19-.03.55-.45.17-.17.12-.15-1.13 1.7-.53 1.33v.49l-.07.8-.12.64-.14.42-.33.91-.27.63-.63 1.36-.45.9-1.02 1.96-.68 1.26-1.49 2.71-.95 1.7-1 1.75-.55.97-1.15 2.01-.64 1.11-1.32 2.28-.72 1.25-1.5 2.57-.82 1.4-1.69 2.88-.92 1.57-1.9 3.21-1.02 1.74-2.11 3.57-1.14 1.92-2.33 3.93-1.25 2.12-2.57 4.32-1.38 2.32-2.82 4.74-1.51 2.52-3.07 5.17-1.64 2.75-3.36 5.61-1.78 2.99-3.63 6.08-1.93 3.22-3.92 6.57-2.08 3.48-4.24 7.08-2.23 3.73-4.56 7.61-2.39 4-4.89 8.16-2.56 4.29-5.23 8.71-2.74 4.58-5.57 9.31-2.92 4.88-5.94 9.91-3.11 5.19-5.09 8.52-3.4 5.72-1.59 2.68-1.55 2.62-.73 1.23-1.41 2.39-.63 1.07-1.21 2.07-.52.88-.97 1.67-.38.65-17.16 29.22-11.5 19.15-5.69 9.27-4.01 6.59-2.54 4.27-1.19 2.05-2.34 4.04-1.08 1.91-2.09 3.72-.94 1.73-1.81 3.35-.78 1.5-1.48 2.89-.61 1.25-1.11 2.37-.41.96-.72 1.76-.19.63.24.9.46 1.19.37.88.84 1.95.56 1.23 1.2 2.64.72 1.56 1.53 3.29.88 1.86 1.83 3.88 1.02 2.13 2.11 4.42 1.15 2.38 2.37 4.9 1.26 2.61 2.59 5.33 1.36 2.81 2.79 5.7 1.46 2.98 2.95 6.03 1.54 3.12 3.1 6.31 1.59 3.24 5.98 12.09-2.03-4.03-1.73-3.43-3.34-6.64-1.65-3.27-3.19-6.3-1.57-3.11-3.01-5.93-1.48-2.92-2.81-5.52-1.38-2.71-2.59-5.08-1.27-2.48-2.36-4.6-1.15-2.24-2.1-4.08-1.02-1.97-1.84-3.53-.88-1.69-1.54-2.93-.73-1.39-1.23-2.3-.58-1.07-.9-1.64-.4-.73-.56-.93-.41-.57h-.04l-.26.29-.16.19-.47.65-.26.37-.68.99-.36.54-.87 1.33-.46.7-1.04 1.63-.55.86-1.21 1.92-.63.99-1.37 2.2-.71 1.13-1.51 2.44-1.55 2.5-3.49 5.68-1.8 2.95-3.91 6.44-2 3.3-4.25 7.05-6.64 11.1-1.13 1.9-2.38 3.99-1.21 2.02-2.51 4.22-2.54 4.26-5.39 9.05-2.74 4.58-5.64 9.47-2.84 4.76-5.73 9.6-2.86 4.8-5.63 9.45-2.79 4.68-5.37 9-2.64 4.42-4.94 8.28-1.19 2.01-2.29 3.83-3.24 5.43-4.14 6.94-8.08 13.55-1.97 3.3-3.75 6.31-1.85 3.09-3.42 5.75-1.67 2.8-3 5.04-.72 1.2-1.34 2.25-.65 1.1-1.19 2.01-.58.98-1.05 1.75-.5.84-.87 1.48-.42.7-.69 1.17-.83 1.4-4.73 8.01-9.34 15.73-2.31 3.89-4.55 7.64-2.26 3.79-4.43 7.41-2.19 3.67-4.26 7.12-2.11 3.53-4.08 6.78-2.01 3.34-3.85 6.39-1.89 3.14-3.6 5.95-1.76 2.91-3.3 5.44-1.62 2.66-2.98 4.89-1.45 2.37-2.64 4.28-1.27 2.06-2.25 3.63-1.07 1.73-1.83 2.91-.86 1.36-1.38 2.15-.64.97-.9 1.33-.77 1.01-.69.62-1.72.91-.43.19-.81.23-1.05.1-.07-.01-.62-.01-.39-.01-1.22-.02-.69-.01-1.79-.03-.96-.01-2.33-.03-1.22-.01-2.84-.03-1.47-.02-3.3-.03-1.71-.02-3.74-.04-1.92-.01-4.15-.04-2.13-.02-4.52-.04-2.31-.02-4.87-.04-2.47-.02-5.18-.05-2.63-.02-5.46-.04-5.52-.05-11.75-.09-5.98-.04-12.45-.09-3.9-.03-7.42-.06-3.64-.02-6.91-.05-3.39-.02-6.42-.05-3.14-.02-5.95-.04-2.91-.02-5.49-.04-2.69-.02-5.05-.04-2.48-.02-4.63-.03-2.27-.02-4.23-.03-2.07-.02-3.85-.03-1.87-.02-3.49-.03-1.7-.02-3.14-.03-1.52-.01-2.81-.03-1.37-.02-2.49-.03-1.22-.02-2.2-.03-1.07-.02-1.93-.03-.93-.02-1.67-.03-1.61-.04-2.52-.08-1.16-.04-1.73-.09-.78-.05-1.07-.1-.47-.06-.57-.12-.23-.06-.2-.15-.06-.07.02-.17.23-.62v-.05l.14-.36.1-.22.33-.66.19-.37.5-.97.27-.51.67-1.24.35-.65.83-1.5.43-.78.97-1.75 1-1.8 2.41-4.27 1.26-2.23 2.87-5.02 1.48-2.59 3.25-5.65 1.67-2.89 3.55-6.13 5.6-9.61.96-1.64 2.09-3.57 1.07-1.83 2.29-3.92 1.18-2 2.47-4.24 1.26-2.15 2.64-4.52 2.68-4.57 5.74-9.81 2.91-4.98 6.08-10.4 6.13-10.48 12.5-21.38 3.09-5.27 6-10.26 8.55-14.63 2.74-4.68 5.63-9.63 2.84-4.85 5.71-9.77 2.85-4.87 5.63-9.64 2.8-4.77 5.39-9.22 2.65-4.53 4.99-8.53 1.21-2.07 2.33-3.98 1.14-1.96 2.17-3.71 1.07-1.82 2-3.41.97-1.67 1.8-3.07.87-1.5 1.59-2.71 2.11-3.61 1.29-2.2 2.72-4.65 1.38-2.35 2.83-4.84 2.85-4.87 5.68-9.71 1.39-2.38 2.68-4.57 1.31-2.25 2.46-4.2 1.19-2.03 2.15-3.68 2.79-4.77.82-1.41 2-3.42 1.06-1.8 2.39-4.09 1.24-2.12 2.69-4.6 1.38-2.35 2.9-4.97 2.95-5.03 6.15-10.5 1.53-2.61 3.01-5.15 4.36-7.45 2.02-3.44 3.85-6.59 1.91-3.25 3.65-6.24 1.81-3.09 3.5-5.98 1.73-2.96 3.38-5.77 3.35-5.72 6.49-11.1 3.24-5.53 6.49-11.09 3.27-5.59 6.78-11.59 1.72-2.95 3.56-6.09 1.8-3.08 3.74-6.39 1.89-3.23 3.94-6.76 2.01-3.42 4.2-7.19 2.13-3.64 4.48-7.68 7.09-12.13 2.51-4.3 5.18-8.86 2.6-4.45 5.26-8.99 2.62-4.48 5.17-8.86 2.57-4.39 4.96-8.48 2.43-4.17 4.59-7.84 1.12-1.92 2.14-3.66 1.05-1.8 2-3.41.98-1.68 1.84-3.14.89-1.53 1.66-2.84.81-1.37 1.46-2.5 1.95-3.33 3.06-5.23 6.24-10.68 3.14-5.36 6.38-10.9 6.39-10.93 13.05-22.31 6.55-11.18 13.14-22.47 19.54-33.4 1.53-2.62 3.21-5.48 1.62-2.77 3.33-5.68 3.33-5.69 6.59-11.24 1.61-2.74 3.08-5.24 1.5-2.57 2.81-4.77 1.35-2.31 2.43-4.13 3.12-5.3 1.82-3.09 3.42-5.82.82-1.4 1.53-2.63.75-1.28 1.35-2.33.65-1.12 1.14-1.96.54-.93.87-1.54.41-.7.58-1.03.49-.91.38-.77 1.04-.92.55-.36 1.23-.11m515.94 707.86-.37.04-.23.02-.8.04-.45.02-1.22.04-.67.02-1.62.03-.87.02-2.02.04-1.06.02-2.4.03-1.25.02-2.76.03-1.43.02-3.12.03-1.6.02-3.46.03-1.76.02-3.78.03-1.93.01-4.09.03-2.08.02-4.38.03-2.23.01-4.66.03-2.36.01-4.93.03-4.99.02-10.73.05-5.47.02-11.61.04-5.9.03-12.37.03-6.28.02-13.03.03-6.58.02-13.57.03-6.85.01-14 .02-7.04.01-14.32.02-14.37.01-29.22.02-14.61.01-29.01-.01h-7.2l-14.2-.01-7.06-.01-13.84-.01-6.87-.01-13.36-.02-6.61-.01-12.78-.03-6.3-.01-12.07-.03-5.94-.02-11.26-.04-5.52-.01-10.33-.05-2.52-.01-4.84-.02-2.39-.01-4.58-.03-2.25-.01-4.29-.02-2.11-.02-3.99-.02-1.95-.02-3.68-.03-1.8-.01-3.35-.03-1.63-.02-3.01-.03-1.46-.01-2.65-.04-1.28-.01-2.28-.04-1.1-.02-1.9-.03-.9-.02-1.5-.04-.7-.02-1.08-.04-.5-.01-.66-.05-.49-.06-.04-.01.2.01.65.04.49.02 1.08.04.7.02 1.49.03.89.02 1.9.03 1.09.02 2.27.03 1.28.02 2.65.03 1.46.02 3 .03 1.63.01 3.35.03 1.79.02 3.68.03 1.95.01 3.99.03 2.11.01 4.29.02 2.25.02 4.57.02 2.39.01 4.85.02 2.52.01 10.33.05 5.52.01 11.26.04 5.94.02 12.08.03 6.31.01 12.78.03 6.62.01 13.37.02 6.87.01 13.86.02h7.06l14.22.01 7.2.01h43.67l29.25-.01 14.39-.02 14.34-.01 7.05-.01 14.02-.02 6.85-.01 13.59-.03 6.59-.01 13.05-.03 6.28-.02 12.39-.03 5.91-.02 11.62-.04 5.48-.02 10.74-.04 4.99-.03 4.94-.02 2.37-.02 4.66-.02 2.23-.01 4.39-.03 2.08-.01 4.1-.03 1.93-.02 3.78-.03 1.77-.01 3.46-.03 1.6-.02 3.12-.03 1.43-.01 2.77-.04 1.25-.01 2.41-.04 1.06-.01 2.02-.04.86-.02 1.63-.03.67-.02 1.22-.04.45-.02.8-.04.24-.02.36-.04m-494.29-45.6 1.42 2.78 2.8 5.48 1.33 2.58 2.6 5.06 1.21 2.36 2.38 4.6 1.1 2.1 2.13 4.08.96 1.83 1.86 3.51.81 1.52 1.55 2.89.66 1.19 1.22 2.21.14.24-.24-.41-.98-1.69-.51-.92-1.22-2.22-.65-1.17-1.48-2.78-.78-1.47-1.78-3.38-.92-1.77-2.08-4.02-1.08-2.09-2.41-4.7-1.25-2.44-2.76-5.41-1.42-2.8-3.13-6.18-.16-.31M711.48 68.21l-.38.59-.27.42-.58.93-.37.59-.79 1.27-.46.74-.97 1.58-.55.89-1.15 1.87-.63 1.03-1.3 2.14-.71 1.16-1.46 2.39-.78 1.28-3.25 5.35-1.81 2.98-3.72 6.15-2 3.32-4.1 6.8-2.16 3.58-4.37 7.28-2.27 3.77-2.04 3.39 3.13-5.21 2.19-3.64 4.23-7.04 2.09-3.47 3.96-6.57 1.94-3.21 3.6-5.95 1.75-2.88 3.15-5.19.76-1.24 1.41-2.31.68-1.12 1.27-2.07.61-1 1.11-1.81.53-.86.94-1.53.45-.72.77-1.23.35-.57.58-.91.26-.41.37-.57.24-.34m10.18-1.43.63-.02m89.5-.41h-11.71l-5.53.01H784.52l-4.84.01h-2.3l-4.51.01h-2.14l-4.19.01h-1.99l-3.89.01-1.83.01-3.6.01h-1.69l-3.32.02h-1.55l-3.05.02-1.43.01-5.44.04-2.37.02-4.5.05-1.87.03 1.87-.03 4.5-.05 2.37-.02 5.44-.04 1.43-.01 3.05-.02h1.55l3.32-.02h1.69l3.6-.01 1.83-.01 3.89-.01h1.99l4.19-.01h2.14l4.51-.01h2.3l4.84-.01H794.8l5.53-.01H828.15h-9.84Z"
        fill="rgba(1,144,56,1)"></path>
    <path
        d="m423.83 721.52.65.01 1.12.07 1.08.07 1.67.34.8.21 1.48.7 2.52 1.62 1.45 1.01 2.55 2.74 3.34 5.18 3.01 5.88.31 37.58.02 2.06.03 3.8.01 1.85.02 3.41.01 1.65.01 3.04.01 1.48v4l-.01 2.38v1.15l-.02 2.09-.03 2.03-.08 3.3-.05 1.54-.14 2.5-.08 1.17-.2 1.91-.12.9-.27 1.55-.51 2.15-.44 1.68-1.28 3.02-.7 1.46-1.73 2.56-.92 1.21-2.13 2.07-1.11.97-2.49 1.54-1.29.7-2.79.99-1.43.43-3.05.41-1.55.13-3.24-.19-1.65-.17-3.4-.83-.61-.17-1.25-.58-.62-.33-1.26-.84-1.26-.9-2.39-2.43-1.14-1.29-1.96-2.96-2.12-4.68-.18-.6-.32-1.26-.14-.67-.24-1.6-.11-.85-.17-2.15-.08-1.16-.11-2.92-.03-.79-.03-1.77-.02-.92-.03-2.04-.01-1.06-.01-2.34-.01-1.21v-2.68l-.01-1.38.01-3.03.01-1.57.01-3.42.01-1.76.02-3.84.05-6.26.29-39.91 2.95-5.32.53-.96 1.12-1.7.57-.81 1.23-1.43.63-.68 1.35-1.16.69-.55 1.5-.92.77-.43 1.68-.68.86-.31 1.86-.46.96-.2 2.08-.24 3.38-.15h.8m602.92.27 1.77.5 3.37 1.65 1.63.92 2.88 2.37 3.47 4.21 3 4.92v52.91l-.01 4.24v2.04l-.01 3.68v1.78l-.02 3.17-.01 1.52-.02 2.71-.02 1.29-.03 2.28-.02 1.1-.05 1.9-.03.91-.07 1.57-.03.74-.08 1.28-.05.61-.1 1.04-.11.98-.28 1.42-.16.65-.39 1.01-.72 1.45-.63 1.2-1.53 2.12-.8 1.01-1.82 1.76-.94.84-2.08 1.38-1.07.64-2.3.99-1.18.45-2.49.58-1.27.24-2.64.17-1.34.03-2.76-.26-1.39-.19-2.84-.71-.59-.17-1.22-.56-.62-.32-1.26-.82-1.25-.89-2.41-2.35-1.16-1.24-1.97-2.81-2.11-4.34-.17-.52-.29-1.19-.14-.64-.23-1.59-.11-.86-.18-2.16-.08-1.17-.13-2.92-.06-1.58-.09-3.88-.02-1.04-.03-2.29-.02-1.18-.03-2.59-.01-1.34-.02-2.92-.01-1.5-.01-3.27-.01-1.68-.01-3.65-.01-5.91v-9.64l.01-4.18v-2.02l.02-3.66.02-1.77.04-3.19.02-1.53.06-2.75.03-1.33.09-2.36.05-1.14.12-2.01.06-.97.15-1.71.17-1.64.45-2.56.25-1.18.64-1.91.36-.9.87-1.6 1.62-2.42.35-.5.97-1 .51-.49 1.24-.96 1.28-.94 3.11-1.63 1.59-.75 3.32-1.06 4.66-.69h1.77m-658.93.55 3.41.51 1.64.33 2.96 1.15 1.43.66 2.51 1.78 1.2.96 2.05 2.4.97 1.28 1.59 3.01.74 1.58 1.11 3.6.5 1.88.62 4.19.39 6.94.01 1.12-.05 1.89-.03.89-.15 1.48-.09.68-.29 1.11-.17.5-.47.79-.26.35-.68.52-.37.22-.94.3-.51.13-1.22.13-2.21.07h-1.05l-1.72-.02-.81-.02-1.29-.11-.6-.08-.92-.26-.42-.15-.61-.47-.27-.26-.36-.74-.16-.41-.18-1.08-.08-.58-.06-1.47-.03-2.71v-2.21l-.27-3.77-.17-1.78-.62-2.88-.35-1.32-.95-1.94-1.8-1.83-.38-.2-.8-.19-.4-.05-.82.09-.82.16-1.58 1.03-.75.63-1.27 1.82-1.28 3.39-.06.27-.1 1.21-.05.71-.09 2.02-.04 1.1-.07 2.73-.03 1.44-.06 3.32-.02 1.72-.03 3.82-.02 1.96-.01 4.2.05 13.58.3 34.17 2.42 2.58.72.76 1.18.99.57.4 1.03.29.52.06 1.1-.39 1.95-1.32.48-.39.7-.89.31-.5.45-1.44.1-.42.17-1.01.09-.54.15-1.3.07-.7.14-1.64.2-2.92.65-9.96 7.22-.29.88-.04 1.46-.05.69-.02 1.09-.01h.51l.8.05.37.04.55.12.5.15.52.61.51 1.5.16.61.18 1.62.08.86.03 2v2.07l-.39 4.74-.25 2.37-.8 4.49-.22 1.06-.5 1.87-.82 2.32-.68 1.54-1.41 2.54-.72 1.19-1.6 1.94-.83.91-1.92 1.5-3.41 1.92-1.05.48-2.66.68-1.39.29-3.05.26-1.53.08-3.04-.16-1.47-.14-2.63-.62-1.15-.34-2.24-1.16-1.11-.66-2.07-1.7-1.01-.92-1.81-2.16-2.29-3.65-2.5-4.89v-84l3-5.49.51-.93 1.09-1.66.55-.8 1.19-1.4.61-.66 1.31-1.15.68-.54 1.45-.9.75-.43 1.61-.67.83-.31 1.79-.45.92-.19 1.99-.24 3.22-.14m444.38-.38 1.14.05 2.26.36 1.13.23 2.19.71 1.08.4 2.07 1.06 1.01.58 1.9 1.4.92.75 1.67 1.75.8.92 1.4 2.09.67 1.09 1.08 2.43 1.21 4.03.09.42.16 1.53.08.87.15 2.32.06 1.26.12 3 .06 1.58.1 3.57.05 1.84.07 4.02.03 2.05.06 4.33.04 4.4.03 9.27v4.63l-.07 9.03-.02 2.19-.06 4.19-.04 2.05-.08 3.81-.04 1.84-.11 3.3-.06 1.58-.13 2.68-.07 1.25-.15 1.94-.26 1.95-.31 1.48-.93 2.69-.52 1.31-1.37 2.4-.74 1.17-1.86 2.19-3.38 3.14-.79.63-1.36.91-.68.4-1.43.55-.76.24-1.85.29-3.63.29-1.88.09-3.85-.13-.9-.06-1.55-.18-.72-.1-1.03-.24-.58-.18-1.23-.63-.62-.35-1.28-.93-1.27-1-2.48-2.66-1.2-1.41-2.03-3.14-2.12-4.77-.15-.48-.26-1.66-.12-.93-.23-2.47-.11-1.33-.18-3.16-.09-1.65-.16-3.73-.07-1.93-.12-4.18-.05-2.14-.08-4.51-.08-4.58-.04-9.63v-4.81l.11-9.39.03-2.28.1-4.37.05-2.13.14-3.97.07-1.93.17-3.46.09-1.65.2-2.83.11-1.33.24-2.07.4-2.14.42-1.4 1.1-2.51.59-1.21 1.42-2.15.74-1.03 1.68-1.78.88-.84 1.9-1.42.98-.66 2.07-1.06 1.05-.49 2.2-.7 1.11-.3 2.27-.34 1.13-.13m-192.65.87 2.16.07 1.05.04 1.84.14.86.07 1.31.19 1.15.33.18.11.44.95.23.57.49 1.71.25.93.49 2.24.66 3.72.2 1.29.48 3.15.26 1.64.54 3.5.27 1.76.54 3.44.73 4.63.43 2.75.94 6.22.23 1.5.4 2.72.47 3.31.06.45.16 1.13.09.6.2 1.41.21 1.46.53 3.51 1.74 11.44.41 2.59.74 4.75.35 2.31.65 4.2.32 2.04.56 3.69.28 1.79.48 3.21.23 1.55.41 2.78.2 1.34.34 2.36.16 1.14.27 1.99.13.96.21 1.66.09.79.15 1.35.07.64.1 1.09.08 1.02.02 1.39-.01.61-.15.76-.36.74-.15.19-.71.33-.41.15-1.17.24-.64.11-1.56.14-2.7.09h-.95l-1.58-.03-.74-.03-1.19-.15-.56-.1-.88-.38-.4-.22-.64-.69-.3-.4-.46-1.1-.22-.61-.37-1.61-.18-.88-.34-2.21-.55-4.09-.16-1.24-.36-2.32-.18-1.11-.36-1.92-.18-.89-.33-1.3-.4-1.03-.17-.17-.77-.29-.44-.14-1.21-.22-1.28-.2-3.2-.18-1.61-.04-2.94.17-.65.07-1.06.2-1.04.42-.24.19-.48.92-.23.55-.45 1.61-.21.88-.41 2.27-.55 4.12-.15 1.29-.36 2.46-.19 1.19-.4 2.08-.2.98-.39 1.48-.54 1.27-.21.26-.87.42-.5.19-1.31.28-1.38.24-3.36.1-.83-.01-1.6-.12-.78-.08-1.36-.24-.63-.14-.96-.37-.41-.2-.37-.5-.09-.23-.11-.72-.05-.41-.02-1.07v-.59l.07-1.42.05-.76.16-1.78.09-.93.25-2.13.13-1.11.34-2.49.18-1.29.43-2.84.74-4.66.62-3.74 1.13-7.21.55-3.55.99-6.69.47-3.27.82-6 1-8.04.14-1.24.37-2.81.19-1.43.43-2.93.22-1.45.44-2.71.62-3.43.25-1.24.51-2.76.25-1.41.52-2.98.51-3.01.94-6 .22-1.45.39-2.69.19-1.29.29-2.27.14-1.07.18-1.69.11-1.71v-.68l.46-1.73 1.1-2.3.35-.5.73-.68.4-.31 1.16-.36.67-.16 2.01-.14.58-.02 1.38-.03h2.47M468.98 722l.8.02 1.93.07 3.5.16 1.68.09 3.04.24 1.47.14 2.67.36 1.29.19 2.33.49 1.12.27 2.04.63.98.34 1.78.79.86.42 1.57.97 4.09 3.62 1.25 1.43 1.81 2.64.81 1.34 1.05 2.94.23.78.33 1.74.16.9.21 2.02.09 1.06.1 2.4.07 4.1v1.22l-.01 2.06v.98l-.05 1.65-.02.78-.1 1.32-.05.62-.16 1.08-.17 1.03-.6 1.69-1.39 2.68-.71 1.21-1.57 2.28-.37.51-.67.84-.81.85-.54.45-.64 1.03-.24.53-.05 1.14.04.58.53 1.18 1.45 1.74 1.06.95 1.81 2.62.85 1.4 1.39 3.36.64 1.75.94 3.89.41 2 .49 4.21.18 2.14v4.34l-.06 2.17-.49 4.25-.31 2.1-1.01 3.97-2.1 5.4-.63 1.24-1.83 2.37-.99 1.16-2.42 2.1-1.26 1.01-2.8 1.66-4.41 1.84-.77.23-2.1.38-1.13.18-2.63.27-2.71.25-5.99.17-1.47.02-2.76-.06-1.33-.04-2.33-.17-1.08-.1-1.64-.29-.71-.16-.72-.41-.06-.06-.11-.42-.05-.26-.11-.8-.05-.45-.09-1.15-.05-.62-.08-1.49-.05-.79-.08-1.79-.03-.93-.08-2.07-.07-2.14-.11-5-.06-2.6-.08-5.78-.04-2.97-.06-6.35-.03-3.22-.02-6.72-.01-3.39v-10.31l.03-6.83.02-3.39.06-6.58.04-3.24.08-6.12.05-2.98.12-5.46.06-2.62.14-4.59.04-1.08.08-1.96.04-.95.09-1.67.05-.8.09-1.36.05-.64.1-1.02.05-.47.11-.65.17-.54.31-.42.75-.56.45-.24 1.47-.24.44-.05 1.11-.04.61-.01m486.92.53 1.13.01 1.89.05.89.03 1.5.1.71.06 1.22.17 1.18.2 2.04.7 3.52 1.67 1.58.81 2.92 2.16 1.42 1.16 2.48 2.72 1.17 1.41 1.9 3.12 2.06 4.94.37 1.3.58 2.82.25 1.44.33 3.04.27 3.06-.15 6.33-.1 1.57-.35 3.05-.21 1.5-.57 2.86-.31 1.39-.78 2.55-1.41 3.38-.45.89-1.14 1.75-.61.87-1.39 1.67-1.45 1.63-3.36 2.81-.86.64-1.75 1.11-.88.53-1.74.82-.86.37-1.65.5-2.33.3h-.71l-1.69.3-2.14.74-.45.24-.62.84-.13.28-.21.85-.09.47-.15 1.33-.06.74-.09 1.96-.04 1.07-.04 2.73-.02 1.48-.02 3.64v.98l-.01 2.15V815.24l-.02 3.39-.01 1.63-.04 2.88-.02 1.38-.06 2.38-.04 1.13-.09 1.92-.05.9-.11 1.47-.07.69-.14 1.06-.08.48-.17.66-.3.59-.21.21-.9.33-.51.15-1.39.23-1.46.21-3.58.09-.89-.01-1.7-.08-.83-.05-1.44-.19-.67-.11-.99-.28-.42-.16-.35-.39-.02-.04-.03-.38-.01-.23-.03-.74-.02-.42-.02-1.09-.01-.59-.03-1.41-.01-.75-.02-1.73-.01-.9-.01-2.02-.02-2.08-.02-4.95-.01-2.6-.01-5.85-.01-3.03.01-6.6v-3.38l.02-7.19.04-11.27.26-56h13.51m-216.11-.25 1.87.08 3.43.37 1.66.22 3.01.67 1.46.37 2.63.96 1.27.52 2.26 1.28 1.09.67 1.92 1.6.91.83 1.6 1.92 2.06 3.26.35.68.64 1.6.3.85.55 2.01.26 1.05.46 2.45.22 1.29.38 2.96.19 1.55.31 3.53.15 1.84.25 4.14.12 2.16.2 4.83.24 8.06.05 2.37.08 4.2.03 2.01.04 3.58.01 1.72-.02 3.07-.01 1.48-.07 2.68-.09 2.6-.34 4.52-.81 6.67-.29 1.97-.64 3.5-.34 1.68-.76 2.96-.4 1.42-.91 2.48-.48 1.19-1.11 2.07-.58.99-1.33 1.72-.69.82-1.6 1.43-.83.69-1.89 1.19-3.21 1.61-.68.29-2.13.52-1.17.24-2.87.42-1.51.19-3.3.31-1.67.13-3.4.18-1.68.07-3.17.03h-1.53l-2.62-.12-1.22-.09-1.75-.28-.37-.09-.52-.2-.22-.1-.19-.25-.01-.05-.04-.38-.01-.24-.04-.75-.01-.42-.03-1.1-.01-.59-.03-1.42-.01-.75-.02-1.74-.01-.9-.02-2.02-.02-2.09-.03-4.97-.01-2.6-.01-5.86-.01-3.03v-9.99l.02-7.19.04-11.28.26-56 10.45-.29 2.09-.05m-196.21-.14 2.6.04 5.35.4 1.29.13 2.37.33 3.06.62 1.63.43 3.52 1.4.84.37 1.49.76 1.75 1.1.72.56 1.34 1.34.65.7 1.18 1.62.57.83 1.02 1.86.49.95.86 2.05.82 2.1 1.15 4.66.49 2.38.47 5 .15 2.52-.22 5.07-.19 2.52-.93 4.85-.55 2.37-1.65 4.35-.46 1.04-1.05 1.94-1.8 2.66-.29.37-.46.75-.21.38-.28.93-.11.5-.07 1.31-.01.72.16 1.9.11 1.04.41 2.69.12.73.28 1.64.15.86.36 1.92.19.99.43 2.21.22 1.15.51 2.53.26 1.3.58 2.88.96 4.73.54 2.61.97 4.83.23 1.16.43 2.15.21 1.04.37 1.88.17.9.3 1.55.14.73.22 1.18.1.53.13.74.08.56v.23l-.48.18-1.18-.2-.46-.17-.96.1-1.06.72-.38.59-.35 1-.12.46.17.73.15.32.67.42 1.57.26h.72l.93.29.17.09.17.22-.05.4-.09.15-.66.25-.39.11-1.14.18-1.23.16-3.22.11-1.62.02-3.03-.19-.68-.06-1.11-.19-1.1-.38-.18-.11-.39-.63-.2-.37-.41-1.05-1.05-4.07-.13-.75-.36-2.03-.19-1.08-.44-2.47-1.38-7.6-.22-1.17-.5-2.8-.27-1.44-.55-3.08-.27-1.54-.54-2.98-.69-3.95-.2-1.13-.37-1.92-.18-.9-.34-1.51-.16-.7-.34-1.13-.17-.52-.35-.78-.18-.36-.38-.48-.19-.21-.44-.22-1.57.15-.17.06-.28.29-.14.18-.23.61-.1.35-.18 1.03-.09.58-.13 1.55-.07.86-.11 2.19-.04 1.18-.09 2.93-.04 1.57-.06 3.77-.09 6.73-.27 23.29-7 .19-.96.03H529.78l-1.59-.05-.75-.03-1.15-.09-.51-.06-.53-.13-.06-.03-.1-.36-.05-.23-.1-.76-.05-.42-.09-1.13-.05-.61-.09-1.47-.04-.77-.08-1.79-.04-.93-.07-2.07-.07-2.14-.12-5.04-.06-2.62-.09-5.85-.04-3-.07-6.45-.03-3.27-.03-6.82-.02-3.44-.01-6.99v-3.5l.02-6.95.01-3.44.04-6.69.03-3.29.07-6.22.05-3.03.1-5.52.05-2.66.13-4.63.04-1.09.07-1.98.04-.95.08-1.68.04-.8.09-1.35.04-.63.1-1 .05-.46.1-.62.16-.48.22-.22 1.07-.34.63-.16 1.76-.22.95-.1 2.26-.11 1.17-.04m127.36.02 2.72.31.6.11.96.28.91.54.06.07.25.63.15.39.4 1.18.22.66.53 1.68.28.89.63 2.08.33 1.09.72 2.42.37 1.24.78 2.68.79 2.72 1.68 5.9.84 2.97 1.65 5.93.8 2.91 1.44 5.35.34 1.27.62 2.33.29 1.13.5 1.98.23.93.37 1.55.38 1.75.24 1.29.61 2.31.32 1.1.68 1.76.34.79.67 1.02.91.49.08-.03.13-.6.07-.38.13-1.3.06-.72.12-1.94.05-1.05.1-2.54.05-1.35.09-3.1.04-1.61.06-3.62.04-1.86.05-4.09.05-6.6.15-30.47h14v114l-6.13.29-.92.05-1.56.01h-.74l-1.26-.12-.59-.08-.99-.27-.47-.17-.77-.48-.37-.26-.6-.71-.29-.39-.49-.98-.23-.53-.42-1.29-.59-2.31-.15-.65-.4-1.63-.21-.85-.48-1.85-1.43-5.28-.58-2.01-1.19-4.24-.6-2.17-1.27-4.63-.64-2.37-1.36-5.11-2.2-8.32-.34-1.33-.64-2.39-.31-1.16-.57-2.04-.28-.98-.5-1.7-.24-.8-.45-1.34-.21-.63-.38-.98-.19-.45-.32-.62-.16-.27-.28-.26-.13-.08-.23.1-.11.1-.18.48-.08.29-.15.85-.06.47-.11 1.23-.04.66-.07 1.6-.03.85-.04 1.99-.02 1.05-.01 2.37v1.24l.01 2.76.05 4.59.03 2.85.01 6v2.98l-.05 5.76-.02 1.4-.04 2.62-.03 1.28-.06 2.34-.03 1.12-.07 1.97-.12 2.43-.62 10-6 .19-1.65.06-2.95-.08-.66-.03-1.03-.09-.46-.05-.5-.14-.06-.02-.1-.37-.05-.23-.1-.76-.05-.42-.09-1.13-.05-.61-.09-1.47-.04-.77-.08-1.79-.04-.92-.07-2.08-.07-2.14-.12-5.04-.06-2.62-.09-5.85-.04-3-.07-6.45-.03-3.27-.03-6.82-.02-3.44-.01-6.99v-3.5l.02-6.95.01-3.44.04-6.69.03-3.29.07-6.22.05-3.03.1-5.52.05-2.66.13-4.63.04-1.09.07-1.98.04-.95.08-1.68.04-.8.09-1.35.04-.63.1-1 .05-.46.1-.62.16-.48.2-.2.79-.33.45-.15 1.18-.22 1.24-.2 3.04-.08m228.99.54h1.46l2.46.03 1.17.01 1.95.06.93.03 1.55.11.74.05 1.28.17 1.22.19 2.07.65 3.43 1.52 1.24.61 2.21 1.35 1.05.69 1.83 1.55.88.8 1.49 1.79.7.93 1.16 2.06.54 1.08.86 2.39.39 1.23.56 2.75.25 1.42.3 3.14.17 5.21v1.2l-.07 2.15-.04 1.04-.17 1.87-.19 1.81-.79 3.09-.47 1.5-1.5 2.94-.42.75-1.02 1.59-1.8 2.56-2.48 3.37 2.92 3.68.68.86 1.16 1.62.55.81.92 1.59.87 1.6 1.13 3.5.24.94.36 2.07.16 1.08.22 2.42.09 1.27.11 2.88.05 4.93v1.82l-.06 3.14-.04 1.49-.17 2.58-.11 1.24-.31 2.13-.18 1.02-.5 1.79-.27.86-.71 1.55-.39.76-.95 1.43-.51.71-1.24 1.41-2.21 2.21-.78.73-1.43 1.24-.71.59-1.36.98-.68.45-1.4.75-.72.34-1.55.55-.8.25-1.81.38-.95.17-2.18.25-1.15.12-2.67.15-4.65.17-1.72.04-3.23.02-1.56-.01-2.69-.08-1.24-.04-1.84-.16-.4-.04-.57-.1-.25-.05-.26-.12-.12-.08-.21-.75-.1-.48-.17-1.67-.04-.48-.07-1.16-.03-.62-.06-1.45-.03-.77-.05-1.75-.03-.92-.04-2.09-.02-1.08-.03-2.43-.01-1.27-.02-2.8-.01-1.44-.02-3.19v-1.64l-.01-3.6V800.68l.01-2.07.01-4.47v-2.3l.02-4.94.03-7.96.26-56.44m-71.37 15.06-1.1.42-.55.3-1.15 1.02-1.31 1.66-.09.17-.17 1.13-.08.68-.14 2.03-.07 1.12-.12 2.8-.06 1.49-.09 3.44-.05 1.79-.07 3.95-.03 2.03-.04 4.32-.04 4.39-.01 9.31.01 4.66.08 9.05.03 2.19.07 4.16.04 2.02.09 3.72.05 1.8.12 3.14.06 1.49.14 2.44.07 1.12.16 1.61.27 1.31.31.59.67.98.35.45.72.69.37.31.76.39 1.17.24h.27l.76-.22.38-.13.69-.39.39-.26.66-.64.3-.36.5-1.04.24-.59.36-1.68.17-.94.25-2.58.06-.71.1-1.63.04-.86.08-1.94.04-1.02.05-2.28.03-1.19.04-2.66.02-1.38.02-3.07.02-1.58.01-3.5.01-1.81.01-3.97V741.91l-2.49-2.49-.51-.51-.82-.7-.39-.29-.68-.31-.33-.1m-384.01-.31-.32.07-.69.56-1.39 1.53-2.37 2.75V785.62l.01 2.04.01 3.72v1.81l.03 3.27.01 1.58.03 2.85.02 1.38.05 2.46.02 1.19.07 2.1.04 1.02.08 1.78.05.85.11 1.49.11 1.42.31 2.09.17.94.43 1.32.23.59.57.81 1.05.9.41.28.65.3.32.11.62-.06.33-.08.8-.47.44-.29 1.17-.93 2.36-1.91.33-33.84.02-2.48.04-4.54.02-2.21.03-4.03.01-1.96v-3.55l.01-1.72-.01-3.1-.01-1.5-.03-2.68-.02-1.3-.06-2.3-.03-1.11-.08-1.96-.05-.93-.11-1.64-.06-.79-.15-1.35-.07-.65-.18-1.1-.19-1.05-.49-1.5-.26-.66-.66-.92-1.2-1.04-.62-.4-.88-.49-.39-.18m598.31-.2-1.01.59L1017 739l-.24.24-.4.53-.19.29-.3.85-.14.49-.21 1.45-.1.83-.14 2.33-.04.65-.05 1.52-.03.79-.04 1.84-.02.96-.02 2.18-.02 1.14-.02 2.58-.01 1.34-.01 3-.01 1.55v3.46l-.01 1.79v18.2l.01 3.41.01 1.66.01 3.03.01 1.48.01 2.68.01 1.3.03 2.35.01 1.14.04 2.04.02.99.04 1.76.02.84.05 1.5.06 1.44.14 2.2.08 1 .2 1.45.1.66.25.9.46.94.49.7 1.09.88.55.35 1.2.19.6.01 1.24-.49.62-.34 1.25-1.18.22-.25.37-.57.18-.32.28-.9.14-.52.21-1.47.1-.83.16-2.29.04-.64.06-1.46.03-.77.06-1.75.02-.91.05-2.07.02-1.08.04-2.42.02-1.25.04-2.8.02-1.45.03-3.2.02-1.66.03-3.65.05-5.99.02-2.49.03-4.82.01-2.38.01-4.53v-6.35l-.01-2-.02-3.63-.01-1.74-.04-3.02-.02-1.42-.05-2.31-.02-1.05-.07-1.49-.1-1.2-.16-.62-.74-1.4-.43-.7-1.07-1.32-.55-.62-1.13-.94-1.44-.62m-126.74 48.53-1.24 1.42-.06.13-.11.54-.06.31-.08.89-.05.49-.06 1.18-.03.63-.05 1.43-.04 1.49-.02 3.48-.01 1.8.05 3.79.04 1.9.11 3.68.07 1.79.17 3.16.05.74.1 1.3.05.62.12 1.03.06.48.12.7.2.64.24.39.87.37.49.12 1.22-.14.64-.13 1.39-.61.69-.36 1.37-1.04.74-.64 1.19-1.94.55-1.06.82-2.6.37-1.36.44-3.02.18-1.54.07-3.19-.01-1.59-.31-3.12-.19-1.53-.68-2.81-.38-1.35-1.04-2.25-1.97-2.5-.86-.69-1.53-.88-.73-.36-1.28-.22-.6-.02m-155.89-45.84-.4.13-.61.93-.14.3-.23.81-.12.45-.18 1.14-.09.61-.15 1.49-.07.8-.1 1.89-.05 1-.08 2.33-.03 1.23-.05 2.8-.03 1.47-.02 3.32-.02 1.73-.01 3.87v2.01l-.01 4.47v16.34l.01 3.87.01 1.88.02 3.37.01 1.63.03 2.91.02 1.41.04 2.48.03 1.2.07 2.09.03 1 .09 1.73.04.83.11 1.41.06.66.14 1.12.07.52.17.85.17.8.46.96.25.4.61.36 1.13.16h.16l.48-.15.27-.1.64-.33.66-.35 1.44-1.03.55-.43.92-.97.44-.52.71-1.3.33-.71.52-1.85.23-1 .36-2.6.16-1.41.21-3.55.05-.96.07-2.13.03-1.11.04-2.44.02-1.27.02-2.78v-4.58l-.01-1.62-.02-3.54-.05-5.77-.02-2.05-.04-3.74-.02-1.81-.05-3.3-.03-1.6-.06-2.89-.03-1.39-.07-2.5-.04-1.21-.1-2.16-.05-1.03-.13-1.83-.06-.88-.16-1.55-.08-.74-.19-1.28-.2-1.23-.53-1.81-.29-.82-.75-1.17-.4-.53-.99-.79-1.82-1.01-.71-.34-1.17-.48-.55-.19m-258.99 45.92-.28.03-.45.26-.58.66-.09.14-.16.58-.08.34-.13.93-.07.51-.11 1.23-.05.65-.08 1.48-.08 1.53-.09 3.58-.03 1.84.01 3.87.01 1.93.1 3.74.06 1.81.18 3.18.05.75.11 1.3.07.62.13 1.02.07.47.16.68.26.58.4.4.77.48.39.19.83.05.43-.03.98-.38.52-.24 1.25-.82.73-.52 1.16-1.13.54-.6.86-1.48.4-.81.66-2.06.91-4.01.24-1.29.25-2.53.09-1.26-.06-2.44-.06-1.21-.34-2.28-.2-1.12-.6-2.07-.33-1.01-.85-1.8-.45-.87-1.08-1.48-.56-.69-1.28-1.09-2.14-1.15-.54-.19-.84-.21-.39-.08m128.93-24.57-.39.16-.19.12-.34.44-.17.26-.31.78-.15.43-.29 1.18-.15.65-.28 1.64-.15.89-.29 2.16-.15 1.16-.32 2.76-.53 4.87-.15 1.44-.31 2.8-.16 1.36-.32 2.43-.15 1.14-.27 1.79-.31 1.64-.15.54.02.99.06.48.39.86.24.41.68.68.38.32.9.48.48.21 1.06.24.54.09 1.13-.02.57-.05 1.13-.33.56-.21 1.06-.66.44-.32.56-.61.23-.34.17-.98.04-.57-.19-1.76-.07-.51-.2-1.24-.39-2.24-.18-1-.37-2.53-.19-1.32-.36-2.94-.17-1.48-.31-2.98-.35-4.13-.07-.89-.12-1.54-.06-.74-.14-1.26-.13-1.19-.3-1.63-.16-.7-.4-.79-.73-.44M955 740v17.88l.03 3.51.02 1.65.09 2.71.06 1.26.17 1.99.1.92.29 1.37.15.61.41.84.22.36.56.38.3.15.74.03 1.31-.26.28-.08.71-.35.38-.19.81-.52.82-.54 1.54-1.34.55-.52.77-1.01.34-.53.47-1.32.2-.74.26-2.03.05-.57.1-1.34.12-2.36.1-2.2-.04-4.51-.03-1.05-.11-1.81-.23-2.02-.22-1.18-.93-2.12-.53-1.01-1.43-1.65-.77-.75-1.76-1.02-2.85-.64m-414.56-.61-.36.07-.58.46-.27.29-.41.95-.18.55-.27 1.55-.11.85-.15 2.22-.06 1.21-.07 2.98-.03 5.44v2.02l.05 3.74.04 1.79.11 3.03.03.7.06 1.2.04.57.08.9.04.42.08.57.14.43.34.34 1.1.3.6.09 1.41-.16.71-.14 1.41-.56.68-.33 1.12-.91.77-.77 1.15-1.66.52-.87.7-2.08.3-1.13.33-2.83.07-.77.07-1.74.05-2.93v-1.08l-.1-2-.07-.97-.23-1.76-.27-1.7-.95-2.72-.54-1.25-1.52-1.86-2.94-1.89-.61-.23-1.01-.28-.48-.1m-63.16-.02-.91.31-.36.23-.52.81-.12.25-.2.65-.09.36-.16.93-.07.5-.12 1.24-.05.67-.09 1.62-.05.87-.07 2.06-.09 3.65-.04 1.9-.01 3.21.01 1.52.12 2.49.08 1.16.28 1.83.16.83.45 1.21.25.53.65.64.36.26.89.14.47.01 1.14-.31.6-.21 1.43-.71.6-.32 1.09-1.12.52-.62.9-1.6.42-.85.69-1.97.31-1.01.45-2.19.19-1.11.19-2.28.06-1.14-.1-2.24-.08-1.11-.4-2.06-.97-2.76-.52-1.07-1.42-1.86-.75-.86-1.65-1.3-.82-.56-1.58-.55-.37-.08m411.71.23-.41.29-.64 1.04-.29.6-.41 1.69-.19.93-.2 2.39-.08 1.28-.02 3.1.18 5.5.07 1.49.18 2.79.1 1.34.19 2.31.1 1.06.2 1.55.04.33.09.47.13.41.27.44.96.39.53.12 1.31-.22.69-.18 1.48-.77.74-.45 1.44-1.28.7-.7 1.11-1.82.51-.96.73-2.22.32-1.15.35-2.46.13-1.25-.02-2.54-.05-1.27-.38-2.46-.23-1.2-.74-2.22-.41-1.06-1.08-1.82-2-2.08-.81-.57-1.39-.75-.67-.3-1.13-.18-.53-.02m183.08-31.03 1.03.13 2.07.5 1.03.29 2.04.82 1.01.46 1.98 1.15 2.86 2.13.65.55.84.77.34.33.26.38.06.15-.29.08-1.02-.15-.39-.08-.63-.02-.29.02-.47.19-.22.12-.33.41-.35.87-.13.48-.23.59-.12.23-.4.08-.23-.02-.77-.45-1.79-1.28-.53-.39-1.31-.65-.69-.3-1.54-.46-1.59-.41-3.52-.26-1.75-.03-3.3.52-.78.17-1.38.51-1.74.97-1.25.94-1.93 1.94-.87.99-1.25 2.16-.54 1.12-.65 2.53-.37 4.4v1.81l.56 3.22.37 1.54 1.32 2.7.74 1.28 2.07 2.18 3.93 2.69 1.25.63 2.35.8 1.16.32 2.27.15 1.13-.01 2.31-.48 3.63-1.46 4.02-2.05-1.67 2.55-.26.4-.35.66-.15.3-.13.47-.03.21.08.28.07.12.29.09.17.02.48-.11.26-.08.66-.29 2.62-1.63.52-.37.86-.54.41-.24.63-.3.29-.12.39-.08.16-.02.15.13.03.08-.11.31-.09.17-.39.47-.22.26-.66.62-1.31 1.07-1.25.95-2.25 1.42-1.08.62-1.87.74-.87.28-1.39.04-1.47-.76-.31-.39-1.17-.81-1.97-.91-.46-.13-.7-.11-.32-.03-.48.15-.22.1-.31.43-.38.99-.16.62-.59.79-.34.32-1.01.2-.56.03-1.51-.39-.82-.26-2.07-.97-.89-.44-1.41-.94-.29-.22-.4-.39-.26-.44v-.27l.15-.33.1-.13.4-.04.23.01.7.25 1.43.69.66.36.94.13 1.01-.68.2-.33-.04-.63-.63-.63-.16-.06-.57-.38-.32-.24-.8-.68-2.79-2.69-.63-.68-1.04-.97-.48-.43-.77-.51-.36-.2-.58-.07-.71.35-.41.41-.22.93.63 1.89.28.52.35.74.15.33.12.39.04.16-.08.07h-.07l-.25-.22-.15-.15-.4-.48-.21-.28-.52-.72-1.85-2.91-.54-.93-.8-1.63-.36-.8-.47-1.58-.21-.81-.22-1.79-.11-3.21.01-1.22.25-2.34.17-1.15.56-2.18.32-1.06.84-2 .45-.97 1.09-1.81.58-.88 1.31-1.6.68-.77 1.51-1.39.77-.66 1.67-1.16.86-.54 1.81-.91.91-.43 1.92-.65.97-.3 2-.38 1-.16 2.05-.11 1.03-.01m2.06 12.69 2.53 1.4.89.63 1.16 1.28.48.64.35 1.31.07.66-.46 1.34-1.61 2.05-.62.57-.74 1.29-.17 1.67.18.47.02.61-.03.26-.35.17-.21.03-.63-.29-1.18-.94-.25-.25-.34-.29-.15-.11h-.13l-.05.04.05.3.28.81.12.33.09.5.01.22-.15.32-.1.13-.41.16-.93.09h-.68l-.93.56-.75 1.68-.09.61-.57.94-.34.42-.87.5-.45.18-.9-.06-.44-.11-.67-.73-.19-.31-.12-.66.22-.75.16-.17.26.12.18.74v.25l.07.33.04.13.19.07h.11l.35-.18.74-.56.41-.34.65-1.06.44-1.62v-.48l.48-.95 1.16-.96.37-.15.48-.24.19-.13.09-.29v-.17l-.28-.45-.85-1.01-.45-.5-.71-1.32-.48-1.85v-.45l.03-.57.02-.22.13-.12h.09l.32.34.76 1 .36.49.82.52.41.18.78-.07.36-.1.55-.6.37-1.44v-.4l-.61-.62-1.46-.42h-.39l-.58-.11-.26-.08-.33-.29-.13-.18-.11-.51.05-1.07.11-.76.63-1 .37-.42 1.1-.31.6-.07m-7.26 6.32.78.9.44.57.38 1.12-.24 1.31-.24.3-.52 1.05-.61 1.73-.06.27-.13.11-.07-.01-.11-.43-.05-.27-.08-.89-.04-.49-.03-1.29-.02-1.14.01-1.52.02-.64.14-.62.1-.2m13.69-15.38-.65.44-.44 1.06v.41l.44.65 1.06.44h.41l.65-.44.27-.27.17-.79v-.41l-.44-.65-1.06-.44M837.46 66h11.65l5.46.01h10.35l4.83.01H876.65l2.23.01h4.24l2.08.01 3.96.01h1.94l3.69.01 1.81.01 3.42.01 3.36.01 5.96.03 2.87.02 5.04.04 2.41.02 4.19.05 2 .03 3.4.06 1.62.03 2.7.08 1.28.03 2.07.09.97.04 1.52.1.7.05 1.04.12.47.06.63.13.28.06.3.15.17.24v.05l-.19.43-.12.26-.42.83-.24.47-.64 1.22-.35.66-.85 1.58-.46.83-1.05 1.93-.55 1.01-1.24 2.24-.65 1.16-1.41 2.55-.73 1.31-1.58 2.82-.8 1.45-1.73 3.08-.88 1.56-1.87 3.32-1.9 3.36-4.16 7.35-2.13 3.75-4.55 8-7.17 12.53-4.9 8.56-9.71 16.94-2.37 4.15-4.58 7.99-2.24 3.93-4.23 7.37-2.05 3.59-3.74 6.55-.9 1.57-1.69 2.95-.83 1.45-1.52 2.67-.75 1.3-1.35 2.36-.65 1.14-1.15 2.02-.56.97-.94 1.67-1.17 2.05-.67 1.17-1.49 2.61-.76 1.35-1.65 2.89-1.68 2.95-3.61 6.32-1.81 3.18-3.54 6.2-.86 1.51-1.64 2.86-2.26 3.96-1.62 2.83-2.98 5.22-1.45 2.53-2.65 4.64-1.28 2.25-2.34 4.1-1.13 1.98-2.05 3.6-.99 1.74-1.78 3.12-.85 1.51-1.52 2.69-.74 1.29-1.29 2.29-.61 1.1-1.08 1.93-.51.92-.89 1.59-.42.76-.71 1.31-.33.61-.56 1.05-.26.49-.41.82-.39.77-.46 1.01-.36 1.01-.16.66.31 1.7 1.3 2.65.13.2.53.83.3.48.83 1.36.45.75 1.08 1.82.57.96 1.31 2.21.67 1.15 1.49 2.53.75 1.3 1.62 2.78 5.18 8.96 1.37 2.39 2.82 4.91 1.45 2.52 3.18 5.51.82 1.44 1.77 3.06.9 1.56 1.93 3.36 1 1.72 2.14 3.71 1.1 1.9 2.38 4.12 1.22 2.11 2.65 4.58 1.36 2.35 2.95 5.1 1.51 2.62 3.28 5.67 1.69 2.91 3.64 6.29 1.87 3.24 4.04 6.97 2.07 3.58 4.46 7.72 2.29 3.95 4.92 8.5 7.94 13.71-.66-1.13-.55-.96-.33-.58-.7-1.2-.4-.7-.84-1.44-.46-.8-1.98-3.42-1.16-1.99-2.41-4.16-1.33-2.31-2.76-4.77-1.49-2.56-3.02-5.22-1.59-2.74-6.51-11.25-3.34-5.77-5.17-8.93-3.56-6.15-1.8-3.12-7.25-12.52-3.45-5.98-3.41-5.9-1.61-2.79-3.15-5.45-1.45-2.5-2.78-4.83-1.23-2.11-1.19-2.07-.54-.95-1.06-1.83-.48-.82-5.46-9.41-1.69-2.87-.78-1.33-1.53-2.57-.69-1.14-1.32-2.2-.57-.94-1.08-1.76-.43-.69-.79-1.25-.27-.41-.47-.67-.09-.09-.66-.33-.53.09-.34.25-.73.63-.47.57-1.01 1.3-.64.95-1.38 2.1-.86 1.39-.89 1.45-.5.82-1.01 1.71-.56.95-1.16 1.97-.63 1.09-1.31 2.25-.71 1.23-1.46 2.55-.8 1.39-1.63 2.87-.89 1.55-2.1 3.69-1.67 2.9-.93 1.64-1.95 3.39-1.05 1.83-2.15 3.75-1.13 1.97-4.66 8.1-2.38 4.14-4.76 8.24-2.22 3.85-7.48 12.96-5.11 8.85-2.6 4.53-5.25 9.11-2.68 4.64-5.38 9.35-2.73 4.76-11.06 19.25-5.68 9.89-11.45 19.97-5.84 10.19-7.32 12.75-2.42 4.21-1.17 2.03-2.31 4.03-1.1 1.9-2.15 3.72-.99 1.71-1.91 3.32-.85 1.46-1.62 2.78-.67 1.16-1.25 2.14-.46.79-1.63 2.79-1.31 2.25-.74 1.28-1.55 2.67-.85 1.46-1.73 2.99-.92 1.58-3.78 6.55-1.96 3.4-3.91 6.8-1.86 3.23-2.97 5.17-2.14 3.73-1.13 1.96-4.65 8.08-2.38 4.12-4.73 8.22-2.21 3.82-2.17 3.76-1.01 1.74-1.95 3.39-.88 1.51-7.26 12.57-4.57 7.91-2.15 3.73-4.21 7.3-1.97 3.42-3.85 6.7-1.79 3.13-3.51 6.12-1.62 2.84-3.17 5.53-1.46 2.56-2.83 4.98-1.29 2.28-2.5 4.42-1.13 2.01-2.19 3.88-.97 1.74-1.87 3.36-.82 1.48-1.56 2.84-.67 1.23-1.26 2.34-.52.99-.97 1.84-.38.74-.69 1.37-.23.51-.41.9-.1.28-.13.44.04.06.14.04.24.02.58.05.46.02 1.02.04.66.02 1.44.04.86.02 1.84.04 1.06.02 2.23.04 1.25.01 2.59.04 1.44.02 2.72.03h-.1l-3-.03-1.46-.02-2.65-.03-1.28-.02-2.27-.03-1.09-.02-1.9-.03-.89-.02-1.49-.03-.7-.02-1.08-.04-.49-.02-.65-.04-.27-.02-.21-.04-.09-.04-.49-.69-.3-.45-.87-1.49-.48-.83-1.22-2.21-.66-1.19-1.55-2.89-.81-1.52-1.86-3.51-.96-1.83-2.13-4.08-1.1-2.1-2.38-4.6-1.21-2.36-2.6-5.06-1.33-2.58-2.8-5.48-1.42-2.78-2.97-5.84-1.5-2.95-3.11-6.15-1.57-3.1-3.23-6.39-3.26-6.45-6.74-13.44-3.4-6.77-6.87-13.76-3.44-6.89-6.79-13.67-3.37-6.79-6.5-13.15-1.59-3.24-3.1-6.31-1.54-3.12-2.95-6.03-1.46-2.98-2.79-5.7-1.36-2.81-2.59-5.33-1.26-2.61-2.37-4.9-1.15-2.38-2.11-4.42-1.02-2.13-1.83-3.88-.88-1.86-1.53-3.29-.72-1.56-1.2-2.64-.56-1.23-.84-1.95-.37-.88-.46-1.19-.24-.9.19-.63.72-1.76.41-.96 1.11-2.37.61-1.25 1.48-2.89.78-1.5 1.81-3.35.94-1.73 2.09-3.72 1.08-1.91 2.34-4.04 1.19-2.05 2.54-4.27 4.01-6.59 5.69-9.27 11.5-19.15L521.22 389l.38-.65.97-1.67.52-.88 1.21-2.07.63-1.07 1.41-2.39.73-1.23 1.55-2.62 1.59-2.68 3.4-5.72 5.09-8.52 3.11-5.19 5.94-9.91 2.92-4.88 5.57-9.31 2.74-4.58 5.23-8.71 2.56-4.29 4.89-8.16 2.39-4 4.56-7.61 2.23-3.73 4.24-7.08 2.08-3.48 3.92-6.57 1.93-3.22 3.63-6.08 1.78-2.99 3.36-5.61 1.64-2.75 3.07-5.17 1.51-2.52 2.82-4.74 1.38-2.32 2.57-4.32 1.25-2.12 2.33-3.93 1.14-1.92 2.11-3.57 1.02-1.74 1.9-3.21.92-1.57 1.69-2.88.82-1.4 1.5-2.57.72-1.25 1.32-2.28.64-1.11 1.15-2.01.55-.97 1-1.75.95-1.7 1.49-2.71.68-1.26 1.02-1.96.45-.9.63-1.36.27-.63.33-.91.14-.42.12-.64.07-.8v-.49l.53-1.33 1.24-1.87.06-.06.29-.41.17-.25.5-.77.28-.43.7-1.11.38-.6.9-1.43.47-.75 1.07-1.73.56-.9 1.24-2.01.64-1.03 1.39-2.27.71-1.17 1.54-2.51 1.57-2.57 3.52-5.79 1.81-2.98 3.94-6.5 2.01-3.32 4.26-7.06 6.64-11.05 2.27-3.77 4.37-7.28 2.16-3.58 4.1-6.8 2-3.32 3.72-6.15 1.81-2.98 3.25-5.35.78-1.28 1.46-2.39.71-1.16 1.3-2.14.63-1.03 1.15-1.87.55-.89.97-1.58.46-.74.79-1.27.37-.59.58-.93.27-.42.38-.59.33-.46.17-.21.8-.34.26-.08.76-.14.43-.07 1.15-.13.63-.06 1.63-.11.88-.05 2.21-.09 1.18-.04 2.88-.08 1.53-.03 3.64-.06 1.92-.03 4.5-.05 2.37-.02 5.44-.04 1.43-.01 3.05-.02h1.55l3.32-.02h1.69l3.6-.01 1.83-.01 3.89-.01h1.99l4.19-.01h2.14l4.51-.01h2.3l4.84-.01H794.8l5.53-.01H831.34Z"
        fill="rgba(31,15,104,1)"></path>
    <path
        d="m577.5 708-.04-.06.13-.44.1-.28.41-.9.23-.51.69-1.37.38-.74.97-1.84.52-.99 1.26-2.34.67-1.23 1.56-2.84.82-1.48 1.87-3.36.97-1.74 2.19-3.88 1.13-2.01 2.5-4.42 1.29-2.28 2.83-4.98 1.46-2.56 3.17-5.53 1.62-2.84 3.51-6.12 1.79-3.13 3.85-6.7 1.97-3.42 4.21-7.3 2.15-3.73 4.57-7.91 7.26-12.57.88-1.51 1.95-3.39 1.01-1.74 2.17-3.76 2.21-3.82 4.73-8.22 2.38-4.12 4.65-8.08 1.13-1.96 2.14-3.73 2.97-5.17 1.86-3.23 3.91-6.8 1.96-3.4 3.78-6.54.92-1.59 1.73-2.99.85-1.46 1.55-2.67.74-1.28 1.31-2.25L680 528l.46-.79 1.25-2.14.67-1.16 1.62-2.78.85-1.46 1.91-3.32.99-1.71 2.15-3.72 1.1-1.9 2.31-4.03 1.17-2.03 2.42-4.21 7.32-12.75 5.84-10.19 11.45-19.97 5.68-9.89 11.06-19.25 2.73-4.76 5.38-9.35 2.68-4.64 5.25-9.11 2.6-4.53 5.11-8.85 7.48-12.96 2.22-3.85 4.76-8.24 2.38-4.14 4.66-8.1 1.13-1.97 2.15-3.75 1.05-1.83 1.95-3.39.93-1.64 1.67-2.9 2.1-3.69.89-1.55 1.63-2.87.8-1.39 1.46-2.55.71-1.23 1.31-2.25.63-1.09 1.16-1.97.56-.95 1.01-1.71.5-.82.89-1.45.86-1.39 1.38-2.1.64-.95 1.01-1.3.47-.57.73-.63.34-.25.53-.09.66.33.09.09.47.67.27.41.79 1.25.43.69 1.08 1.76.57.94 1.32 2.2.69 1.14 1.53 2.57.78 1.33 1.69 2.87 5.46 9.41.48.82 1.06 1.83.54.95 1.19 2.07 1.23 2.11 2.78 4.83 1.45 2.5 3.15 5.45 1.61 2.79 3.41 5.9 3.45 5.98 7.25 12.52 1.8 3.12 3.56 6.15 5.17 8.93 3.34 5.77 6.51 11.25 1.59 2.74 3.02 5.22 1.49 2.56 2.76 4.77 1.33 2.31 2.41 4.16 1.16 1.99 1.98 3.42.46.8.84 1.44.4.7.7 1.2.33.58.55.96.66 1.13.18.31.49.86.27.46.67 1.16.36.61.83 1.44.43.75.98 1.69.51.88 1.12 1.94.58.99 1.24 2.16 1.28 2.21 2.89 5 1.5 2.58 3.25 5.63 1.67 2.88 3.53 6.1 1.79 3.1 3.71 6.42 5.68 9.83 1.06 1.83 2 3.46.98 1.69 1.85 3.2.9 1.56 1.71 2.95.84 1.45 1.57 2.72 1.55 2.68 2.75 4.76 1.33 2.3 2.39 4.13 1.15 2 2.12 3.65 1.03 1.78 1.93 3.33 1.9 3.29 3.64 6.29.92 1.6 1.93 3.33.99 1.7 2.11 3.65 1.09 1.88 2.39 4.13 1.23 2.13 2.76 4.76 1.43 2.47 3.22 5.56.83 1.44 1.78 3.07.9 1.56 1.92 3.32.98 1.69 2.08 3.59 1.06 1.83 2.25 3.88 1.15 1.98 2.43 4.2 3.86 6.66 1.59 2.75 3.03 5.24 1.5 2.57 2.84 4.91 1.4 2.42 2.65 4.59 1.31 2.25 2.48 4.28 1.22 2.11 2.3 3.98 1.13 1.95 2.14 3.7 1.05 1.81 1.98 3.42.96 1.68 1.83 3.16.89 1.54 1.67 2.9.82 1.42 1.53 2.66 1.5 2.6 2.59 4.52 1.24 2.15 2.1 3.69 1 1.75 1.66 2.94.78 1.39 1.27 2.29.6 1.07.93 1.71.42.8.64 1.24.29.57.39.84.17.38.2.54.08.24.06.32-.15.55-.01.03-.37.04-.24.02-.8.05-.46.02-1.22.04-.67.02-1.63.04-.87.02-2.03.04-1.07.02-2.41.04-1.25.01-2.78.04-1.43.02-3.13.03-1.61.02-3.47.03-1.78.02-3.79.03-1.93.02-4.11.03-2.08.01-4.4.03-2.23.02-4.68.02-2.38.02-4.94.02-5.01.03-10.76.05-5.49.02-11.64.04-5.92.03-12.41.03-6.29.02-13.07.03-6.6.02-13.6.02-6.86.01-14.04.03h-7.05l-14.35.02-14.4.01-29.26.01h-14.63l-29.03-.01h-7.2l-14.21-.02-7.05-.01-13.84-.01-6.86-.01-13.34-.03-6.61-.01-12.75-.03-6.29-.02-12.04-.04-5.92-.02-11.21-.04-5.5-.02-10.27-.05-2.5-.01-4.82-.03-2.37-.01-4.54-.03-2.23-.01-4.26-.03-2.08-.01-3.95-.03-1.94-.02-3.63-.03-1.78-.02-3.3-.03-1.61-.02-2.95-.03-1.44-.02-2.59-.04-1.25-.01-2.23-.04-1.06-.02-1.84-.04-.86-.02-1.44-.04-.66-.02-1.02-.04-.46-.02-.58-.05-.24-.02Z"
        fill="rgba(255,248,0,1)"></path>
</svg>