<svg version="1.1" id="svg1" sodipodi:docname="logo-Cafeto-Software.svg" inkscape:version="1.3.2 (091e20e, 2023-11-25)"
    xmlns:inkscape="http://www.inkscape.org/namespaces/inkscape"
    xmlns:sodipodi="http://sodipodi.sourceforge.net/DTD/sodipodi-0.dtd" xmlns="http://www.w3.org/2000/svg"
    xmlns:svg="http://www.w3.org/2000/svg" viewBox="-0.8 80.02 1027.12 812.24">
    <defs id="defs1"></defs>
    <sodipodi:namedview id="namedview1" pagecolor="#ffffff" bordercolor="#000000" borderopacity="0.25"
        inkscape:showpageshadow="2" inkscape:pageopacity="0.0" inkscape:pagecheckerboard="0"
        inkscape:deskcolor="#d1d1d1" inkscape:zoom="0.47868446" inkscape:cx="579.71383" inkscape:cy="616.27236"
        inkscape:window-width="1392" inkscape:window-height="1027" inkscape:window-x="0" inkscape:window-y="25"
        inkscape:window-maximized="0" inkscape:current-layer="svg1"></sodipodi:namedview>
    <path style="fill:#fe073c;fill-opacity:1;stroke:#fe073c;stroke-width:1.457;stroke-opacity:1"
        d="m 537.35174,529.20489 c -4.73382,-2.00992 -10.20223,-7.13494 -11.67473,-10.9416 -0.76044,-1.96586 0.56867,-10.07232 3.82212,-23.3119 8.03178,-32.68433 9.71758,-49.83619 8.86874,-90.23372 -0.83892,-39.92602 -2.5179,-55.34618 -12.77061,-117.28804 -4.04551,-24.44107 -8.32011,-50.99479 -9.49913,-59.00827 -3.01732,-20.50825 -4.18682,-66.24762 -2.25779,-88.30341 2.70777,-30.9597 8.82009,-44.800845 22.80607,-51.643549 6.71665,-3.286146 9.52614,-3.75178 22.76021,-3.77221 30.82935,-0.04763 57.28665,12.398115 82.95773,39.023859 6.07047,6.29624 13.68592,15.38157 16.92319,20.18965 18.67245,27.73263 33.5524,70.82763 39.23983,113.64557 3.57704,26.92983 2.03578,82.43651 -2.96991,106.95794 -11.47632,56.21917 -30.1291,95.76318 -59.72216,126.61138 -18.87248,19.67293 -35.60498,30.08746 -57.68846,35.90615 -11.50908,3.03247 -35.72791,4.31965 -40.7951,2.16815 z"
        id="path3"></path>
    <path style="fill:#fe073c;fill-opacity:1;stroke:#fe073c;stroke-width:1.457;stroke-opacity:1"
        d="m 453.37561,528.57172 c -25.47325,-5.53985 -53.00848,-23.45633 -71.97388,-46.8316 -10.38448,-12.7991 -9.75931,-13.64319 10.10491,-13.64319 h 15.97344 l 3.23485,4.73524 c 5.46491,7.99962 19.30879,21.49066 22.05275,21.49066 2.58703,0 13.21671,-9.91745 15.79677,-14.73831 1.01117,-1.88939 0.42259,-3.6443 -2.31243,-6.89467 -4.77988,-5.68056 -16.39006,-13.33244 -20.24663,-13.34387 -1.66564,-0.005 -4.99538,-1.11224 -7.39943,-2.46069 -3.50046,-1.96341 -9.48304,-2.56947 -30.03904,-3.04309 l -25.66807,-0.5914 -7.41489,-15.5246 c -4.0782,-8.53852 -8.73484,-19.54233 -10.3481,-24.45289 -3.95999,-12.05374 -9.77962,-41.72104 -11.68162,-59.55043 -0.85484,-8.01348 -1.8865,-17.02862 -2.29257,-20.03368 l -0.7383,-5.46373 12.03742,-0.12295 c 25.39709,-0.2594 34.30465,-3.04844 38.75854,-12.13566 1.0737,-2.19067 2.46613,-11.47168 3.0943,-20.62446 0.67752,-9.8722 1.9095,-17.56607 3.02866,-18.91458 1.03761,-1.25024 2.18244,-7.38423 2.54406,-13.63105 l 0.65751,-11.35791 -4.72775,-0.94554 c -2.60026,-0.52004 -8.55661,-0.94555 -13.23633,-0.94555 -10.67894,0 -12.21812,2.1645 -11.13493,15.65867 0.60054,7.48155 1.50965,10.14148 4.55113,13.3161 3.52421,3.67849 3.80068,4.92651 3.80068,17.15697 v 13.18992 l -8.9557,0.93605 c -12.54658,1.31137 -24.91094,1.1274 -27.33426,-0.40674 -4.38197,-2.77408 0.92187,-56.93044 8.14462,-83.16287 4.08727,-14.84465 14.52986,-43.22727 16.30877,-44.3267 1.06756,-0.65979 48.11831,35.13764 55.95922,42.57524 2.23042,2.11569 5.67257,6.60635 7.64922,9.97924 3.45976,5.90365 3.59391,7.10998 3.59391,32.31858 0,24.84652 -0.1856,26.58472 -3.62825,33.97992 -3.9385,8.46034 -5.09682,23.48732 -1.9599,25.42605 0.93326,0.57679 6.3621,1.3481 12.06409,1.71403 12.66465,0.81275 14.20911,-0.51651 15.11258,-13.00691 0.56367,-7.79273 0.23888,-9.12756 -3.07225,-12.62611 l -3.70257,-3.91212 -0.48613,-32.78237 c -0.65455,-44.1395 2.96742,-38.36371 -49.7637,-79.35633 -13.36534,-10.39009 -24.30064,-19.59951 -24.30064,-20.46538 0,-2.92033 14.20707,-23.20666 24.85792,-35.49471 18.24129,-21.04526 42.4427,-37.77932 62.56173,-43.258314 4.40742,-1.200276 14.89777,-2.573855 23.31191,-3.052413 19.01659,-1.081568 25.12623,0.8861 28.60528,9.212621 2.54275,6.085686 2.40326,7.030116 -7.38962,50.027016 -3.53116,15.50402 -5.34654,21.00947 -6.82145,20.68704 -1.10537,-0.24164 -7.25493,-2.66976 -13.66571,-5.39579 -6.41077,-2.72604 -17.22895,-6.34427 -24.04041,-8.04048 -6.81144,-1.69622 -17.38066,-4.34939 -23.48716,-5.89591 -14.76597,-3.73962 -23.99581,-3.73737 -25.99938,0.007 -1.82922,3.41793 -1.96637,20.42839 -0.18736,23.23736 1.8348,2.89704 14.41786,2.28343 25.89983,-1.26298 12.39098,-3.82719 18.80722,-3.705 31.53065,0.60045 12.40117,4.1964 29.57556,11.87762 30.72863,13.74333 0.44957,0.7274 1.4716,15.98651 2.27119,33.90912 1.60499,35.97618 3.47661,53.1494 11.09394,101.79381 5.10235,32.58375 13.71441,94.38886 13.71441,98.42257 0,1.78576 -5.54196,2.10698 -36.06061,2.09015 -19.83332,-0.011 -37.45854,-0.39504 -39.16711,-0.85352 -2.91229,-0.78152 -3.14356,-1.94618 -3.69893,-18.62808 -0.65385,-19.64045 -2.6685,-24.78896 -11.48387,-29.34756 -2.31996,-1.1997 -17.38118,-4.24771 -33.46935,-6.77335 -27.52822,-4.32156 -29.39712,-4.44619 -31.72762,-2.11569 -2.66817,2.66815 -3.41501,15.58419 -1.33774,23.13448 1.36926,4.97683 5.16865,5.15812 22.90176,1.09275 7.56407,-1.73409 17.84666,-2.85374 26.41786,-2.8766 l 14.03342,-0.0374 0.58485,18.77099 c 0.55694,17.87496 0.78614,19.06144 4.80176,24.85599 2.31931,3.34674 5.57579,6.83096 7.23665,7.74267 2.52384,1.38546 38.76602,3.24655 75.5052,3.87733 l 6.92072,0.11877 v 10.6744 c 0,25.37313 -4.6521,55.67353 -10.22478,66.59689 -7.65813,15.0112 -29.79602,21.01414 -56.26667,15.25737 z"
        id="path4"></path>
    <path style="fill:#fe073c;fill-opacity:1;stroke:#fe073c;stroke-width:1.457;stroke-opacity:1"
        d="m 440.28306,881.64522 c -4.54223,-2.20051 -4.89473,-8.16164 -4.909,-83.01367 l -0.0127,-66.49631 -15.89453,-0.54403 c -19.92624,-0.68203 -21.98733,-2.02703 -21.98733,-14.34826 0,-11.64892 1.99109,-13.10338 20.71829,-15.13441 l 14.94691,-1.62103 2.53287,-18.83153 c 1.39309,-10.35734 3.56177,-21.92918 4.81927,-25.7152 3.17525,-9.5598 10.31044,-19.85035 17.2485,-24.87626 14.80668,-10.72591 42.36088,-13.15685 59.56302,-5.25488 11.73894,5.39237 15.67368,10.02259 15.66349,18.4321 -0.008,6.58684 -2.35816,17.63543 -3.75129,17.63543 -0.38965,0 -3.80098,-1.56601 -7.58073,-3.48001 -19.35169,-9.79933 -30.771,-9.85132 -40.43819,-0.18413 -5.2114,5.2114 -6.30398,7.40957 -7.67124,15.43373 -2.76994,16.25634 -3.26951,21.69023 -2.33606,25.4094 l 0.90777,3.61685 h 19.18728 c 24.83177,0 26.23208,0.77512 25.38665,14.05251 -0.87473,13.73696 -1.59142,14.15962 -25.18012,14.84893 l -19.60798,0.57299 -0.41512,73.52923 c -0.48201,85.38084 1.20346,77.72876 -17.08477,77.56502 -6.05727,-0.0542 -12.40453,-0.77265 -14.10503,-1.59647 z"
        id="path5"></path>
    <path style="fill:#fe073c;fill-opacity:1;stroke:#fe073c;stroke-width:1.457;stroke-opacity:1"
        d="m 274.64681,886.11889 c -10.18487,-1.48948 -24.27926,-8.69735 -30.20569,-15.44718 -2.37731,-2.70761 -5.96028,-8.15515 -7.96215,-12.10567 -3.16496,-6.24577 -3.63978,-9.09604 -3.63978,-21.84956 0,-12.86363 0.46044,-15.57546 3.74513,-22.05746 12.66602,-24.99518 42.78469,-36.19093 107.53554,-39.97321 l 15.84752,-0.9257 -0.83289,-7.03251 c -0.84529,-7.13722 -4.98898,-16.75684 -9.95916,-23.12043 -7.79505,-9.98037 -22.86922,-16.32715 -38.77843,-16.32715 -15.83552,0 -26.45061,5.33105 -40.9808,20.58121 -7.42701,7.795 -12.16481,11.63455 -14.35644,11.63455 -3.82902,0 -14.18839,-8.89893 -17.2488,-14.8171 -1.93525,-3.74239 -1.84757,-4.65176 0.98373,-10.20154 3.60071,-7.05801 15.79568,-20.40431 22.32993,-24.4381 7.85612,-4.84984 25.87918,-10.01936 40.59247,-11.64307 35.69952,-3.93964 68.46772,7.03004 81.2614,27.20357 11.31707,17.84517 13.58944,38.47259 12.14245,110.22316 l -0.99571,49.37252 -11.4481,-0.88281 c -11.1354,-0.8587 -16.88037,-2.64733 -19.03216,-5.92547 -0.57875,-0.88173 -1.48301,-5.37309 -2.00943,-9.98084 -0.52643,-4.60775 -1.41112,-8.37772 -1.96597,-8.37772 -0.55487,0 -5.55144,3.63022 -11.10351,8.06713 -5.55208,4.43693 -13.46621,9.72451 -17.58696,11.75017 -13.52045,6.64629 -36.37675,9.19161 -56.33219,6.27321 z m 43.48468,-26.88069 c 17.86721,-4.62364 33.72292,-17.90935 37.81373,-31.68457 1.1891,-4.00414 2.59659,-12.49137 3.12776,-18.86052 l 0.96576,-11.58027 -7.86974,0.81145 c -4.32835,0.44629 -13.44275,1.20553 -20.2542,1.6872 -48.48131,3.42835 -72.33544,21.03266 -61.33153,45.26259 6.34128,13.96311 26.06846,19.92261 47.54822,14.36412 z"
        id="path6"></path>
    <path style="fill:#fe073c;fill-opacity:1;stroke:#fe073c;stroke-width:1.457;stroke-opacity:1"
        d="M 96.610237,886.31637 C 67.6545,881.52833 38.580004,861.48954 21.091581,834.26724 6.6905989,811.85083 1.9137599,790.72646 3.0304191,754.3963 3.8355696,728.20098 5.8867385,719.42429 15.909957,699.28643 c 13.016479,-26.15167 26.464556,-39.73571 52.09124,-52.6179 14.405406,-7.24139 28.99882,-10.75273 49.464643,-11.90174 30.91088,-1.73544 54.82985,3.58327 73.50805,16.3455 16.35563,11.17531 30.17497,29.66732 28.16262,37.68513 -0.92832,3.6987 -11.52063,16.15048 -15.5924,18.32962 -2.35487,1.26029 -4.73033,-0.373 -15.79956,-10.86328 -9.34467,-8.85593 -16.04803,-13.79918 -23.71002,-17.48444 -30.53023,-14.68445 -60.98733,-12.27429 -86.436209,6.83995 -24.814563,18.63783 -37.278426,47.94373 -35.137816,82.61847 1.885045,30.53482 13.939916,52.82345 38.580989,71.33354 13.676078,10.27332 24.598786,13.66959 43.980126,13.67497 30.29697,0.009 48.22819,-8.32786 67.67832,-31.46398 9.06597,-10.78406 11.57773,-11.6921 19.30636,-6.97969 7.89503,4.81387 11.72132,15.37881 9.09803,25.12099 -2.52074,9.36125 -23.63932,29.7552 -37.83407,36.53586 -17.82074,8.51273 -25.42681,10.00374 -53.87765,10.5616 -14.02358,0.27499 -28.77565,-0.0421 -32.782373,-0.70466 z"
        id="path7"></path>
    <path style="fill:#fe073c;fill-opacity:1;stroke:#fe073c;stroke-width:1.457;stroke-opacity:1"
        d="m 603.50426,887.64456 c -26.78384,-2.72817 -47.30781,-13.68676 -62.42314,-33.33026 -13.06781,-16.9826 -19.68192,-36.63534 -19.73175,-58.62975 -0.0676,-29.8355 10.83521,-56.19196 31.04731,-75.0537 16.34727,-15.25511 36.07321,-22.34366 62.076
47,-22.30729 8.55992,0.0123 19.54215,0.99862 24.73184,2.22192 26.35127,6.21143 46.83506,26.16631 57.10984,55.6352 3.10443,8.9037 5.42463,36.19707 3.67108,43.18384 l -0.96407,3.84108 h -59.48918 c -32.71904,0 -64.58052,0.43039 -70.80326,0.9564 l -11.31409,0.95639 0.87347,6.37265 c 2.20681,16.10045 16.08585,34.28417 31.85828,41.73935 10.51003,4.96779 26.79805,7.19242 38.66645,5.28107 17.19569,-2.76929 29.24416,-8.92885 41.06307,-20.99274 7.9999,-8.16571 12.16979,-8.57962 18.68759,-1.85495 9.3017,9.59694 7.61369,20.22281 -4.9983,31.46372 -15.01419,13.38191 -31.93171,19.47833 -58.06673,20.92499 -6.41077,0.35486 -16.30847,0.17128 -21.99488,-0.40792 z m 65.75501,-116.00862 c -2.98903,-15.9329 -11.05255,-29.44224 -22.11776,-37.05531 -10.00824,-6.88585 -15.62819,-8.45986 -30.46249,-8.53177 -11.47056,-0.0557 -14.22618,0.44862 -21.12643,3.86571 -11.74112,5.81438 -23.05418,17.8889 -30.24741,32.28332 -3.3456,6.69491 -5.72007,12.75965 -5.27661,13.4772 0.4516,0.73069 24.87577,1.30461 55.51976,1.30461 h 54.71345 z"
        id="path8"></path>
    <path style="fill:#fe073c;fill-opacity:1;stroke:#fe073c;stroke-width:1.457;stroke-opacity:1"
        d="m 761.96875,884.93176 c -9.93811,-3.43216 -19.23873,-12.47191 -24.19532,-23.5167 -5.02221,-11.19095 -6.56604,-31.47377 -6.60915,-86.83082 l -0.0331,-42.46281 -11.61275,-0.52736 c -13.86337,-0.62957 -16.18191,-2.32079 -17.16178,-12.51841 -0.57598,-5.99428 -0.13221,-7.76924 2.7925,-11.16942 2.98266,-3.46754 5.1956,-4.26946 15.55708,-5.63744 l 12.07978,-1.59485 -0.98463,-10.50742 c -1.35314,-14.44 0.28362,-25.00465 4.53214,-29.25317 2.99819,-2.9982 4.79285,-3.40718 14.95095,-3.40718 8.95912,0 11.99152,0.53933 13.54343,2.40881 1.38629,1.66996 2.2231,8.48523 2.72814,22.21916 l 0.72851,19.81035 25.02083,0.72851 c 23.98621,0.69837 25.17607,0.87455 28.77562,4.2607 4.65044,4.37475 4.86387,10.12467 0.65388,17.61535 -3.87241,6.89003 -5.60087,7.26383 -33.58825,7.26383 h -21.75498 l 0.44644,53.54454 0.44646,53.54453 3.64247,7.28498 c 6.91863,13.83725 20.71153,15.89164 38.79556,5.77849 4.96662,-2.7775 9.96583,-5.05 11.10936,-5.05 5.14971,0 7.37509,16.84096 3.27347,24.77256 -2.69669,5.21485 -12.66806,12.24362 -20.42407,14.39685 -9.41386,2.61348 -33.70509,1.95773 -42.71263,-1.15308 z"
        id="path9"></path>
    <path style="fill:#fe073c;fill-opacity:1;stroke:#fe073c;stroke-width:1.457;stroke-opacity:1"
        d="m 911.12208,887.62656 c -30.7378,-4.75918 -55.02438,-22.02731 -67.50364,-47.9961 -8.21378,-17.09257 -11.13654,-32.54257 -10.05501,-53.15174 0.46341,-8.83052 1.92787,-19.66155 3.25435,-24.06895 7.01228,-23.29924 24.68276,-44.9293 44.42412,-54.37865 29.2434,-13.99755 63.66501,-14.29166 91.60347,-0.78268 23.51636,11.3708 41.98743,35.37067 47.50023,61.7178 5.0516,24.14352 1.6956,53.51133 -8.2939,72.57864 -6.5813,12.56193 -23.98179,29.68248 -36.14543,35.56388 -19.24561,9.30569 -45.29654,13.53509 -64.78419,10.5178 z m 27.66891,-30.6425 c 25.11895,-4.64351 44.91287,-26.29365 49.16701,-53.77776 4.4507,-28.75406 -10.28618,-57.37666 -36.06151,-70.04016 -9.41953,-4.62787 -11.18984,-4.99574 -24.04039,-4.99574 -12.02168,0 -14.99012,0.52395 -22.25366,3.9279 -4.60986,2.16033 -11.96728,7.3191 -16.34981,11.46393 -28.18996,26.66088 -30.3386,63.07249 -5.5373,93.83706 13.8832,17.22128 32.3459,23.78657 55.07566,19.58477 z"
        id="path10"></path>
</svg>