<svg id="logo-bancolombia-svg" xmlns="http://www.w3.org/2000/svg" style="enable-background:new 0 0 1116.1 143.4" xml:space="preserve"
  viewBox="-0.05 0 1116.08 143.38">
  <title>Logo Bancolombia</title>
  <path
    d="M1015.3 0c-7 0-12.9 5.9-12.9 13 0 7.3 5.9 13 12.9 13 7.2 0 13-6.1 13-13 .1-7.3-5.8-13-13-13zM102.4 6.1c-26.6 3.3-52.3 8.1-78 15.6-3.4 1.1-5.4 4.8-4.6 8.1 1.9 7.4 2.8 11.1 4.7 18.6.8 3.1 4 4.8 7.2 3.7C58 44 84.4 38.5 111.6 34.5c3.1-.4 4.8-3.6 3.7-6.9-2.4-6.8-3.6-10.2-6.1-17-1.1-2.9-3.9-4.8-6.8-4.5zm542.5.8c-6.7 0-19.4 3.7-25.3 8.1v108.4h25.3V6.9zm284.8 0c-6.5 0-19.4 3.7-25.3 8.1v103.5c8.4 3.9 22.3 6.6 36.6 6.6 29.4 0 47.5-17.7 47.5-48.4 0-21.9-10.2-39.3-35.1-39.3-7.9 0-16.6 3.4-23.8 9.6V6.9zm-719 4.1c-12.2 0-22.6 1.4-36.3 3.4v109h41.2c22.4 0 42.2-13.2 42.2-32.9 0-15-6.5-24.3-21.7-28.7 9.9-3.9 15.4-11 15.4-21.6-.1-18.6-18.2-29.2-40.8-29.2zm0 21.2c10.5 0 15.4 4.9 15.4 11.8 0 7.3-4.7 11.5-14.7 11.5H200V33.1c3.5-.5 7.2-.9 10.7-.9zm280.5 4.9c-26.4 0-46.9 15.5-46.9 45.1 0 27.3 16.9 42.9 42.7 42.9 7.5 0 17.1-1.7 26.3-5.4l-4.5-20.3c-6.2 2.2-11.2 3-15.6 3-15.9 0-22.3-8.3-22.3-21.8 0-13.3 6.9-22.1 23.8-22.1 2.7 0 7.4.7 10.2 1.5 3.8-4.2 7.4-11.6 8.4-20.1-8.1-1.8-14.8-2.8-22.1-2.8zm70.6 0c-25.6 0-43.7 16.9-43.7 43.9 0 26.7 17.1 44.1 43.7 44.1 26.4 0 43.7-16.9 43.7-44.1-.1-26.3-17.1-43.9-43.7-43.9zm141 0c-25.6 0-43.7 16.9-43.7 43.9 0 26.7 17.1 44.1 43.7 44.1 26.4 0 43.7-16.9 43.7-44.1 0-26.3-17.1-43.9-43.7-43.9zm-304.9.2c-13.9 0-30.9 3.9-41.5 11l-.2 75.1h25.3V60.1c3.2-.8 6.9-1.4 10.7-1.4 10.2 0 16.1 4.6 16.1 13.5v51.2h25.1V63.3c0-16.4-16.2-26-35.5-26zm400.3 0c-13.2 0-28.9 3.9-39 11l-.2 75.1h25.3V60.1c3.2-.8 6.9-1.4 10.7-1.4 10 0 15.7 4.6 15.7 13.5v51.2h24.9v-50c0-4.4-.7-8.4-2-12.1 3.7-1.5 8.2-2.5 12.9-2.5 10 0 15.7 4.6 15.7 13.5v51.2h24.9V63.3c0-16.2-14.2-26-32.5-26-10 0-21.9 3.7-30.5 9.3-6.4-5.8-15.4-9.3-25.9-9.3zm217.3 0c-4.9 0-9.2.9-12.7 2.4v83.7h25.3V39.7c-3.6-1.6-7.7-2.4-12.6-2.4zm-712.4.2c-11 0-21.2 2.7-31.6 6.6l2 6.1c2.7 7.4 5.9 10 9.9 10 1.7 0 14.6-2.2 19.4-2.2 9.2 0 13.4 2.7 13.9 13.2-27.6.8-50.9 6.8-50.9 30.9 0 16 14.6 23.3 32.1 23.3 19.7 0 34.3-3.7 43.3-10.6V70.2c.1-23.6-14-32.7-38.1-32.7zm774.8 0c-11 0-21.2 2.7-31.6 6.6l2 6.1c2.7 7.4 5.9 10 9.9 10 1.7 0 14.6-2.2 19.4-2.2 9.2 0 13.4 2.7 13.9 13.2-27.6.8-50.9 6.8-50.9 30.9 0 16 14.6 23.3 32.1 23.3 19.7 0 34.3-3.7 43.3-10.6V70.2c.1-23.6-14-32.7-38.1-32.7zm-953.3 9.9C83 52.7 42.5 63 4 80.1c-2.8 1.3-4.5 4.9-3.9 8 1.5 8 2.3 11.9 3.8 19.9.7 3.4 3.8 5 7 3.4C50 93.5 91.2 82.1 133.5 75.3c2.7-.4 4.1-3.5 3-6.7-2.1-6.6-3.2-9.9-5.4-16.4-1-3.1-3.7-5.1-6.5-4.8zm818.1 11.3c12.9 0 20.9 5.6 20.9 21.1 0 13.5-6.4 25-21.1 25-4 0-8.4-.3-12.9-1V61.4c3.8-1.7 7.9-2.7 13.1-2.7zm-380.9.4c11.7 0 18.4 8.1 18.4 22 0 14.5-6.7 22.1-18.4 22.1-11.5 0-18.4-7.6-18.4-22.1 0-13.9 7-22 18.4-22zm141 0c11.7 0 18.4 8.1 18.4 22 0 14.5-6.7 22.1-18.4 22.1-11.5 0-18.4-7.6-18.4-22.1 0-13.9 7-22 18.4-22zM200 76.6h13.4c11.2 0 16.9 3.7 16.9 12.7 0 8.3-6.2 12.7-17.1 12.7H200V76.6zm111.8 10.7h4.9v14.5c-2.5 2.2-7.9 4.2-14.4 4.2-8.2 0-12.2-2.2-12.2-8.3 0-7.9 10.4-10.4 21.7-10.4zm774.8 0h4.9v14.5c-2.5 2.2-7.9 4.2-14.4 4.2-8.2 0-12.2-2.2-12.2-8.3 0-7.9 10.3-10.4 21.7-10.4zm-962.5 4.5c-26 5.6-51.4 12.4-76.6 21.1-3.2 1.2-5 4.5-4.1 7.6l5 18.5c1 3.5 4.9 5.3 8.5 3.9 25.2-9 50.6-16.9 76.5-23.2 2.5-.6 3.7-3.5 2.8-6.5-2-6.7-3.1-10-5.2-16.6-1-3.3-4-5.4-6.9-4.8z">
  </path>
</svg>