<svg xmlns="http://www.w3.org/2000/svg" viewBox="151.13 228.12 1173.05 257.88">
    <path
        d="m260.5 484.51-2.31-.36-4.68-.96-2.35-.52-4.72-1.26-2.37-.67-4.72-1.54-2.35-.8-4.67-1.8-2.32-.92-4.57-2.04-2.27-1.05-4.42-2.26-2.19-1.16-4.23-2.46-6.07-3.9-1.23-.85-2.65-2.01-1.35-1.06-2.83-2.38-2.85-2.45-5.81-5.55-2.86-2.83-5.24-5.73-1.23-1.41-2.24-2.71-2.89-3.83-1.72-2.45-3.16-5.02-1.54-2.54-2.8-5.18-1.35-2.6-2.42-5.32-1.17-2.67-2.06-5.43-.98-2.72-1.68-5.53-.79-2.77-1.31-5.6-.61-2.81-.93-5.66-.42-2.84-.55-5.7-.23-2.86-.17-5.72-.04-2.86.2-5.72.16-2.86.58-5.71.35-2.85.97-5.67.53-2.83 1.36-5.62.73-2.8 1.74-5.54.92-2.76 2.14-5.46 3.64-8.05 1.57-3.18 3.51-6.14 1.81-3.02 3.96-5.79 2.03-2.84 4.4-5.42 2.25-2.66 4.8-5.02 2.45-2.46 5.19-4.61 2.64-2.24 5.55-4.16 2.81-2.03 5.88-3.69 9.18-4.99 2.36-1.16 4.48-2.05 2.21-.98 4.24-1.7 2.1-.81 4.13-1.39 2.05-.66 4.11-1.1 2.06-.51 4.21-.85 2.12-.39 4.41-.6 2.24-.28 4.72-.41 7.56-.4 4.63-.17 9.01.32 4.46.27 8.68 1.17 4.3.7 8.35 2.03 4.14 1.12 8.01 2.89 3.97 1.55 7.67 3.75 3.8 1.97 7.33 4.6 3.63 2.41 6.99 5.45 10.09 9.13 2.35 2.34 4.37 4.8 2.13 2.43 3.92 4.99 1.91 2.52 3.5 5.21 1.7 2.63 3.07 5.43 1.49 2.75 2.67 5.68 1.28 2.87 2.27 5.95 1.09 3.01 1.88 6.24 2.4 9.69.31 1.47.51 3.52.24 1.84.35 4.12.16 2.11.2 4.49.09 2.27.04 4.65.01 2.33-.11 4.59-.07 2.28-.26 4.33-.15 2.11-.42 3.85-.8 5-.88 4.23-2.32 8.24-1.25 4.08-3.03 7.89-1.61 3.91-3.71 7.51-1.94 3.7-4.36 7.07-2.26 3.48-4.98 6.6-2.56 3.23-5.57 6.06-2.86 2.96-6.12 5.48-9.78 7.52-3.33 2.3-7.02 4.12-3.56 1.97-7.42 3.44-3.75 1.64-7.73 2.75-3.9 1.28-7.95 2.04-3.99.93-8.08 1.3-4.05.55-8.12.54-4.06.18-8.06-.24-4.02-.21m13.92-57.07 1.57-.52 3.44-1.1 1.76-.56 3.73-1.17 3.78-1.18 7.92-2.4 3.94-1.18 7.53-2.2 1.82-.52 3.39-.95 4.62-1.27 2.84-.76 5.3-1.45 1.27-.35 2.38-.67 1.15-.32 2.09-.59 1.01-.29 1.74-.51.83-.24 1.34-.41.61-.19.88-.28.72-.27.32-.18.51-.47.23-.26.31-.68.13-.36.12-.93.03-.51-.09-1.22-.07-.65-.29-1.56-.17-.83-.5-1.94-.28-1.02-.72-2.37-1.32-4.06-.37-1.08-.66-1.92-.33-.92-.6-1.61-.59-1.55-1.05-2.32-.51-1.04-.96-1.49-1.46-1.52-2.68-2-27.25 6.8-3.75.93-8.17 2.15-4.12 1.1-8.2 2.28-2 .56-3.85 1.11-1.89.54-3.52 1.04-1.71.51-3.07.95-3.97 1.27-1.31.44-2.38.78-1.15.38-2.05.69-.99.34-1.76.62-.84.31-1.47.58-1.41.57-2.03 1.14-.9.58-1.12 1.31-.46.7-.35 1.69-.09.91.28 2.27.21 1.24.78 3.07.22.83.51 1.84.86 3.06.39 1.42.77 2.56.38 1.23.75 2.2.37 1.05.74 1.84.36.87.72 1.48.36.7.71 1.13.35.52.7.77.35.35.68.42 1.02.26h.06l.57-.16.36-.1 1.13-.34.62-.19 1.62-.5.87-.27 2.05-.65 1.07-.34 2.41-.78 1.24-.4 2.71-.87 2.77-.9m-58.86-34.95 3.98-1.81 8.59-3.57 4.39-1.77 9.32-3.44 4.74-1.71 9.93-3.3 5.03-1.63 10.43-3.11 5.26-1.53 10.81-2.9 5.43-1.41 11.06-2.64 5.55-1.29 11.19-2.35 16.81-3.17 1.33-.23 2.2-.46 1.03-.23 1.63-.53.75-.28 1.1-.69.49-.37.62-.92.25-.5.17-1.25.03-.67-.23-1.65-.16-.88-.6-2.14-1.25-3.85-.63-1.84-1.1-3.14-.52-1.48-.91-2.48-.44-1.17-.76-1.9-.36-.89-.65-1.42-.31-.66-.58-1-.29-.46-.54-.68-1.7-1.18-.27-.11-.9-.11-.52-.04-1.36.01-.74.02-1.78.11-.94.08-2.17.22-1.12.12-2.5.31-1.29.17-2.8.41-2.86.42-6.44 1.09-3.31.57-7.1 1.35-3.6.7-7.42 1.55-3.72.8-7.43 1.7-10.79 2.65-3.24.84-6.91 1.96-3.5 1.01-7.18 2.21-3.59 1.13-7.12 2.35-3.52 1.18-6.72 2.37-3.28 1.18-5.99 2.26-1.43.56-2.68 1.06-1.3.53-2.38 1-1.14.5-2.04.92-.97.44-1.66.83-.77.4-1.23.71-1.33.92-.8.7-1.01 1.54-.2.43-.26 1.02-.1.55-.04 1.35v.72l.15 1.77.11.94.35 2.29.21 1.22.56 2.92 1.07 5.2.32 1.5.59 2.6.29 1.23.55 2.09.27.98.53 1.63.26.76.53 1.22.27.56.56.85.28.39.6.54.31.23.68.27 1.12.15h.16l.89-.27.53-.18 1.48-.56.79-.32 1.87-.78.96-.41m30-68.88 2.67-.74 5.61-1.48 2.85-.74 5.88-1.45 5.93-1.45 12.11-2.69 3.01-.65 5.92-1.21 2.94-.59 5.68-1.08 2.79-.52 5.31-.92 7.41-1.16 1.67-.24 2.76-.47 1.29-.24 2-.58.91-.31 1.31-.8.56-.44.65-1.17.25-.64.05-1.66-.05-.9-.5-2.28-.32-1.23-1-3.04-2.02-5.53-.69-1.84-1.15-3.01-.55-1.41-.96-2.24-.46-1.03-.88-1.56-.43-.71-.91-1.01-.47-.44-1.06-.54-.55-.23-1.32-.2-.7-.07-1.7.04-3.09.22-1.25.1-2.9.31-1.5.17-3.34.44-1.71.24-3.7.55-1.89.29-3.98.66-4.04.68-8.59 1.58-4.34.82-8.7 1.77-4.31.9-8.19 1.82-1.99.45-3.76.89-1.84.45-3.42.86-1.66.42-3 .81-1.43.4-2.49.75-1.18.37-1.91.66-2.12.89-.75.39-1.37 1.36-1.26 2.23-.05.19-.02.61.01.33.07.87.09.92.42 2.47.25 1.31.66 3 .35 1.54.81 3.22.42 1.61.89 3.14.44 1.52.88 2.73.44 1.29.79 2.01.19.45.34.69.47.73.51.61 1.28.71.36.13.9.12.49.04 1.21-.07.65-.05 1.6-.27.86-.16 2.08-.47 1.12-.27 2.65-.69 1.4-.37M565.5 476.6l-1.59-.5-2.85-1.18-1.37-.61-2.42-1.41-1.15-.73-1.98-1.62-.94-.85-1.54-1.85-.71-.95-1.11-2.08-.5-1.06-.66-2.3-.28-1.17-.22-2.52.16-4.01.21-1.74.86-3.2.5-1.54 1.47-2.8.81-1.36 2.09-2.42 1.12-1.17 2.73-2.06 1.45-.98 3.39-1.71 1.77-.81 4.06-1.36 2.12-.64 4.75-1.03 7.91-1.18 1.3-.15 2.12-.24.99-.11 1.58-.21.73-.11 1.12-.2.51-.11.73-.23.33-.12.44-.28.18-.15.21-.37.18-1.55v-.95l-.61-1.87-.39-.92-1.24-1.65-.69-.77-1.7-1.22-2.86-1.11-.47-.09-1.69-.07-.95-.01-2.42.07-1.27.05-2.83.19-4.39.42-1.52.17-2.54.25-1.19.11-1.98.09-.93.02-1.52-.12-.72-.09-1.17-.36-.55-.22-.93-.64-.44-.37-.78-.98-.39-.53-.75-1.35-1.2-2.48-.38-.82-.59-1.39-.27-.65-.33-1.09-.14-.51-.05-.85.01-.4.27-.67.18-.33.62-.56.36-.27 1.02-.52.56-.26 1.44-.53 2.67-.87 1.53-.48 2.71-.69 1.36-.3 2.89-.39.77-.08 1.7-.12.88-.06 1.98-.07 1.03-.04 2.35-.03 4.05-.02h1.69l2.82.01 1.33.01 2.19.04 1.03.03 1.69.09.8.06 1.35.17 1.29.19 2.14.71.54.2 1.16.53 1.97.96 1.81.91 3.12 2.19 1.48 1.15 2.43 2.66 1.13 1.39 1.71 3.1 1.73 5.11.07.35.15 1.13.07.62.13 1.63.07.87.12 2.05.06 1.07.1 2.4.1 2.47.13 5.7.09 9.09v22.29l-5.05 2.75-1.27.69-3.22 1.26-1.71.6-3.9 1.05-2.01.5-4.34.83-2.2.38-4.53.58-2.26.25-4.47.29-2.2.11-4.16-.02-2.03-.05-3.61-.36-1.72-.22m22.43-18.43 3.25-1.05V444l-5.75.01h-1.47l-2.73.19-1.32.13-2.41.43-1.16.25-2.05.65-.98.35-1.68.86-.78.45-1.26 1.05-.57.54-.81 1.21-.35.62-.34 1.36.07 2.19.19.98.45 1.43.25.64.71.91.41.41 1.19.6 2.55.79.92.23 2.22.2 1.15.06 2.52-.12 1.28-.1 2.64-.44 1.31-.25m150.3 17.03-1.42-.37-2.63-.86-1.29-.45-2.38-1.02-1.16-.54-2.14-1.21-1.04-.63-1.92-1.41-.93-.73-1.72-1.62-.84-.84-1.53-1.85-.74-.95-1.37-2.08-1.88-3.42-.68-1.38-1.05-2.44-.48-1.2-.71-2.27-.32-1.14-.45-2.39-.47-4.05-.16-1.92-.03-3.71.03-1.83.34-3.5.22-1.73.69-3.29.39-1.61 1.04-3.07.56-1.51 1.36-2.83.72-1.38 1.68-2.59.88-1.26 1.98-2.32 1.03-1.13 2.27-2.06 1.17-.99 2.54-1.78 1.31-.85 2.8-1.48 1.43-.7 3.05-1.18 1.56-.55 3.28-.86 1.67-.39 3.51-.53 1.78-.22 3.71-.2 1.88-.05 3.9.16 6.06.64 9.5 1.41-.33 3.5-.04.48-.3 1.31-.18.7-.5 1.6-2.01 4.91-2.7 5.5-8.97-.31-.97-.03-1.68-.04-.8-.02-1.39.01-1.32.02-2.03.21-.95.14-1.67.52-2.65 1.19-1 .51-1.77 1.24-.85.65-1.48 1.49-.7.78-1.18 1.73-.54.9-.86 1.94-.39 1-.53 2.14-.23 1.09-.2 2.3-.05 1.18.14 2.45.61 3.81.29 1.31.77 2.3.41 1.1 1.03 1.9.55.91 1.33 1.52.7.71 1.65 1.15.87.53 1.99.81 1.05.36 2.38.47 1.23.2 2.79.15 4.66-.09 2.15-.14 4-.42.9-.11 1.46-.22 1.45-.31.5-.17.73.01.34.09.56.81.14.27.28.76.15.43.31 1.1.16.6.37 1.49.64 2.74.28 1.22.46 2.27.21 1.09.29 1.87.13.86.1 1.26-.11.97-.09.09-.65.31-.38.16-1.12.4-.61.21-1.45.45-2.38.68-1.04.27-2.29.48-1.18.22-2.49.36-2.54.34-5.26.34-2.59.11-4.8-.15-1.13-.07-2.05-.24-.97-.13m68.11-.08-1.53-.31-2.91-.86-1.43-.48-2.72-1.2-1.33-.64-2.51-1.5-1.22-.79-2.29-1.78-1.11-.92-2.05-2.03-1-1.05-1.8-2.26-.87-1.15-1.55-2.46-.74-1.25-1.28-2.63-.6-1.33-1-2.78-.46-1.41-.7-2.89-.32-1.46-.39-3-.16-1.5-.09-3.06v-1.54l.25-3.1.17-1.55.59-3.12.33-1.55.95-3.11 1.82-4.62.65-1.42 1.53-2.66.81-1.29 1.82-2.39.95-1.16 2.11-2.11 1.09-1.02 2.39-1.82 1.22-.88 2.64-1.53 1.36-.73 2.89-1.24 1.48-.58 3.14-.92 4.96-1.04 2.82-.44 5.45-.14 2.68.05 5.12.79 2.51.5 4.71 1.65 2.28.93 4.2 2.47 2.02 1.33 3.59 3.21 1.71 1.69 2.91 3.91 1.36 2.03 2.12 4.54.48 1.17.79 2.45.94 3.83.33 1.68.37 3.42.14 1.71.01 3.43-.05 1.71-.35 3.38-.21 1.69-.7 3.29-.38 1.63-1.02 3.14-.55 1.55-1.34 2.93-.7 1.44-1.64 2.68-2.78 3.66-1 1.14-2.41 2.07-1.26 1-2.86 1.76-1.48.83-3.22 1.42-1.65.66-3.5 1.06-1.77.48-3.7.67-1.86.29-3.8.27-1.91.08-3.82-.17-1.91-.14m15.73-22.23 1.09-.81 1.77-1.9.82-1 1.26-2.34.56-1.24.79-2.87.69-5 .15-2.17-.27-3.99-.22-1.92-.96-3.4-.57-1.62-1.63-2.69-.44-.62-1.01-1.08-1.67-1.38-1.32-.89-2.72-1.21-1.37-.52-2.74-.48-1.36-.16-2.66.19-1.31.18-2.48.84-1.22.5-2.21 1.44-1.07.79-1.84 2.01-.87 1.07-1.39 2.54-1.46 4.35-.27 1.28-.3 2.55-.11 1.27.02 2.49.05 1.22.32 2.36.2 1.17.61 2.19.34 1.07.89 1.97.47.95 1.14 1.7.6.81 1.38 1.37 2.32 1.64.61.34 1.4.52.73.24 1.57.34 1.61.3 3.41.05 1.7-.06 3.16-.65.75-.21 1.34-.53.64-.29m108.55 20.41-2.57-.69-4.51-1.8-2.16-.97-3.78-2.41-1.8-1.29-3.12-3.08-4.04-5.46-1.18-1.95-1.85-4.17-.83-2.12-1.17-4.4-.49-2.22-.49-4.52-.16-2.26.18-4.52.17-2.25.83-4.4.5-2.17 1.48-4.15.82-2.04 2.11-3.79 3.89-5.16.89-.98 1.94-1.78.99-.86 2.12-1.55 1.08-.74 2.27-1.32 1.16-.63 2.41-1.09 2.44-1.04 5.16-1.37 2.61-.57 5.36-.43 2.68-.1 5.34.5 2.65.37 5.13 1.45 1.25.42 2.44 1.03 1.21.54 2.31 1.26 1.13.67 2.16 1.5 3.04 2.53 1.15 1.07 2.04 2.34.98 1.2 1.71 2.56.82 1.31 1.38 2.74.65 1.39 1.05 2.89.49 1.46.73 2.99.32 1.51.41 3.06.17 1.54.1 3.09v1.54l-.21 3.09-.15 1.53-.52 3.04-.3 1.51-.83 2.95-.45 1.46-1.13 2.83-.6 1.39-1.43 2.67-.75 1.31-1.72 2.46-.9 1.21-2.01 2.23-1.04 1.08-2.29 1.95-3.77 2.58-1.12.65-2.46 1.15-1.26.54-2.67.92-1.37.42-2.84.67-1.43.3-2.94.42-2.96.36-5.95-.07-1.47-.08-2.87-.38-1.43-.22m18.73-21.88 1.2-.85 1.88-2.05.86-1.1 1.25-2.63.55-1.39.66-3.33.37-5.9v-1.59l-.1-2.44-.08-1.13-.32-1.83-.2-.88-.62-1.62-1.39-2.64-.54-.93-1.29-1.62-.67-.77-1.5-1.29-.78-.61-1.69-.95-.86-.43-1.84-.61-.94-.25-1.95-.25-.98-.07-2.03.12-1.02.11-2.06.51-3.1 1.2-.8.39-1.44.98-.69.53-1.24 1.24-.59.64-1.03 1.45-.49.75-.83 1.63-.78 1.66-.95 3.7-.38 1.88-.14 3.9.02 1.94.65 3.8.43 1.86 1.45 3.39.41.81.97 1.49.51.72 1.17 1.28.61.61 1.37 1.04 2.27 1.24.51.21 1.23.31.65.13 1.44.15 1.49.12 3.24-.2 1.62-.17 3-.7.71-.21 1.25-.49.59-.26m193.63 21.05-.84-.12-2-.36-1.03-.2-2.18-.47-1.09-.24-2.1-.51-2.76-.77-5.86-1.78-.26-47.19-.26-47.18 3.76-1.91 1.15-.59 3-1.21 1.56-.59 3.31-1.06 1.64-.5 2.96-.72.69-.15 1.19-.2 1.44-.12h2.32v20l.06 4.38.02 1.05.05 1.91.03.92.06 1.64.03.78.08 1.32.04.62.09.95.04.43.1.54.15.29.1-.05.61-.3.36-.18 1.01-.53 3.95-2.06 1.82-.96 3.59-1.42 1.78-.62 3.55-.77 1.78-.3 3.59-.11 5.49.54 1.43.26 2.66.69 1.29.38 2.4.94 1.17.5 2.15 1.19 1.05.63 1.91 1.45.93.76 1.69 1.73.82.9 1.48 2 .71 1.04 1.28 2.3 1.7 3.78.37.96.62 2.28.29 1.2.45 2.66.41 2.73.29 6.07.06 3.05-.42 5.93-.15 1.43-.44 2.65-.86 3.56-.42 1.35-.99 2.55-.52 1.26-1.19 2.36-.62 1.16-1.39 2.17-.72 1.06-1.58 1.98-.82.96-1.78 1.78-.91.87-1.97 1.58-1 .76-2.15 1.38-1.1.67-2.34 1.18-1.19.56-2.51.98-1.28.47-2.69.77-1.37.36-2.86.57-1.45.26-3.04.36-1.54.15-3.2.15-1.62.05-3.36-.05-3.41-.11m18.27-20.49.86-.42 1.57-1.09.76-.59 1.36-1.41.66-.74 1.14-1.69.54-.88.91-1.94.42-1 .67-2.17.3-1.11.41-2.37.17-1.2.13-2.54-.1-3.96-.14-1.68-.51-2.76-.3-1.3-.96-2.19-.54-1.04-1.53-1.86-3.08-2.71-.42-.31-1.18-.54-.64-.26-1.54-.44-1.62-.4-3.86-.46-1.97-.15-3.9.1-.94.06-1.73.24-2.27.54-3.59 1.19V458.89l4.25.43 1.61.16 3.15.06 1.55-.01 2.95-.28 1.44-.18 2.6-.59 1.25-.34m100.93 18.77-1.68-.4-3.07-1.08-1.47-.59-2.62-1.45-1.25-.77-2.16-1.77-1.01-.93-1.67-2.08-.78-1.08-1.16-2.35-.52-1.21-.64-2.6-.25-1.33-.09-2.81.5-4.42.34-1.67 1.03-3.01.57-1.45 1.53-2.59.83-1.25 2.08-2.21 1.11-1.06 2.68-1.86 1.42-.89 3.33-1.54 1.76-.74 4.04-1.26 2.11-.59 4.79-1.01 8.1-1.26 1.21-.15 1.99-.26.93-.13 1.49-.22.69-.11 1.06-.21.48-.11.69-.22.31-.12.4-.27.16-.15.18-.34v-1.41l-.09-.68-.58-1.73-1.13-2.33-.64-1-1.54-1.38-.42-.3-1-.46-.53-.2-1.26-.28-.67-.12-1.58-.12-.84-.04-1.98.03-1.04.04-2.44.17-4.24.4-1.26.14-2.14.21-1.01.1-1.69.14-.8.06-1.32.07-.62.02-1.02-.01-.95-.03-1.33-.31-1.68-.83-.29-.2-.66-.65-.34-.36-.7-.92-.71-.97-1.37-2.41-.65-1.22-.99-2.42-.2-.57-.28-1.03-.18-1.3v-.21l.52-.52.33-.27 1.13-.62.63-.32 1.66-.67 2.98-1.04 1.52-.47 2.71-.68 1.36-.3 2.92-.4.77-.08 1.7-.12.88-.06 1.98-.08 1.03-.03 2.35-.04 4.03-.03h1.57l2.66.01 1.26.01 2.14.04 1 .03 1.71.08.81.05 1.37.14 1.31.16 2.08.53 3.09 1.23 1.51.7 2.64 1.55 1.26.81 2.19 1.83 1.05.95 1.82 2.17 2.37 3.69.51.94.69 1.9.15.54.25 1.32.11.71.18 1.82.08.99.13 2.5.06 1.36.09 3.37.03.91.04 2.01.02 1.04.03 2.3.02 1.18.04 2.6.05 4.28.33 25.77-6.54 3.05-.9.43-2.25.87-1.18.44-2.57.83-1.3.41-2.58.69-3.54.78-1.09.2-2.43.32-1.26.15-2.68.23-2.73.22-5.67.16-1.39.01-2.7-.03-1.32-.03-2.45-.12-1.18-.08-2.08-.22-.98-.12m23.92-18.87.64-.33.87-.61.38-.33.45-.9.18-.52.16-1.59.03-.46.03-1.12.01-2.03V444l-6.25.01h-1.45l-2.65.15-1.28.1-2.33.34-1.11.19-1.99.53-.94.28-1.63.71-.77.37-1.26.88-.59.47-.88 1.05-.4.54-.5 1.21-.3 2v.95l.46 1.73.29.84.99 1.42.54.66 1.41 1 2.49.89 1.02.17 2.66.03 1.4-.03 2.99-.31 1.48-.19 2.72-.57.63-.15 1.12-.35.53-.18m-833.16-31.93.26-49.31 9.5-1.31 1.72-.23 3.74-.35 1.91-.16 4-.19 4.03-.15 8.08.14 1.97.07 3.72.25 1.81.14 3.28.37 1.57.21 2.67.51 3.13.89 1.28.51 2.39 1.16 1.16.61 2.14 1.35 1.03.7 1.87 1.53.9.79 1.6 1.7.77.86 1.31 1.85.62.94 1.01 1.99.47 1.01.71 2.11.71 3.29.14 1.05.05 2.1-.02 1.05-.25 2.06-.17 1.02-.54 1.98-.31.97-.81 1.86-.43.91-1.06 1.69-.56.83-1.28 1.49-.67.72-1.49 1.25-2.45 1.56-3.01 1.56 5.88 3.24 1.9 1.06 3.07 2.28 1.43 1.19 2.19 2.69 1.01 1.41 1.45 3.28 1.48 5.77.21 1.25.23 2.36.09 1.16-.03 2.18-.05 1.08-.29 2.04-.18 1.01-.57 1.94-.33.95-.86 1.86-.46.93-1.16 1.81-.62.91-1.47 1.8-2.56 2.72-1.22 1.19-2.18 1.98-1.08.94-2.09 1.52-1.06.7-2.26 1.13-1.17.51-2.69.79-1.42.36-3.37.52-.9.11-1.96.2-1.02.09-2.22.15-1.15.07-2.52.11-1.3.05-2.85.08-1.46.04-3.2.06-5.24.09-24.76.33.26-49.32M507.07 456l.84-.24 1.51-.66.72-.36 1.28-.9.61-.47 1.04-1.11.48-.57.77-1.27.35-.66.49-1.41.21-.72.19-1.52.06-.77-.13-1.6-.56-2.44-.21-.64-.59-1.15-.33-.54-.85-.97-.45-.46-1.11-.79-.59-.38-1.39-.62-.73-.3-1.7-.47-.89-.21-2.01-.32-1.05-.14-2.35-.18-3.93-.11L488 434v23l7.75-.01h2.13l4.39-.29 1.03-.09 1.77-.23.83-.12m.08-43.01.93-.47 1.53-1.14.71-.6 1.09-1.37.5-.7.65-1.52.27-.77.22-1.59.05-.81-.24-1.6-.17-.8-.69-1.55-.4-.76-1.15-1.42-2.23-1.9-.75-.51-1.32-.69-.66-.31-1.45-.36-.78-.14-2-.1-.55-.01-1.27.02-2.22.06-7.55.29-.28 10.25-.29 10.25h8.52l2.2-.11 1.06-.07 1.85-.25.89-.15 1.55-.4.73-.22M631 442.02v-33.99l4.75-2.39 1.63-.81 3.49-1.42 1.8-.68 3.89-1.15 2.01-.54 4.39-.9 7.26-1.11 2.31-.29 4.47-.2 2.2-.04 4.2.27 2.06.19 3.88.73 1.9.41 3.5 1.16 1.69.63 3.06 1.56 1.48.84 2.57 1.95 1.21 1.02 2.02 2.33 2.35 3.87.41.9.57 2.14.13.62.2 1.55.09.84.14 2.12.06 1.15.1 2.87.04 1.55.05 3.8.01 1.02.02 2.23.01 1.16.01 2.53.01 1.31v2.85l.01 4.65L701 476h-23l-.01-24.75-.01-2.22-.02-3.98-.01-1.91-.04-3.39-.03-1.62-.06-2.84-.04-1.35-.09-2.3-.06-1.1-.12-1.81-.06-.85-.15-1.36-.08-.63-.19-.93-.31-.96-.45-.91-1.56-1.56-.87-.74-2.26-1.15-1.21-.53-2.83-.68-4.71-.43h-1.2l-1.93-.05h-.9l-1.39.16-.64.13-.95.65-.42.42-.58 1.44-.13.42-.2 1.04-.09.56-.13 1.34-.07.71-.08 1.67-.04.89-.05 2.04-.02 1.07-.02 2.45v9.04l.01 5.63V476h-23v-33.98m240-15v-48.98l3.75-1.91 1.15-.59 3-1.2 1.55-.59 3.32-1.06 1.63-.5 2.96-.72.69-.15 1.19-.2 1.44-.12H894v105h-23v-48.98m127.24 15.27.26-33.71 3.41-2.3.56-.38 1.35-.74.71-.37 1.61-.73 1.68-.71 4.01-1.32 2.09-.64 4.64-1.09 7.34-1.29 2.53-.34 4.72-.19h2.31l4.38.51 2.16.34 4.15 1.23 6.1 2.66 5.74 3.06 5.76-2.56 1.58-.7 3.8-1.46.93-.34 1.74-.6 2.2-.67.72-.2 1.69-.32.88-.15 1.94-.22 1.98-.2 4.29-.12 2.13-.01 4.05.27.96.09 1.75.26 2.27.5 1.61.45 3.25 1.5 1.6.83 3 2.06 1.44 1.09 2.43 2.4 2.7 3.73.57 1.08.75 1.98.16.56.25 1.4.11.77.16 1.99.08 1.09.1 2.83.02.78.03 1.74.02.91.02 2.04.01 1.06.01 2.37.01 1.23v2.73l.01 1.41V476h-22l-.01-22.75v-3.13l-.08-5.99-.02-1.45-.07-2.74-.03-1.34-.09-2.47-.05-1.19-.1-2.12-.05-1.01-.12-1.7-.06-.79-.12-1.21-.2-1.18-.4-1.42-1.16-2.26-.65-1.04-1.75-1.58-.95-.7-2.41-.95-4.44-.77-1.58-.11-3.47.08-.83.05-1.48.15-1.78.31-3.39.88.21 28.25.21 28.25-11.31-.29-11.32-.28-.5-25.73-.5-25.73-2.74-2.74-.59-.58-1.07-.85-.56-.37-1.26-.51-.69-.23-1.79-.28-3.66-.3-1.48-.09-2.41-.16-1.12-.05-1.74.11-.81.11-1.19.65-.53.42-.75 1.49-.16.43-.26 1.08-.12.57-.18 1.38-.08.73-.12 1.71-.05.9-.07 2.09-.03 1.1-.03 2.49-.01 1.31-.01 2.94V442.33l.01 5.71V476h-23.03l.27-33.71m222.76-4.21v-37.91l5.2-1.12 1.3-.28 2.94-.26 1.49-.08 3.01.12 1.48.1 2.67.46 3.16 1.05.2.11.34.36.16.23.26.78.12.46.19 1.43.08.82.13 2.31.03.65.05 1.49.02.79.04 1.79.02.94.03 2.12.01 1.11.02 2.48.01 1.29.02 2.87v1.49l.01 3.29v1.7l.01 3.73V476h-23v-37.92m6.39-51.06-.95-.38-1.65-1.26-.77-.71-1.24-1.79-.57-.94-.74-2.17-.47-3.5v-.94l.13-1.47.1-.69.4-1.17.25-.57.79-1.12 1.73-1.91.72-.72 1.2-1.03.58-.45 1.12-.58.57-.24 1.31-.25 2.48-.13h1.53l2.71.67 1.28.44 2.13 1.48.98.84 1.43 2.18 1.23 3.98.16 1.16-.14 2.19-.14 1.06-.66 1.95-.39.94-1.12 1.66-.6.78-1.49 1.29-.78.6-1.78.88-.92.38-2 .4-1.01.14-2.14-.13-1.08-.14m-527.01-20.52-.02-.02-.04-.3-.02-.19-.04-.63-.01-.36-.04-.95-.02-.52-.03-1.25-.02-.66-.03-1.53-.02-.8-.03-1.79-.03-1.86-.05-4.43-.03-2.33-.04-5.25-.02-2.72-.04-5.95-.01-3.04-.02-6.5-.01-10.19v-7.07l.01-2.24v-4.19l.01-2.04.01-3.79.01-1.85.02-3.41.01-1.66.02-3.04.02-1.48.03-2.69.02-1.31.03-2.37.03-1.14.04-2.05.02-.99.06-1.75.03-.85.06-1.47.06-1.4.16-2.04.08-.91.19-1.13.33-.82.5-.4 1.68-.73.93-.35 2.38-.62 1.26-.3 2.9-.51 1.5-.24 3.23-.36 3.28-.33 6.74-.16 1.64.01 3.08.16 4.14.49 2.31.4 4.24 1.16 2.06.63 3.76 1.63 1.81.87 3.27 2.09 1.57 1.11 2.77 2.56 1.33 1.34 2.27 3.02 1.08 1.57 1.78 3.49.83 1.8 1.28 3.94 1.37 6.44.25 1.71.23 3.47.08 1.73-.1 3.46-.09 1.72-.42 3.38-.25 1.68-.72 3.24-.4 1.61-1.02 3.04-.54 1.49-1.28 2.79-.68 1.35-1.54 2.45-2.58 3.24-1.12 1.19-2.56 2.05-1.32.96-2.9 1.6-1.49.74-3.2 1.14-1.62.5-3.42.67-1.72.27-3.58.18-1.8.03-3.66-.31-1.84-.22-3.7-.81-5.5-1.8-5.75-2.3v17.05l-.01 2.87-.01 1.35-.04 2.25-.02 1.04-.06 1.7-.04.79-.11 1.23-.06.57-.16.85-.09.39-.22.56-.93.98-.69.36-1.89.71-.99.34-2.07.56-1 .24-1.65.26-.36.04h-.55l-.24-.01m40.92-41.87 1.07-.48 1.95-1.23.95-.66 1.7-1.57.83-.83 1.45-1.89.69-.99 1.2-2.21.56-1.14.92-2.51.43-1.28.65-2.79.29-1.43.36-3.05.22-4.86v-1.47l-.26-2.84-.18-1.39-.6-2.67-.35-1.32-.92-2.48-.5-1.21-1.24-2.27-.65-1.1-1.53-2.02-.8-.98-1.8-1.76-.94-.84-2.06-1.46-3.38-1.84-1.09-.49-1.96-.7-.98-.31-2.06-.41-1.09-.17-2.61-.18-.71-.04-1.59-.04-2.7-.02h-1.31l-2.52.06-1.22.03-2.17.12-1.02.06-1.58.16-1.43.26-.2.08-.34.28-.15.17-.26.58-.12.34-.19 1.05-.09.6-.13 1.68-.06.93-.08 2.48-.04 1.35-.04 3.44-.01.92-.02 2.06v1.07l-.01 2.35v1.22l-.01 2.66v31.35l5.75 1.18 1.58.32 2.77.62.62.14.94.22.84.23.3.11.95.1.51.03 1.29-.05 1.36-.08 3.33-.52 1.7-.3 3.43-.86 1.65-.46m-240.51 11.28-1.91-.36-4.05-1.33-2.03-.76-4.05-1.97-1.98-1.05-3.69-2.43-4.73-3.94-1.01-1.01-1.86-2.22-.9-1.14-1.64-2.45-.79-1.26-1.43-2.66-.68-1.35-1.21-2.84-1.14-2.88-1.63-6.16-.7-3.12-.71-6.49-.25-3.25.22-6.57.22-3.27 1.16-6.41.35-1.59.88-3.09.47-1.53 1.12-2.98.59-1.47 1.37-2.82 2.33-4.03 1.37-2.12 3.25-3.74 1.71-1.78 3.88-3.06 2-1.44 4.41-2.35 2.26-1.08 4.85-1.62 2.47-.72 5.2-.86 2.64-.34 5.46-.08 2.76.06 5.65.73 8.56 2.02.84.26 1.85.75.94.4 2 .99 2.01 1.04 3.96 2.47.95.63 1.75 1.26.83.63 1.43 1.2.66.58 1 1.07.9 1.36.22.57-.2 1.37-.19.7-.86 1.41-.49.68-1.29 1.14-2.2 1.09-.51.13-.92.04-.45-.03-.9-.33-.47-.22-1.06-.78-1.93-1.74-1.26-1.23-2.97-2.1-1.56-.99-3.45-1.6-1.77-.74-3.8-1.09-1.92-.49-3.99-.57-2.01-.22-4.05-.03-2.02.05-3.96.52-1.96.33-3.74 1.09-5.21 2.29-1.01.57-1.91 1.36-.94.71-1.74 1.63-.85.85-1.58 1.88-.76.97-1.4 2.1-1.35 2.14-2.16 4.85-.98 2.49-1.38 5.37-.58 2.73-.56 5.68-.16 2.86.32 5.77.27 2.88 1.24 5.66.37 1.39.92 2.73 1.65 3.98.7 1.49 1.56 2.69.81 1.3 1.77 2.31.91 1.11 1.99 1.94 1.03.93 2.24 1.58 1.15.75 2.5 1.24 1.28.57 2.78.9 1.42.41 3.06.57 4.94.5 2.45.12 4.48-.09 2.19-.1 4.08-.57 2.01-.34 3.83-1.08 5.66-2.2 5.25-2.44v-16.57l.03-3.41.02-1.59.11-2.55.08-1.18.26-1.8.15-.83.47-1.18.27-.53.74-.68.4-.29 1.06-.29.58-.11 1.45-.03 2.67.14 4.21.31.28 16.34.27 16.34-3.77 3.47-1.29 1.18-3.04 2.15-1.59 1.03-3.55 1.82-1.84.87-3.95 1.47-2.02.7-4.24 1.1-2.15.5-4.41.7-2.21.3-4.46.27-2.23.08-4.4-.18-2.18-.15m302.28-.86-1.9-.53-3.23-1.17-1.55-.62-2.72-1.49-1.32-.8-2.48-1.97-3.74-3.67-.91-1-1.59-1.93-.75-.97-1.3-1.91-.61-.97-1.03-1.96-.48-1-.78-2.09-.36-1.07-.55-2.29-.26-1.17-.35-2.55-.16-1.31-.19-2.88-.1-4.78v-1.61l.1-2.92.06-1.43.25-2.6.14-1.27.41-2.35.23-1.15.6-2.15.65-2.12 1.93-3.92.55-.97 1.27-1.95 2.2-2.98 1.3-1.65 3.18-2.81 1.68-1.33 3.78-2.15 1.96-.99 4.22-1.46 2.16-.64 4.49-.75 2.27-.28 4.6-.02 2.3.08 4.54.73 2.25.46 4.3 1.51 6.02 3.15 1.13.75 2.08 1.73 1.01.9 1.85 2.02.89 1.04 1.59 2.26.77 1.15 1.35 2.47.64 1.26 1.1 2.64.51 1.34.84 2.78.39 1.41.58 2.88.26 1.45.32 2.96.13 1.48.06 2.98-.01 1.49-.21 2.98-.13 1.49-.48 2.94-.28 1.47-.75 2.86-.41 1.42-1.03 2.76-.55 1.37-1.31 2.61-.69 1.29-1.59 2.43-2.71 3.41-1.03 1.13-2.37 2.03-1.23.98-2.73 1.69-1.4.8-3.01 1.34-1.53.62-3.21.96-1.62.43-3.34.57-1.67.23-3.37.14-1.69.02-3.34-.3-1.66-.21m18.46-12.91 1.12-.56 1.99-1.29.96-.67 1.69-1.55.8-.8 1.39-1.82.66-.94 1.1-2.12.51-1.09.82-2.43.38-1.26.55-2.77.24-1.43.29-3.12.16-5.12-.01-1.21-.08-2.2-.05-1.07-.17-1.94-.21-1.88-.78-3.23-.46-1.55-1.38-2.87-2.88-4.37-.88-1.14-2.25-1.92-1.19-.9-2.76-1.4-1.43-.63-3.12-.87-1.58-.37-3.31-.34-1.66-.1-3.34.21-1.66.18-3.21.76-1.58.46-2.93 1.33-3.89 2.65-1.17 1.03-1.98 2.65-.93 1.42-1.49 3.28-.68 1.71-.98 3.74-.43 1.9-.46 4-.16 2.02.08 4.07.11 2.03.63 3.97.39 1.95 1.2 3.68 2.45 4.98.73 1.14 1.84 2.01.99.96 2.28 1.61 1.19.76 2.62 1.19 1.34.54 2.85.75 1.45.32 2.99.29 1.51.08 3.03-.2 1.51-.16 2.97-.7 1.46-.42m-185.15 10.31-1.38-.25-2.56-.66-1.24-.36-2.26-.89-1.1-.47-1.98-1.12-.96-.59-1.69-1.35-.82-.7-1.42-1.59-.68-.82-1.14-1.83-.54-.94-.88-2.07-1.01-3.37-.07-.34-.15-1.18-.07-.67-.12-1.75-.06-.94-.11-2.24-.05-1.17-.09-2.64-.04-1.36-.08-2.95-.03-1.5-.05-3.16-.05-3.2-.04-6.67-.01-3.33.04-6.38.02-1.55.04-2.91.03-1.42.06-2.59.04-1.25.08-2.19.05-1.03.1-1.69.06-.77.12-1.11.22-.9.12-.19.62-.38.37-.19 1.01-.36 3.86-.75 5.11-.49v29.35l.01 3.6v1.74l.02 3.17.01 1.53.04 2.76.02 1.34.06 2.39.04 1.15.09 2.05.06.99.14 1.75.15 1.68.45 2.57.26 1.18.71 1.78.39.82 1.03 1.24.55.58 1.4.97 2.57 1.43 1.03.53 1.71.72.86.3 1.93.34.52.06 1.22.08.64.02 1.51.01h.8l1.9-.05 3.38-.12 1.51-.06 2.9-.17 1.4-.09 2.47-.21 1.16-.11 1.76-.22.39-.06.58-.1.58-.16.2-.09.34-.3.16-.19.25-.65.12-.39.19-1.18.09-.68.13-1.91.06-1.07.08-2.83.02-.77.03-1.75.01-.91.02-2.04.01-1.06.02-2.36v-1.23l.01-2.7v-1.39l.01-3.07V280.88l.01-2.91.01-1.4.04-2.46.02-1.18.07-2.06.04-.97.11-1.68.06-.79.16-1.34.08-.63.22-1.04.23-.97.68-1.2.38-.51 1.03-.49.56-.18 1.45-.08 2.74.01h4.01l.07 34.46.08 34.46-2.58 1.69-.76.5-2.25.95-1.22.46-3 .86-1.57.42-3.53.73-1.8.35-3.82.58-1.92.27-3.88.4-1.92.17-3.71.17-1.81.06-3.3-.08-1.58-.08M569 302.12v-34.87l4.75-2.03 1.64-.71 3.07-1.11 1.52-.52 3.04-.8 1.55-.37 3.32-.56 5.61-.64 1.45-.12 2.53-.1 1.2-.03 2.04.1.97.08 1.57.31.73.19 1.11.54.5.3.68.76.28.42.25 1.01.07.53-.16 1.26-.69 2.18-.28.66-.55.9-.33.4-1.05.5-.32.11-.83.18-.45.08-1.14.14-.61.07-1.51.12-2.77.2-2.39.16-4.7.59-1.08.16-1.82.33-1.95.5-3.25 1.16V337h-12v-34.88Z"
        fill="rgba(44,42,41,1)"></path>
</svg>