<svg id="logo-innlabcompany-svg" xmlns="http://www.w3.org/2000/svg" viewBox="82 0.15 974 200.02">
  <title>Logo Innlab Company</title>
  <path
    d="m986.84 162.37.31.14.67.45.35.25.79.71.41.39.96 1.03.51.55 1.19 1.4.63.75 1.47 1.82 2.6 3.27 8.77 11.12.57-22.25h6.93v38.14l-2.21-.32-.18-.03-.49-.24-.26-.15-.64-.5-.34-.28-.79-.74-.42-.41-.94-.99-.5-.53-1.09-1.23-.57-.65-1.25-1.48-.64-.78-1.39-1.72-2.25-2.85-9.54-12.25-.56 25.01H982v-38h3.63m-15.6 18 1.09 2.41 1.99 4.48.47 1.08.87 2.01.43.98.75 1.77.36.85.61 1.47.29.7.45 1.13.2.52.27.74.17.61v.19l-.24.33-.16.15-.53.24-.31.11-.8.14-1.46.09h-.75l-1.13-.12-.52-.09-.79-.41-.36-.25-.64-.81-.99-1.82-1.67-3.5h-19.6l-1.47 3.5-.32.77-.56 1.07-.29.47-.65.59-.35.25-.92.23-1.92.12h-.54l-.93-.09-.44-.06-.68-.19-.31-.11-.4-.28-.16-.15-.09-.37v-.09l.16-.52.11-.31.35-.95.2-.52.53-1.31.28-.69.68-1.63.35-.85.81-1.9.42-.98.92-2.11 3.05-6.89 7.85-17.5h8.4m-158.69-.79 1.4.27 2.62.96 3.55 2.05 2.48 1.88-2.27 2.42-2.28 2.42-3.97-1.96-1.3-.65-2.61-.58-1.29-.19-2.48.25-1.22.22-2.23.96-1.08.56-1.86 1.55-.88.84-1.36 2.02-.61 1.06-.74 2.37-.28 1.22v2.61l1 4.03.34.82.93 1.46.5.69 1.22 1.17.64.56 1.44.88.75.4 1.62.57.83.25 1.74.24.88.08 1.82-.09.91-.09 1.84-.46 2.71-1.09.74-.39 1.05-.46.47-.17.74-.01.36.05.74.49 1.45 1.35 2.46 2.46-3.34 2.38-.51.36-1.34.63-.72.3-1.66.49-1.72.46-3.95.46-1.98.15-3.82-.21-.91-.09-1.64-.33-.79-.18-1.31-.52-.94-.43-1.92-1.34-.95-.72-1.79-1.75-.86-.9-1.44-1.94-1.54-2.87-.43-1.15-.47-2.84-.16-1.47.06-3.17.09-1.58.56-3.08 1.38-4.07.63-1.32 1.51-2.17.8-1.02 1.91-1.63 1.02-.76 2.45-1.19 4.4-1.38 1.43-.32 2.9-.2 1.44-.02m39.15.7 1.48.32 2.68 1.08 1.29.61 2.25 1.63 1.06.88 1.79 2.11.83 1.12 1.27 2.54.57 1.32.72 2.93.29 1.5.13 3.25-.52 5.17-.2 1.08-1.13 2.39-.66 1.21-1.8 2.35-.96 1.13-2.18 1.95-3.34 2.07-.51.21-1.22.35-.64.16-1.42.23-1.46.21-3.21.1h-1.6l-3.04-.33-.72-.11-1.31-.3-.62-.16-1.07-.4-1.06-.47-2.19-1.62-1.08-.89-1.99-2.2-.94-1.14-1.48-2.4-1.31-3.42-.34-1.79-.18-3.38-.01-1.66.43-3.09.29-1.51 1-2.74.57-1.32 1.53-2.34.83-1.11 2.02-1.88 1.07-.87 2.47-1.37 1.29-.61 2.87-.79 4.73-.49h1.66m29.26.62.7.12 1.2.73.3.24.66.66.34.37.77.96.41.52.96 1.32 1.74 2.44.73 1.03 1.39 1.88.67.9 1.18 1.49.55.68.83.93.71.59h.1l.61-.59.36-.38 1.03-1.23.55-.68 1.31-1.7 2.13-2.9.65-.92 1.09-1.5.52-.7.86-1.13.41-.52.71-.81.34-.37.63-.53.61-.49 1.27-.38 2.53-.15 4.27-.02-.54 37.5h-7l-.56-25.77-5.53 7.39-.76 1.01-1.46 1.85-.71.89-1.26 1.46-.59.67-.91.92-.83.58h-.13l-.68-.59-.4-.37-1.08-1.22-.58-.68-1.36-1.69-2.18-2.89-5.42-7.43-.28 12.93-.28 12.94-3.04.3-.83.08-1.52-.08-.34-.04-.54-.13-.24-.07-.28-.18-.05-.05-.09-.47-.05-.29-.08-.91-.05-.51-.07-1.31-.04-.7-.07-1.65-.03-.86-.06-1.94-.02-1-.04-2.18-.06-7.18V162h5.41m55.73.07 1.37.05 2.36.2 1.12.11 1.91.35.91.19 1.52.53.73.28 1.22.73.58.4.98.96.46.52.82 1.22 1.11 2.17.59 1.34.63 2.53.22 1.24-.11 2.37-.15 1.16-.87 2.25-2.14 3.27-.73.86-1.81 1.38-.97.64-2.35.94-1.24.41-2.92.52-5.08.3-5.2.01-.3 5.25-.03.63-.07 1.04-.04.49-.09.79-.1.74-.35.87-.22.36-.73.35-1.71.28-.83.08-1.52-.08-.34-.04-.54-.13-.24-.07-.28-.18-.05-.05-.09-.47-.05-.29-.08-.91-.05-.51-.07-1.31-.04-.7-.07-1.65-.03-.86-.06-1.94-.02-1-.04-2.18-.06-7.18V162h12.26m113.3 7.55 4.7 7.54 4.84-7.54 4.83-7.55h9.19l-7.51 10.85-7.52 10.84-.59 15.81-3.04.3-.83.08-1.52-.08-.34-.04-.54-.13-.24-.07-.28-.18-.09-.1-.18-.78-.09-.47-.14-1.39-.06-.75-.09-1.81-.06-3.01v-.87l-.02-1.48-.01-.71-.06-1.2-.08-1.15-.35-1.78-.23-.85-.78-1.63-1.83-2.91-.46-.69-1.13-1.7-.59-.89-1.26-1.93-.64-.98-1.25-1.92-1.7-2.63-3.67-5.75h8.92m-193.77 6.42-1.04.25-1.94.92-.94.53-1.62 1.45-1.92 2.79-.36.77-.53 1.54-.23.76-.26 1.51-.2 1.49.3 2.82.25 1.37 1.09 2.46.63 1.17 1.73 1.94.93.89 2.21 1.29 1.15.54 2.54.48 1.3.12 2.72-.49.68-.18 1.37-.59.69-.32 1.36-.87.62-.44 1.06-.99.51-.52.84-1.16.39-.6.61-1.3.27-.66.37-1.41.31-1.44-.1-3.13-1.3-4.88-.45-1.07-1.31-1.74-.72-.81-1.74-1.21-.9-.55-2.02-.68-1.02-.28-2.14-.15-1.07-.01m120.72 9.32-.41.94-.73 1.79-.35.86-.58 1.51-.27.7-.36 1.06-.23.89v.12l.47.23.31.11.98.18.55.08 1.36.11 2.33.07h.82l1.51-.07.72-.05 1.19-.15.54-.08.75-.2.3-.11.17-.25v-.12l-.24-.77-.16-.45-.5-1.31-.28-.7-.7-1.67-1.19-2.73-3.08-6.84M913 169v13h6.68l1.68-.11.81-.07 1.44-.23.69-.14 1.15-.35.53-.19.8-.47.67-.47.9-1.45.36-.78.27-1.81.06-.91-.38-1.82-1.31-2.37-.32-.35-.79-.53-.42-.24-1.12-.32-.62-.14-1.61-.16-3.12-.09m-687.1-98.63-3.35 4.98 3.07 12.7.32 1.29.52 2.24.25 1.07.4 1.85.19.88.28 1.51.13.71.17 1.22.15 1.16v1.68l-.4 1.96-.08.21-.67.91-.42.53-1.29 1.51-.72.82-1.82 2.02-.97 1.06-2.27 2.43-1.17 1.26-2.62 2.76-1.35 1.41-2.88 2.99-2.93 3.04-6.29 6.41-3.15 3.2-6.21 6.2-1.51 1.5-2.89 2.85-1.41 1.38-2.63 2.55-1.27 1.23-2.28 2.15-1.08 1.02-1.84 1.68-.85.78-1.31 1.11-1.27.94-.37.19-.98.36-.51.16-1.16.27-3.48.36-.26-.01-1.17-.21-.69-.14-1.95-.45-1.06-.26-2.62-.67-1.39-.36-3.19-.85-1.66-.45-3.67-1.02-1.89-.53-4.04-1.15-4.12-1.19-8.94-2.64-1.95-.59-3.6-1.08-1.74-.53-3.21-.98-1.56-.47-2.84-.88-1.37-.43-2.5-.79-1.21-.39-2.18-.71-1.05-.35-1.89-.65-1.82-.63-2.86-1.1-1.31-.53-2-.96-.91-.46-1.34-.89-.6-.44-.86-.9-.97-1.45-.11-.2-.38-1.12-.22-.66-.56-1.94-.31-1.07-.72-2.65-.38-1.4-.85-3.23-.44-1.68-.95-3.69-.49-1.89-1.02-4.04-.77-3.09.27.8.09.16.71.51.69.01.48-.18 1.05-.49.68-.46 1.48-1.05.93-.76 1.98-1.67 1.2-1.09 2.55-2.34 1.51-1.45 3.19-3.08 1.86-1.83 1.9-1.89 1.03-1.02 2.09-2.09 1.12-1.12 5.15-5.15 2.93-2.89 1.24-1.21 2.33-2.25.98-.91 1.83-1.68.76-.66 1.41-1.18.58-.44 1.08-.77.45-.25.84-.42.35-.11.68-.15h.31l2.61.49 1.65.71.5.45 1.12 1.22.5.83.12.44.17.9-.06.49-.2 1.02-.25.57-.59 1.19-.45.67-.99 1.41-.66.81-1.43 1.68-.88.96-1.88 2-1.12 1.15-2.89 3.02-1.63 1.8-.68.8-1.26 1.54-.5.7-.91 1.34-.34.62-.61 1.21-.19.57-.33 1.12-.07.54-.02 2.17.29 1.17 1.35 3.12 1.34 1.7.87.63 1.86 1.13 1.1.33 2.31.5h1.3l2.86-.19.82-.23.43-.19.87-.45.49-.33 1.03-.75.62-.52 1.3-1.13.79-.73 1.69-1.59 1.03-.99 2.19-2.11 1.32-1.29 3.19-3.08L158 95.7l.77-.71 1.45-1.31.62-.53 1.16-.96.5-.37.94-.67.42-.23.79-.42.37-.13 1.39-.35.73.01 2.53.28 1.44.46.62.37 1.18.85.51.59.98 1.29.44.81.95 2.49.16 1.55-.18.79-.54 1.61-.54.9-1.26 1.87-.93 1.11-2.56 3.98-.95 2.61-.09 1.25.08 2.46.42 1.12.49 1.11.34.52.75 1.02.47.48 1.74 1.46.99.4 2.08.59h1.23l1.23-.11.85-.24.49-.24 1.06-.59.66-.47 1.43-1.06.91-.77 1.96-1.69 1.24-1.13 1.29-1.17.71-.67 1.49-1.39.83-.78 1.7-1.62.95-.9 1.94-1.86 1.08-1.04 2.21-2.12 1.21-1.17 2.49-2.41 1.36-1.32 4.42-4.29 2.71-2.65 1.25-1.22 2.43-2.4 1.11-1.1 2.16-2.16.99-1.01 1.91-1.95.86-.9 1.69-1.76.76-.82 2.84-3.12 1.15-1.37 2.13-2.63.86-1.19 1.24-1.82m-73.22 49.19-.75.19-1.54.51-.82.43-1.66.98-.9.67-1.83 1.46-.99.92-2.04 1.96-1.1 1.17-2.59 2.88-1.2 1.55-.39.66-.65 1.28-.16.6-.22 1.22.01.66.37 2.97.58 1.83.43.81.97 1.55.62.64 1.32 1.18.78.43 1.41.71.69.23 1.4.38.71.07 1.4.06.72-.09 1.43-.27.74-.26 1.48-.61.76-.43 1.55-.95.8-.61 1.62-1.3.84-.78 1.72-1.66.9-.96 2.45-2.76 1.09-1.47.34-.65.55-1.29.12-.69.17-1.44v-.89l-.14-2.21-.27-1.23-.25-.56-.59-1.09-.45-.58-1.01-1.18-.69-.69-2.09-1.8-1.38-.86-.7-.27-1.39-.42-.72-.04m183.16-95.59 2.55 1.29.17.12.68.51.4.3 1.09.84.59.45 1.45 1.12.76.59 1.74 1.36.91.71 1.99 1.56 1.02.8 2.18 1.71 6.99 5.53 2.41 1.9 5.15 4.09 2.58 2.05 5.07 4.01 1.23.97 2.35 1.86 1.14.91 2.12 1.67 1.03.81 1.82 1.44 2.3 1.82 1.38 1.09 2.34 1.92 1.1.91 1.8 1.61.84.78 1.31 1.37.6.67.86 1.2.38.58.45 1.09.17.54.08 1.04v.52l-.25 1.05-.7 1.67-.45.88-1.24 1.34-.66.6-1.54.75-.8.29-1.72.1-2.6-.64-.16-.07-.75-.49-.44-.29-1.25-.9-.69-.5-1.7-1.26-.91-.67-2.08-1.58-1.08-.82-2.41-1.83-1.23-.95-2.65-2.05-8.58-6.72L350 44.99v91.86l-2.63 2.08-.86.67-1.52.83-.75.32-1.4.13-.71-.03-1.44-.58-.74-.38-1.64-1.3-2.81-2.42-.55-109.21 3.21-3.21 1.51-.95.76-.4 1.59-.29.8-.06m169.64.15.42.13.95.4.49.23 1.12.6.59.33 1.32.84.7.44 1.56 1.07.81.57 1.82 1.33.95.7 2.11 1.6 1.1.84 2.44 1.9 1.26.98 2.8 2.21 1.44 1.14 3.18 2.53 5.23 4.18 1.99 1.59 3.61 2.9 1.76 1.4 3.16 2.54 1.53 1.23 2.74 2.21 1.32 1.07 2.35 1.9 1.13.92 1.99 1.63.95.78 1.66 1.38.79.67 1.35 1.15.65.56 1.08.96.51.46.84.8.4.38.63.66.58.63.67.95.26.45.22.75.08 1.13v.94l-.62 1.85-.4.9-1.24 1.56-.67.73-1.62 1.03-2.6.67h-.38l-.95-.23-.51-.16-1.29-.63-.71-.37-1.79-1.14-.97-.64-2.44-1.75-.65-.48-1.46-1.09-.75-.57-1.67-1.29-.86-.67-1.9-1.48-.98-.77-2.14-1.71-1.1-.88-2.41-1.93-1.24-.99-2.69-2.18-1.38-1.12-2.99-2.43-4.84-3.95-11.75-9.6v89.95l-2.25 2.47-.67.74-1.36 1.08-.68.48-1.39.56-.7.22-1.44.05-.72-.04-1.47-.47-.61-.24-1.25-.96-1.39-1.66-.05-.08-.08-.37-.05-.22-.08-.64-.04-.35-.07-.91-.04-.49-.06-1.18-.04-.62-.06-1.46-.03-.76-.06-1.73-.02-.89-.06-2-.02-1.04-.05-2.28-.02-1.17-.04-2.55-.02-1.31-.03-2.84-.02-1.45-.03-3.11-.01-1.59-.02-3.38-.02-1.73-.01-3.67-.01-1.87-.01-3.95-.01-2.01-.01-4.24V68.24l.01-5.31v-2.57l.01-4.61v-2.23l.02-3.98.01-1.91.02-3.38.01-1.62.04-2.84.02-1.36.04-2.35.03-1.12.06-1.91.03-.9.08-1.53.04-.71.09-1.19.1-1.11.25-1.43.14-.62.35-.75.65-.81.55-.55 1.05-.83.53-.35 1.17-.31.62-.09m132.51.72 2.5 2.04.25.33.42.67.2.38.31 1.08.15.63.22 1.9.05.54.09 1.32.04.69.07 1.66.03.88.05 2.06.03 1.08.04 2.51.02 1.31.03 3 .01 1.57.02 3.55.01 1.86.01 4.15v2.16l.01 4.81V83.5l-.02 7-.01 3.45-.03 6.55-.01 3.2-.05 5.94-.02 2.88-.05 5.2-.03 2.48-.07 4.29-.01 1.01-.04 1.83-.01.87-.04 1.55-.02.74-.04 1.25-.02.58-.04.94-.02.42-.04.6-.06.51-.17.63-1.09 1.42-2.18 1.7-.75.39-1.12.51-.51.21-.83.18-.41.04-.81-.12-.43-.1-1.06-.4-.1-.03-.72-.51-.44-.32-1.34-1.01-.74-.56-1.88-1.44-.99-.77-2.32-1.81-1.2-.94-2.67-2.1-1.37-1.08-2.93-2.31-2.98-2.36-6.35-5.06-3.18-2.54-6.22-4.99-1.51-1.22-2.88-2.33-1.4-1.13-2.6-2.11-1.26-1.02-2.22-1.83-1.06-.87-1.76-1.46-.82-.68-1.21-1.03-1.1-.99-.51-.51-.68-1.18-.28-.61-.27-1.31-.08-.66.11-1.34.1-.67.45-1.29.26-.63.75-1.13.41-.54 1-.9.54-.41 1.22-.55 2.05-.35h.42l.82.09.43.08.95.34.51.21 1.28.72.69.42 1.77 1.22.96.68 2.45 1.85.66.51 1.49 1.16.77.6 1.71 1.37.89.7 1.97 1.58 1.02.82 2.25 1.81 1.16.94 2.55 2.07 4.18 3.39 1.82 1.48 3.36 2.7 1.61 1.29 2.71 2.14.63.49 1.07.82.5.39.81.61.37.27.5.36.37.22h.02l.03-.23.02-.15.03-.53.02-.29.03-.8.01-.44.03-1.06.03-1.13.06-2.97.03-1.6.04-3.83.03-2.01.03-4.56.02-2.37.03-5.17.01-2.65.02-5.66.01-8.92V61.6l.01-4.33v-2.09l.01-3.77V49.6l.02-3.24.01-1.56.02-2.76.02-1.33.03-2.33.02-1.11.05-1.93.02-.92.07-1.58.03-.75.08-1.28.04-.6.1-1.01.1-.95.26-1.28.15-.57.36-.78.67-.99.72-.91 1.78-1.13.93-.46 2-.23h1m44.71-2.31 1.27.3.62.19 1.15.61.56.34.95.9 1.11 1.68.1.22.18 1.08.08.65.15 1.98.07 1.1.12 2.91.06 1.58.1 3.89.05 2.07.07 4.9.02 1.29.03 2.78.01 1.42.02 3.04.02 1.56.01 3.32.01 1.69.01 3.59.01 1.83.01 3.87v54.56l44.97.28 2.8.02 5.09.03 2.46.02 4.45.03 2.15.01 3.85.03 1.86.02 3.3.04 1.59.02 2.8.04 1.34.02 2.34.05 1.12.03 1.93.06.92.03 1.56.07.74.04 1.24.09.59.05.97.1.9.12 1.18.29.51.15.66.39.82.72.72.72.9 1.75.36.91.18 1.93v.97l-.54 1.87-1.62 2.47-.27.27-.55.45-.31.21-.93.34-.54.15-1.71.25-.5.05-1.21.1-.64.05-1.55.08-.82.04-1.93.06-1.02.04-2.37.05-1.25.03-2.86.04-1.49.02-3.41.04-1.77.02-4 .03-2.07.02-4.64.03-2.41.01-5.33.03-8.84.05-2.78.02-5.11.02-2.49.02-4.55.01-2.21.01-4.03.01-1.96.01h-5.25l-3.08-.01-1.49-.01-2.66-.01-1.28-.02-2.27-.03-1.08-.01-1.92-.04-.91-.03-1.59-.05-.75-.03-1.3-.07-1.23-.07-1.74-.19-.77-.11-1.02-.26-.44-.13-.56-.33-2.25-1.58V73.61l.01-2.18.01-4.15v-2.04l.02-3.87.01-1.9.02-3.59.01-1.76.02-3.3.02-1.62.03-3.02.01-1.47.04-2.74.02-1.34.04-2.46.03-1.19.04-2.18.03-1.05.05-1.9.03-.92.06-1.62.03-.77.07-1.34.03-.64.07-1.06.03-.5.08-.79.04-.36.08-.51.13-.45.32-.6.87-.96.47-.43 1.1-.64.57-.27 1.24-.32.63-.12h1.3M473.99 21.4l2.36 1.43.18.21.32.66.14.41.25 1.3.05.38.1.93.05.5.09 1.19.04.64.07 1.51.03.79.06 1.85.03.97.05 2.24.02 1.17.04 2.66.02 1.39.03 3.13.01 1.63.02 3.63.01 1.88.02 4.18v2.16l.01 4.76v2.46l.01 5.39v20.9l-.01 5.23v2.54l-.01 4.57-.01 2.21-.01 3.96-.01 1.91-.03 3.39-.01 1.63-.03 2.87-.02 1.37-.05 2.4-.02 1.14-.06 1.96-.03.94-.07 1.58-.03.75-.09 1.24-.05.59-.1.96-.05.44-.12.72-.13.66-.31.78-.58.76-.25.22-.73.42-.39.19-.93.33-2.95.46h-.37l-.82-.17-.44-.12-1.06-.46-.58-.28-1.44-.87-.78-.49-1.94-1.35-1.05-.74-2.59-1.94-.69-.53-1.53-1.17-.79-.61-1.73-1.36-.9-.7-1.95-1.54-1.01-.8-2.19-1.75-1.13-.9-2.45-1.96-1.26-1.01-2.72-2.18-3.58-2.88-6.62-5.45-1.59-1.32-2.95-2.47-1.43-1.21-2.59-2.21-1.24-1.07-2.14-1.88-1-.9-1.63-1.49-.74-.68-1.03-1.03-.8-.96-.29-.58-.29-1.19-.1-.6.06-1.21.07-.6.38-1.16.23-.57.66-1.06.35-.51.9-.9.47-.43 1.09-.69.57-.31 1.25-.42 2.01-.26h.1l.59.33.36.21 1.08.72.59.41 1.5 1.07.8.57 1.86 1.38.97.73 2.17 1.64 1.11.85 2.42 1.86 7.87 6.21 20 15.98.28-44.88.02-2.65.03-4.86.01-2.35.04-4.28.01-2.07.04-3.74.01-1.8.04-3.24.02-1.56.04-2.78.02-1.33.05-2.36.03-1.12.06-1.97.03-.95.07-1.62.03-.77.08-1.32.04-.62.1-1.05.1-.99.25-1.34.13-.59.33-.77.6-.85.62-.67 1.8-.88.96-.35 2.14-.22 1.06-.03m445.85 2.51 1.6 1.11.17.18.29.64.14.4.23 1.3.11.76.17 2.23.04.63.06 1.48.04.78.06 1.81.02.95.05 2.17.02 1.13.04 2.57.02 1.33.03 3 .01 1.56.02 3.46.01 1.8.01 3.96.01 2.05.01 4.5v2.32l.01 5.07v20.29l-.01 5.17v2.5l-.01 4.49v2.17l-.02 3.86-.01 1.85-.02 3.29-.01 1.57-.04 2.76-.02 1.31-.04 2.29-.03 1.08-.06 1.86-.04.88-.07 1.49-.04.7-.1 1.16-.1 1.1-.27 1.44-.14.63-.37.83-.67 1-.66.83-1.71 1.09-.89.45-1.95.3-.97.05-1.9-.51-2.45-1.68-.22-.25-.37-.59-.18-.34-.29-.96-.14-.56-.22-1.62-.1-.91-.17-2.54-.04-.71-.07-1.63-.04-.85-.06-1.95-.04-1.02-.05-2.31-.03-1.2-.06-2.7-.02-1.4-.06-3.13-.02-1.62-.06-3.58-.02-1.86-.06-4.07-.08-6.71-.5-40.4-42.5 42.5-2.35 2.36-4.34 4.34-2.11 2.11-3.87 3.85-1.88 1.87-3.42 3.41-1.66 1.64-3.01 2.98-1.46 1.44-2.63 2.58-1.27 1.24-2.27 2.21-1.1 1.06-1.94 1.87-.94.89-1.65 1.55-.8.74-1.39 1.27-.66.59-1.15 1.01-.55.47-.94.77-.45.36-.77.56-.73.52-1.05.54-1.2.28h-.92l-1.82-.56-.87-.35-1.31-1.1-.5-.56-.79-1.77-.53-2.76v-.35l.34-.91.25-.52 1.04-1.49.32-.42.81-1 .44-.53 1.08-1.24.57-.65 1.38-1.51.73-.8 1.72-1.83.9-.95 2.09-2.18 1.09-1.13 2.48-2.56 1.3-1.33 2.92-2.97 1.52-1.55 3.39-3.43 1.76-1.77 3.89-3.92 2.02-2.03 4.43-4.44 2.28-2.3 5-5 8.18-8.18 3.57-3.57 6.9-6.86 3.4-3.37 6.43-6.36 3.15-3.1 5.82-5.71 1.42-1.38 2.68-2.62 1.32-1.28 2.48-2.41 1.22-1.18 2.26-2.18 1.1-1.06 2.02-1.93.98-.94 1.77-1.67.85-.8 1.49-1.39.71-.66 1.19-1.1.56-.5.89-.78.4-.35.55-.44.44-.27h.45m58.1-3.03h1.4l3.17.03 1.66.01 3.72.04 1.93.03 4.31.05 2.24.03 4.95.07 8.19.12 4.02.05 7.26.12 3.5.06 6.22.13 2.98.06 5.21.14 2.48.07 4.22.14 1.99.08 3.24.15 1.51.08 2.29.16 1.03.09 1.36.17 1.03.28.37.31.58.95.39 1.48v.11l-.54.75-.35.45-1.18 1.39-.67.76-1.76 1.94-.94 1.03-2.27 2.42-1.18 1.26-2.7 2.83-1.4 1.45-3.06 3.15-1.57 1.61-3.34 3.41-5.27 5.3-26.24 26.25 25.74 25.8 1.77 1.78 3.4 3.43 1.67 1.69 3.15 3.22 1.54 1.57 2.83 2.92 1.37 1.42 2.44 2.55 1.17 1.23 1.98 2.11.93.99 1.45 1.6.65.73.85 1.01.53.76v.34l-.59 1.1L1053 135l-.24.24-.55.4-.31.19-.93.3-.55.14-1.67.22-.48.05-1.16.08-.61.04-1.45.07-.77.03-1.8.05-.95.03-2.18.04-1.14.02-2.61.03-1.37.01-3.08.02-1.6.01-3.6.01-1.86.01h-4.15l-2.15.01h-18.91l-2.01-.01h-3.75l-1.84-.01-3.41-.01-1.66-.01-3.08-.02-1.5-.01-2.76-.03-1.34-.01-2.45-.03-1.2-.02-2.16-.04-1.05-.02-1.9-.05-1.82-.04-2.89-.12-1.32-.07-1.96-.15-.88-.08-1.16-.19-.48-.1-.46-.23-.17-.14-.3-.6-.14-.39-.24-1.3-.06-.39-.1-.95-.05-.51-.1-1.22-.04-.65-.08-1.54-.05-.81-.07-1.88-.04-.99-.06-2.26-.04-1.18-.06-2.69-.03-1.39-.05-3.14-.03-1.63-.06-3.63-.02-1.88-.06-4.15-.02-2.15-.05-4.71-.03-2.43-.05-5.32-.08-8.68-.03-3.43-.06-6.23-.02-3.01-.05-5.45-.02-2.64-.04-4.72-.01-2.28-.02-4.05-.01-1.95-.01-3.44V40.3l.01-2.88v-1.37l.03-2.37.01-1.13.05-1.91.02-.91.07-1.51.03-.72.09-1.17.04-.54.11-.89.06-.41.13-.64.14-.6.36-.72.67-.8.25-.25.53-.42.3-.19.9-.31.53-.13 1.64-.2.47-.05 1.15-.07.62-.03 1.46-.05.77-.02 1.82-.03.96-.01 2.23-.01h1.17M297.7 21.13l1.55.6 2.3 1.72 2.45 2.46v66.36l-.01 5.88v2.84l-.03 5.07-.01 2.44-.05 4.31-.02 2.07-.08 3.62-.05 1.73-.11 2.99-.07 1.42-.16 2.42-.09 1.14-.22 1.9-.12.9-.28 1.45-.15.68-.36 1.07-.18.49-.44.73-.23.33-.52.47-.54.41-1.39.28-2.58.07-1.09.01-1.71-.54-.78-.36-1.17-1.31-.17-.25-.29-.79-.14-.46-.22-1.45-.11-.83-.16-2.38-.04-.66-.07-1.55-.03-.81-.06-1.88-.03-.98-.05-2.23-.02-1.17-.04-2.63-.01-1.37-.03-3.05-.02-1.59-.02-3.51-.01-1.82-.01-4.02-.01-2.07-.01-4.54v-2.35l-.01-5.1V25.35l2.31-2.18.76-.71 1.54-.87.77-.34 1.55-.14m672.41 35.55.05 1.56.08 3.44.05 1.76.08 3.76.08 3.82.13 8.08.06 4.03.08 7.78.01 1.88.03 3.54.01 4.85V123h57.2l-20.35-21.09-2.8-2.9-5.13-5.46-1.23-1.31-2.26-2.47-1.09-1.2-1.97-2.19-.93-1.05-1.61-1.85-.75-.87-1.19-1.44-.54-.67-.72-.97-.48-.86-.04-.21.18-.6.14-.33.55-.88.34-.49 1-1.24.56-.67 1.49-1.66.82-.89 2.06-2.14 1.1-1.14 2.68-2.69 1.42-1.42 3.35-3.3 5.85-5.71 21.85-21.21-30.41-.05-30.41-.04M143.16 2.62l.56.09 1.32.28.69.16 1.65.42.87.23 2.04.58 3.58 1.04 12.25 3.63 7.25-3.58.99-.49.57-.24-1.37.69-2.37 1.3-1.65 1.07-.96.71-2.01 1.54-1.22 1.03-1.26 1.08-.7.62-1.45 1.29-.8.73-1.67 1.53-.92.86-1.92 1.8-1.06 1.01-2.2 2.09-1.21 1.16-2.51 2.42-1.38 1.34-2.85 2.76-1.56 1.52-3.22 3.15-1.76 1.72-3.62 3.55-1.97 1.94-4.06 3.99-2.2 2.16-39.36 38.73-.47-1.94-.48-2.06-.92-3.91-.44-1.91-.8-3.51-.39-1.7-.66-3.01-.31-1.43-.49-2.37-.22-1.09-.3-1.62-.18-1.44v-.48l.08-.87.07-.44.36-.96.23-.51.83-1.26.5-.69 1.48-1.78.43-.49.99-1.1.53-.58 1.23-1.31.64-.69 1.48-1.54.78-.8 1.75-1.8.91-.93 2.06-2.09 1.06-1.08 2.38-2.39 1.23-1.24 2.72-2.74 4.5-4.51 1.24-1.24 2.32-2.32 1.14-1.14 2.14-2.13 2.1-2.09 3.68-3.61 1.75-1.71 3.04-2.92 1.44-1.38 2.46-2.29 1.16-1.06 1.94-1.71.91-.78 1.48-1.18.69-.53 1.08-.71 1.24-.59.77-.24 1.52-.19.8-.05m97.61 51.85-.01.04.06-.39m.49-12.87.18 4.43.01 2.21-.43 4.39-.15 1.09.54-5.04-.01-2.7-.2-4.83m-7.26-20.07 1.23 1.81 2.02 3.9.93 1.99.56 1.66-2.34-5.14-2.06-3.59-1.17-1.65-.31-.41m-2.97-3.73.12.15-.43-.47M212.14 4.07l.2.09-.71-.29M199.9.57l2.09.29 4.13 1.03 2.04.58.71.29-1.68-.51-4.01-1.08-2.09-.36-6.9-.62-3.79.14 3.19-.16 2.1-.02m-8.31.59-.99.21.92-.21 2.08-.36h.18Z"
    fill="rgba(4,27,28,1)" />
  <path
    d="m196.8 10.53 1.63.04.71.03 2.6.18 1.08.19 2.04.44 1 .35 2.05.81 1.21.57 5.48 3.08 3.21 2.39 1.41 1.38 2.69 2.87 1.17 1.64 2.21 3.41.95 1.93.99 2.05.54 1.22.22.55.76 2.11.23 1.07.35 2.21.08 1.38.06 1.45.01.83.02 1.75v1.02l-.02 2.63-.04 1.54-.04.68-.19 2.5-.19 1.05-.45 2.02-.35 1-.8 2.03-.56 1.19-2.97 5.3-2.29 3.14-1.32 1.39-2.76 2.67-1.58 1.17-3.3 2.27-1.87 1-2.54 1.32-1.07.46-2.06.8-1.06.26-2.2.42-1.37.13-1.43.11-.82.04-1.72.08-1 .03-4.25.02-2.58-.12-1.18-.14-2.3-.33-1.07-.26-2.09-.57-.99-.39-1.95-.83-.95-.53-1.89-1.13-.95-.69-1.9-1.45-.97-.86-1.98-1.8-1.04-1.04-2.63-2.83-1.55-1.88-.67-.94-2.42-3.8-.84-2-1.44-4.1-.4-2.25-.34-2.29-.09-1.21-.14-2.47V45.5l.33-5.04.55-3.25.43-1.56.97-3.07.63-1.47 1.38-2.88.83-1.36 1.76-2.66 1.03-1.23 2.13-2.42 1.21-1.1 2.49-2.14 1.38-.97 2.84-1.84 1.55-.8 3.57-1.73 2-.74 1.06-.21 2.21-.35 1.44-.07 1.5-.06.88-.01 1.85-.02H194m653.88 44.47.67.1 1.28.45.63.26 1.18.78.57.43 1.03 1.09 1.31 2 .52 1.01.47 2.02.14 1-.27 1.97-.23.97-1.01 1.84-2.32 2.56-.77.65-1.5.9-.74.39-1.5.37-.76.12-1.6-.13-.83-.13-1.79-.63-.73-.3-1.25-.83-.59-.46-.94-1.1-.44-.58-.64-1.3-.27-.67-.32-1.42-.12-.73.02-1.48.05-.74.36-1.46.23-.73.72-1.38 1.48-1.91.6-.59 1.28-.93.65-.42 1.34-.57.68-.24 1.37-.23.69-.07M194.5 14.61l-3.95.17-2.26.22-1 .17-1.9.4-.87.27-1.7.6-.82.38-3.35 1.71-1.93 1.14-.74.52-1.3.97-.34.38-.28.35-.05.14-.03.25.09.07 1.94 1.22 1.8.76 1.13.35 2.41.69 1.43.32 2.99.6 1.7.26 2.55.36 1.44.15 2.97.28 1.58.1 6.46.36 3.09.05 3.02.02 1.37-.02 2.64-.06 1.1-.07 2.05-.16.73-.11 1.25-.25.26-.17.48-.67.01-.59-.14-.36-.38-.75-.31-.42-.72-.87-.47-.46-2.16-1.92-1.43-.97-3.07-1.94-1.76-.86-3.14-1.4-1.86-.62-.98-.19-2-.3-1.22-.05-2.63-.07Z"
    fill="rgba(20,237,237,1)" />
  <path
    d="m162.04 118.05 1.39.42.7.27 1.38.86 2.09 1.8.69.69 1.01 1.18.45.58.59 1.09.25.56.27 1.23.14 2.21v.89l-.17 1.44-.12.69-.55 1.29-.34.65-1.09 1.47-2.45 2.76-.9.96-1.72 1.66-.84.78-1.62 1.3-.8.61-1.55.95-.76.43-1.48.61-.74.26-1.43.27-.72.09-1.4-.06-.71-.07-1.4-.38-.69-.23-1.41-.71-.78-.43-1.32-1.18-.62-.64-.97-1.55-.43-.81-.58-1.83-.37-2.97-.01-.66.22-1.22.16-.6.65-1.28.39-.66 1.2-1.55 2.59-2.88 1.1-1.17 2.04-1.96.99-.92 1.83-1.46.9-.67 1.66-.98.82-.43 1.54-.51.75-.19 1.45-.04M201.09.81l2.09.36 4.01 1.08 1.97.6 3.74 1.55 1.84.83 3.45 1.99 1.69 1.05 3.14 2.43 1.53 1.26 2.8 2.83 1.35 1.47 2.45 3.22 1.17 1.65 2.06 3.59 2.63 5.78.4 1.03.65 2.28.3 1.17.45 2.49.4 2.54.23 5.39.01 2.7-.56 5.27-.19 1.29-.53 2.44-1.01 3.4-.44 1.21-.95 2.25-.5 1.11-1.19 2.19-.64 1.1-1.59 2.32-.86 1.19-2.13 2.63-1.15 1.37-2.84 3.12-.76.82-1.69 1.76-.86.9-1.91 1.95-.99 1.01-2.16 2.16-1.11 1.1-2.43 2.4-1.25 1.22-2.71 2.65-4.42 4.29-1.36 1.32-2.49 2.41-1.21 1.17-2.21 2.12-1.08 1.04-1.94 1.86-.95.9-1.7 1.62-.83.78-1.49 1.39-.71.67-1.29 1.17-1.24 1.13-1.96 1.69-.91.77-1.43 1.06-.66.47-1.06.59-.49.24-.85.24-1.23.11h-1.23l-2.08-.59-.99-.4-1.74-1.46-.47-.48-.75-1.02-.34-.52-.49-1.11-.42-1.12-.08-2.46.09-1.25.95-2.61 2.56-3.98.93-1.11 1.26-1.87.54-.9.54-1.61.18-.79-.16-1.55-.95-2.49-.44-.81-.98-1.29-.51-.59-1.18-.85-.62-.37-1.44-.46-2.53-.28-.73-.01-1.39.35-.37.13-.79.42-.42.23-.94.67-.5.37-1.16.96-.62.53-1.45 1.31-.77.71-1.81 1.72-3.19 3.08-1.32 1.29-2.19 2.11-1.03.99-1.69 1.59-.79.73-1.3 1.13-.62.52-1.03.75-.49.33-.87.45-.43.19-.82.23-2.86.19h-1.3l-2.31-.5-1.1-.33-1.86-1.13-.87-.63-1.34-1.7-1.35-3.12-.29-1.17.02-2.17.07-.54.33-1.12.19-.57.61-1.21.34-.62.91-1.34.5-.7 1.26-1.54.68-.8 1.63-1.8 2.89-3.02 1.12-1.15 1.88-2 .88-.96 1.43-1.68.66-.81.99-1.41.45-.67.59-1.19.25-.57.2-1.02.06-.49-.17-.9-.12-.44-.5-.83-1.12-1.22-.5-.45-1.65-.71-2.61-.49h-.31l-.68.15-.35.11-.84.42-.45.25-1.08.77-.58.44-1.41 1.18-.76.66-1.83 1.68-.98.91-2.33 2.25-1.24 1.21-2.93 2.89-5.15 5.15-1.12 1.12-2.09 2.09-1.03 1.02-1.9 1.89-1.86 1.83-3.19 3.08-1.51 1.45-2.55 2.34-1.2 1.09-1.98 1.67-.93.76-1.48 1.05-.68.46-1.05.49-.48.18-.69-.01-.71-.51-.09-.16-.37-1.08-.2-.65-.53-1.89-.28-1.02-.63-2.45-.99-4.03-2.39-10.15 39.47-38.84 2.2-2.16 4.06-3.99 1.97-1.94 3.62-3.55 1.76-1.72 3.22-3.15 1.56-1.52 2.85-2.76 1.38-1.34 2.51-2.42 1.21-1.16 2.2-2.09 1.06-1.01 1.92-1.8.92-.86 1.67-1.53.8-.73 1.45-1.29.7-.62 1.26-1.08 1.22-1.03 2.01-1.54.96-.71 1.65-1.07 2.37-1.3 2.36-1.19 4.62-1.76 2.3-.78 4.54-.96 2.27-.38 4.54-.17m-1.28 10.33-1.85.02-.88.01-1.5.06-1.44.07-2.21.35-1.06.21-2 .74-3.57 1.73-1.55.8-2.84 1.84-1.38.97-2.49 2.14-1.21 1.1-2.13 2.42-1.03 1.23-1.76 2.66-.83 1.36-1.38 2.88-.63 1.47-.97 3.07-.43 1.56-.55 3.25-.33 5.04v1.32l.14 2.47.09 1.21.34 2.29.4 2.25 1.44 4.1.84 2 2.42 3.8.67.94 1.55 1.88 2.63 2.83 1.04 1.04 1.98 1.8.97.86 1.9 1.45.95.69 1.89 1.13.95.53 1.95.83.99.39 2.09.57 1.07.26 2.3.33 1.18.14 2.58.12 4.25-.02 1-.03 1.72-.08.82-.04 1.43-.11 1.37-.13 2.2-.42 1.06-.26 2.06-.8 1.07-.46 2.54-1.32 1.87-1 3.3-2.27 1.58-1.17 2.76-2.67 1.32-1.39 2.29-3.14 2.97-5.3.56-1.19.8-2.03.35-1 .45-2.02.19-1.05.19-2.5.04-.68.04-1.54.02-2.63v-1.02l-.02-1.75-.01-.83-.06-1.45-.08-1.38-.35-2.21-.23-1.07-.76-2.11-.22-.55-.54-1.22-.99-2.05-.95-1.93-2.21-3.41-1.17-1.64-2.69-2.87-1.41-1.38-3.21-2.39-5.48-3.08-1.21-.57-2.05-.81-1-.35-2.04-.44-1.08-.19-2.6-.18-.71-.03-1.63-.04-2.8-.01Z"
    fill="rgba(88,250,246,1)" />
  <path
    d="m187.47 26.55-1.7-.26-2.99-.6-1.43-.32-2.41-.69-1.13-.35-1.8-.76-1.94-1.22-.09-.07.03-.25.05-.14.28-.35.34-.38 1.3-.97.74-.52 1.93-1.14 3.35-1.71.82-.38 1.7-.6.87-.27 1.9-.4 1-.17 2.26-.22 3.95-.17 1.7-.02 2.63.07 1.22.05 2 .3.98.19 1.86.62 3.14 1.4 1.76.86 3.07 1.94 1.43.97 2.16 1.92.47.46.72.87.31.42.38.75.14.36-.01.59-.48.67-.26.17-1.25.25-.73.11-2.05.16-1.1.07-2.64.06-1.37.02-3.02-.02-3.09-.05-6.46-.36-1.58-.1-2.97-.28-1.44-.15Z"
    fill="rgba(254,254,254,1)" />
</svg>