<svg id="logo-sena-svg" xmlns="http://www.w3.org/2000/svg" style="enable-background:new 0 0 1000 1000" xml:space="preserve"
    viewBox="10.57 20.48 980.67 956.45">
      <title>Logo SENA</title>
    <path
        d="M504.2 20.5c-58.3.1-105.6 47.4-105.5 105.8.1 58.3 47.4 105.6 105.7 105.6 58.3 0 105.6-47.3 105.6-105.7v-.2c-.1-58.4-47.4-105.6-105.8-105.5zM155.6 264.6c-18.6.1-37.5 1.1-55.2 5.6-11.7 3-23 7.8-30.3 15.4-9.2 9.5-10.4 22.3-5.9 33.3 4 9.7 14.8 16.9 26.8 21.1 25.9 8.9 54.6 10.7 81.8 16.3 5 1.2 10.6 2.6 13.7 6 3.2 4.1 1.3 9.7-4 12.2-8.8 4.5-20.1 4.5-30.4 4.4-9.4-.4-19.7-1.2-27.2-5.9-5.5-3.4-6.5-9.1-5.2-14.1H59.1c-.2 9.2 1.6 18.9 8.4 26.8 5.6 6.8 14.8 11.5 24.6 14.4 15.7 4.6 32.7 6 49.4 6.4 22.7.4 45.8-.3 67.6-5.4 13-3.2 25.8-8.3 34.1-16.6 14.8-14.8 11.3-38.3-8.3-49.8-9.8-5.7-21.5-9.2-33.4-11.5-17.5-3.6-35.3-6.3-52.9-9.2-6.2-1.2-12.8-2.3-18-5.2-5.5-2.9-5.9-9.8-.3-12.9 7.2-4.1 16.8-4 25.4-4 9.1.2 19 .7 26.5 5 4.2 2.3 5.9 6.3 5.9 10.1l57.6-.1c-.2-7.3-1.6-14.9-6.9-21.2-6.2-7.8-17.1-12.7-28.3-15.5-17.7-4.6-36.4-5.5-54.9-5.6zm125 4.3v137.7h168.1v-30H342.3v-26.7h94.9v-29.3h-94.9v-21.9h102.6l-.1-29.7-164.2-.1zm276.9.1h-77.9v137.7h59V314l80.8 92.6 81 .1V269h-59.1l.1 92-83.9-92zm248.1.2S742 361.1 710 406.9h61.9l14.9-24.8h95.7l13.9 24.9h68.8L874 269.2h-68.4zm31 32.9L866 352l-60.7.1 31.3-50zm-826 143.5.5 75 280.1-1c14.3 3.1 22.6 12.4 19.7 33.5L138.6 854.7l56.1 52.5 266.9-461.6h-451zm534.6.6 262.4 459.6 58-52.1-174.3-300.8c-2.9-21.2 5.4-30.6 19.7-33.7l280.2 1-.1-73.7-445.9-.3zm-44.3 76.1L254.8 944.7l65.4 31.9L484.4 699c5.7-4.6 11.4-7.1 17.1-7.3 6-.2 12.2 2 18.3 6.8l163.8 278.4 67.4-35.2-250.1-419.4z"
        style="fill:#70b22d"></path>
</svg>