<svg id="logo-logicmark-svg"  xmlns="http://www.w3.org/2000/svg" preserveAspectRatio="x200Y200 meet" viewBox="0.17 1.03 2468.85 423.83">
    <title>Logo LogicMark</title>
    <path
        d="m201.57 192.58.69.14 1.71.5 3.21.99 1.67.52 3.84 1.21 2 .63 4.4 1.4 2.26.72 4.84 1.55 2.47.8 5.18 1.67 5.24 1.69 10.99 3.58 5.51 1.8 10.86 3.56 2.66.87 5.15 1.7 2.53.84 4.8 1.59 2.35.78 4.34 1.45 2.11.7 3.77 1.27 1.81.61 3.09 1.05 1.45.49 2.29.8 1.04.36 1.38.51.29.1.38.16.27.13.06.06v.44l-.02.28-.14.84-.09.47-.27 1.2-.15.63-.39 1.5-.42 1.57-1.12 3.85-2.04 6.45-.38 1.13-.96 2.94-.51 1.57-1.21 3.69-.63 1.93-1.41 4.31-.73 2.22-1.56 4.78-.79 2.43-1.66 5.1-.84 2.58-1.72 5.27-5.13 15.76-.9 2.8-1.72 5.22-.85 2.55L279 313l-.77 2.27-1.4 4.09-.68 1.96-1.22 3.43-.58 1.63-1.01 2.71-.47 1.27-.78 1.94-.36.87-.52 1.11-.49.68-.17-.01-.74-.19-.42-.12-1.15-.39-1.22-.42-3.02-1.21-3.72-1.56-6.91-3.46-3.38-1.8-6.34-4.02-3.12-2.09-5.93-4.7-8.61-7.92-1.76-1.77-3.35-3.73-1.64-1.89-3.1-3.95-1.52-2-2.84-4.14-1.39-2.1-2.58-4.33-1.25-2.18-2.3-4.49-1.11-2.26-2.01-4.63-.96-2.33-1.71-4.75-2.2-7.24-.3-1.1-.49-1.95-.24-.95-.38-1.77-.36-1.76-.45-3.59-.09-.96-.13-2.12-.06-1.11-.09-2.54-.03-1.34-.05-3.11-.03-5.48-.01-1.74.01-3.12.01-1.5.04-2.69.02-1.29.08-2.32.05-1.12.12-2.02.13-1.95.4-3.28.85-4.47.33-1.39.54-2.27.26-1.05.47-1.63.24-.75.52-1.07.27-.47.66-.58.35-.23.91-.15.5-.03m-30.91 18.95.17.06.31.46.14.31.23 1.18.05.35.1.9.05.48.08 1.18.04.63.07 1.5.03.8.06 1.87.03.98.04 2.27.03 1.19.03 2.71.02 1.42.03 3.19.01 1.66.02 3.71.01 1.92.02 4.27v2.21l.01 4.87v2.51l.01 5.5V325H57v-6.08l.23-3.57.15-1.82.52-3.86.29-1.95.78-4.04.42-2.03 1.01-4.13 1.07-4.13 2.74-8.14.72-1.99 1.58-3.83 2.52-5.43 1.77-3.52 4.09-6.71 2.12-3.3 4.74-6.23 2.45-3.06 5.34-5.72 2.74-2.79 5.88-5.14 3-2.5 6.36-4.53 3.24-2.18 6.78-3.86 3.44-1.84 7.15-3.15 11.07-3.86 1.15-.33 2.68-.66 1.39-.32 3.02-.62 3.06-.6 6.28-.98 1.52-.22 2.84-.34 1.36-.15 2.39-.19 1.12-.07 1.73-.01M34.92 225.4l-.44-.65-.05-.17-.34-.99-.2-.6-.59-1.79-.32-.98-.81-2.48-.43-1.32-1-3.06-.52-1.6-1.16-3.56-.59-1.83-1.28-3.95-1.31-4.02-2.84-8.78-1.44-4.44-2.91-9.02-1.44-4.46-2.72-8.44-.66-2.03-1.23-3.83-.6-1.86-1.09-3.4-.34-1.05.84 2.57.84 2.61 1.73 5.32.9 2.78 3.67 11.35 1.87 5.78 2.74 8.46 1.74 5.4.83 2.55 1.6 4.96.74 2.28 1.43 4.42.64 1.96 1.21 3.74.52 1.58.96 2.96.37 1.14.35 1.08.15.45.27.84.11.32.19.58.06.18.1.31.02.04.43.65.41.22.9.36-.9-.36m855.9-35.22.31-1.85.57-2.58m150.58-27.08 1.69 5.61.38 1.42.68 2.27.32 1.04.56 1.47.27.63.41.62.45-.07.18-.45.2-1.26v5.33l.02 10-1.35-9.5-2.16-11.13-1.86-6.57m-147.97 17.52-.6 2.34-.74 3.02.2-.91.97-4.04 1.26-4.09m2.44-7.26-1.48 4.18.1-.34 1.22-3.65.88-2.13M97.89 131.22l3.27 2.13 6.19 4.72 3.03 2.44 5.67 5.3 2.76 2.73 5.07 5.84 6.87 9.32-6.87-9.32-5.07-5.84-2.76-2.72-5.67-5.31-3.03-2.44-6.19-4.72-3.27-2.13-5.72-3.54m811.05 25.44-1.85 3.73-.87 1.96-1.17 2.78 1.36-3.27 1.47-3.29 1.12-2.02m137.41.57.72 1.72.67 1.89-.91-2.37-1.84-4.36m-132.08-4.36-1.04 1.71-.98 1.67.27-.48 1.73-2.93.72-.99m5.04-6.77-.17.2.29-.37.14-.14M.69 118.71l.05.3.25 1.45.25 1.01.56 2.18.37 1.28.8 2.68.47 1.44.43 1.28.34 1.05.2.62.89 2.73.55 1.69.26.79-.03-.1-.74-2.15-1.35-3.66-.32-.85-.57-1.46-.28-.7-.49-1.12-.23-.51-.37-.73-.4-.59-.45-.36-.54-1.37-.16-2.71.08-.79.25-1.1.17-.49m919.02 12.8.12-.12.12-.09m103.87-1.71.23.22-.65-.57m-9.2-6.57 1.47.87 2.26 1.51-3.8-2.41m-68.77-5.94-5.46 2.05-3.5 1.54-1.68.85-2.83 1.52 1.12-.74 1.54-.89 3.34-1.58 1.71-.77 3.68-1.33 1.87-.63.76-.21m60.53 2.31 3.19 1.44 1.56.75.61.33-1.65-.8-4.71-2.11m-9.28-2.97 2.47.69-2.81-.76m-971.83-1.58-5.5.45-2.53.3-4.88.63-2.07.37-.71.13.36-.1 3.09-.55 1.65-.26 3.89-.45 2.02-.21 4.42-.33 2.24-.15.6-.02m27.9.56 3.88.69h.02L54.5 114l-.23-.03m930.58-.67 1.8.24-2.81-.33m-21.11-.04 1.37-.14 1.18-.07m7.76-.25-4.15.06 2.1-.08m76.88 38.76-.01 6.76-.01 3.1-.01 3.05v1.34l-.01-.66-.01-.76-.01-1.89-.01-1v-2.31l-.01-1.21V153.82l.01-2.97.04-9.6.16-24.25-.09 24.25Z"
        fill="rgba(74,197,199,1)"></path>
    <path
        d="m975.56 112.71 4.99.25 2.48.16 4.81.56 2.37.32 4.47.89 6.17 1.68 3.27 1.09 6.02 2.69 2.92 1.43 5.33 3.38 2.58 1.77 4.65 4.07 2.23 2.12 3.97 4.77 1.89 2.47 3.29 5.46 1.56 2.83 2.61 6.17 1.22 3.17 1.95 6.88 2.16 11.13 1.35 9.5-.02-10v-3.48l.01-2.32v-5.34l.01-3.05.01-3.1.01-6.76.04-10.2.09-24.25h55v120.27l-.01 4.13-.01 7.92v3.91l-.02 7.46-.01 3.67-.02 7-.01 3.44-.03 6.53-.01 3.2-.04 6.05-.01 2.96-.04 5.57-.02 2.72-.04 5.07-.03 2.48-.05 4.57-.02 2.23-.06 4.07-.02 1.97-.06 3.56-.03 1.72-.07 3.04-.03 1.46-.07 2.52-.04 1.2-.07 1.99-.04.93-.08 1.45-.13 1.58-.37 3.33-1.13 6.4-.62 3.16-1.62 6.04-.88 2.97-2.1 5.66-1.12 2.78-2.59 5.27-1.35 2.59-3.05 4.88-1.59 2.39-3.51 4.49-1.81 2.19-3.96 4.07-2.03 1.99-4.4 3.66-2.25 1.77-4.82 3.24-2.46 1.56-5.24 2.8-2.67 1.35-5.64 2.36-2.87 1.12-6.04 1.91-3.07.9-6.43 1.46-3.25.67-6.8.99-3.45.44-7.16.52-11.15.23-1.51-.01-3.35-.1-1.69-.06-3.39-.17-1.67-.08-3.05-.21-1.44-.11-2.3-.24-2.04-.23-4.21-.71-2.12-.39-4.31-.98-4.32-1.05-8.57-2.81-2.11-.75-4.09-1.64-2.02-.84-3.85-1.8-1.89-.91-3.51-1.93-4.82-3-2.74-1.88-5.23-4.43-2.56-2.32-4.75-5.18-2.3-2.67-4.12-5.76-5.31-9.1-.89-1.77-1.74-4.19-.84-2.13-1.48-4.35-.34-1.06-.59-2.03-.28-.99-.44-1.81-.2-.87-.26-1.51-.17-1.82v-.41l-.03-.67.01-.31.16-.51.12-.25.59-.42.38-.2 1.26-.39.74-.2 2.18-.44.61-.11 1.44-.24.76-.13 1.75-.28.92-.14 2.1-.32 1.09-.17 2.47-.36 1.28-.2 2.87-.42 4.8-.71 1.8-.27 3.23-.48 1.56-.23 2.77-.42 1.34-.2 2.36-.35 1.13-.17 1.98-.28.94-.13 1.63-.21.77-.1 1.32-.14.63-.06 1.04-.07.49-.02.8.01.74.02.93.28.39.17.42.59.17.33.21.91.37 1.73.5 1.95 1.23 3.57.65 1.73 1.58 3.21.83 1.56 1.95 2.92 3.38 4.11 1.11 1.18 2.29 2.13 1.16 1.02 2.43 1.83 1.23.87 2.59 1.54 1.31.73 2.79 1.25 1.42.6 3.01.99 1.54.46 3.26.74 1.67.34 3.56.5 5.69.49 3.39.19 6.33-.21 3.08-.2 5.71-.98 2.77-.58 5.09-1.76 2.47-.97 4.47-2.53 2.15-1.37 3.86-3.3 1.85-1.75 3.24-4.09 1.54-2.14 2.63-4.86 3.25-8.17.19-.57.31-1.25.15-.65.26-1.51.12-.8.22-1.91.1-1.02.17-2.46.08-1.3.14-3.14.06-1.67.12-3.96.05-2.09.11-4.92.02-1.3.05-2.8.07-4.52.05-3.18.05-6.29.02-3.11-.02-5.97-.01-2.93-.06-5.45-.04-2.64-.12-4.7-.06-2.24-.15-3.73-.04-.87-.09-1.5-.03-.39.11.38.08.19.14.3h.05l.14-.73.08-1.15.04-.84.05-1.83.02-1.11.03-2.32-.01-1.27-.06-4.03-.1-1.97-.08-.64-.18-1.04-.13-.18-.26-.15-.17.26-.65 2.02-.25 1.98-.04 1.2v2.53l.1 1.37.25 2.77.09.55-.04.08-.03.14-.2.84-.12.5-.34 1.43-.18.77-.42 1.83-.69 2.99-.73 3.22-1.99 6.05-1.07 2.95-2.65 5.52-1.41 2.68-3.3 4.96-1.72 2.41-3.93 4.38-2.04 2.12-4.53 3.78-2.34 1.82-5.13 3.18-2.63 1.51-5.7 2.54-9.17 3.08-1.44.39-3.42.63-1.78.29-3.95.44-2.02.19-4.28.24-2.17.09-4.42.05h-2.2l-4.36-.15-2.15-.1-4.08-.35-2-.2-3.62-.54-4.69-1.02-2.03-.58-3.9-1.34-1.92-.71-3.7-1.6-1.82-.84-3.49-1.86-1.73-.96-3.29-2.13-1.62-1.09-3.1-2.38-1.52-1.23-2.89-2.64-1.42-1.36-2.7-2.9-1.32-1.49-2.49-3.16-1.22-1.62-2.3-3.43-1.12-1.74-2.09-3.69-1.03-1.88-1.89-3.96-.93-2-1.69-4.22-.83-2.14-1.5-4.48-.72-2.27-1.3-4.74-.63-2.41-1.1-5-1.43-7.81-.1-.64-.19-1.55-.09-.81-.16-1.85-.16-1.91-.23-4.56-.11-2.36-.13-5.18-.05-2.63-.03-5.44v-2.72l.07-5.33.05-2.62.17-4.85.1-2.34.28-4.02.08-.94.17-1.65.29-2.1.43-2.6 1-5.02.51-2.47 1.17-4.75.6-2.34 1.34-4.49.69-2.22 1.5-4.23.78-2.09 1.68-3.98.87-1.96 1.85-3.73.95-1.83 2.04-3.48 1.04-1.71 2.21-3.22 1.13-1.59 2.4-2.98 1.21-1.46 2.58-2.73 1.31-1.34 2.76-2.5 1.4-1.21 2.94-2.25 1.49-1.1 3.13-2.01 1.58-.98 3.32-1.78 1.68-.85 3.5-1.54 5.46-2.05 1.9-.64 4.22-1.03 2.17-.48 4.64-.71 2.36-.32 4.91-.39 2.47-.16 5.03-.07m-201.04.17 3.67.22 7.05.8 3.48.46 6.68 1.29 3.3.7 6.3 1.78 3.1.94 5.91 2.26 2.9 1.18 5.52 2.73 2.71 1.42 5.11 3.2 2.51 1.66 4.71 3.66 2.3 1.89 4.29 4.13 2.09 2.12 3.87 4.58 1.89 2.35 3.44 5.04 1.66 2.57 3.01 5.49 1.45 2.79 2.56 5.93 1.23 3.02 2.11 6.37 2.66 10.04.32 1.4.53 3.47.25 1.83.41 4.16.18 2.14.28 4.61.11 2.35.14 4.86.1 4.88-.24 9.55-.1 2.29-.3 4.27-.64 5.69-.43 2.92-1.11 5.65-.6 2.79-1.45 5.37-.77 2.65-1.78 5.09-.93 2.52-2.12 4.81-1.1 2.37-2.44 4.52-1.26 2.23-2.76 4.23-1.42 2.09-3.08 3.94-1.58 1.93-3.4 3.64-1.73 1.78-3.7 3.34-1.89 1.63-4.01 3.03-2.05 1.48-4.31 2.72-2.19 1.32-4.61 2.4-2.34 1.17-4.9 2.08-2.48 1-5.19 1.76-2.64.84-5.47 1.43-8.53 1.78-.59.1-1.38.19-.73.09-1.63.17-1.69.16-3.97.25-2.05.11-4.5.16-2.29.07-4.73.06-2.38.02-4.69-.04-2.32-.03-4.36-.13-2.11-.08-3.75-.24-1.77-.14-2.85-.34-2.15-.31-4.47-.91-2.25-.5-4.59-1.26-2.3-.66-4.6-1.57-2.29-.81-4.52-1.82-2.24-.94-4.34-2.04-2.13-1.05-4.04-2.21-1.98-1.13-3.65-2.34-4.92-3.63-1.83-1.48-3.49-3.27-1.72-1.68-3.28-3.65-1.61-1.87-3.03-3.99-1.49-2.04-2.78-4.29-1.35-2.19-2.49-4.56-1.2-2.31-2.18-4.8-1.05-2.42-1.85-4.99-2.38-7.67-.32-1.19-.54-2.07-.25-1-.4-1.86-.19-.92-.29-1.87-.14-.96-.2-2.12-.09-1.11-.12-2.59-.05-1.38-.07-3.3-.03-1.75-.03-4.23v-1.13l-.01-2.47-.01-4.05V216.44l.01-2.23v-2.17l.04-3.67.03-1.73.08-2.93.04-1.39.14-2.36.07-1.13.21-1.98.11-.96.28-1.78 1.2-5.45.72-2.86 1.69-5.5.89-2.71 2.01-5.19 1.05-2.55 2.33-4.88 1.2-2.39 2.65-4.56 1.36-2.24 2.95-4.25 1.51-2.08 3.26-3.92 1.66-1.92 3.56-3.59 1.81-1.76 3.85-3.27 1.97-1.59 4.14-2.93 2.11-1.43 4.43-2.6 2.25-1.26 4.72-2.26 2.39-1.09 5-1.92 2.53-.92 5.28-1.57 2.67-.75 5.54-1.22 2.81-.57 5.81-.88 9.02-.92 4.02-.28 7.79-.19 3.84-.03m1185.31.67 1.9.18 3.6.51 4.96.96 3.11.74 5.9 2.03 2.89 1.09 5.42 2.7 2.65 1.43 4.9 3.34 2.38 1.74 4.35 3.93 2.1 2.04 3.74 4.49 1.79 2.31 3.11 5.01 1.46 2.57 2.42 5.48 2.82 8.72.48 1.92.99 3.89.24.91.4 1.54.46 1.72.06.22.12-.13.06-.15.1-.85.06-.52.09-1.52.05-.85.08-2.16.05-1.15.07-2.75.03-1.44.06-3.29.02-1.7.04-3.78.04-6.18.1-29.25h55v208h-54.97l-.53-60.5-1.81 8.98-.57 2.85-1.49 5.38-.79 2.64-1.93 4.96-1.01 2.43-2.37 4.53-1.24 2.22-2.81 4.11-1.46 2-3.25 3.68-1.68 1.79-3.69 3.25-1.9 1.57-4.13 2.82-6.68 3.75-1.44.7-2.64 1.2-1.29.57-2.46.96-2.43.91-4.93 1.2-1.28.26-2.74.41-1.42.18-3.12.28-1.62.13-3.64.18-6.18.18-1.67.04-2.91.04-1.4.01h-3.62l-2.06-.05-1-.03-1.78-.1-1.73-.12-3-.43-1.49-.25-3.05-.72-1.71-.43-3.47-1.12-1.75-.61-3.49-1.43-1.74-.75-3.44-1.7-1.71-.87-3.31-1.92-1.63-.99-3.12-2.1-1.53-1.07-2.84-2.23-1.39-1.14-2.5-2.33-3.3-3.55-2.25-2.71-4.01-5.74-1.93-2.92-3.39-6.2-1.62-3.16-2.77-6.69-1.31-3.42-2.16-7.23-1.01-3.69-1.57-7.81-.72-3.98-.98-8.43-.42-4.29-.42-9.09.02-14.41.07-2.55.2-4.69.11-2.28.29-4.21.15-2.06.38-3.84.21-1.89.49-3.56.53-3.52 1.45-6.61 2.89-10.07 1.19-3.66 2.81-6.82 1.47-3.32 3.35-6.14 1.75-2.99 3.89-5.45 2.01-2.64 4.42-4.76 2.28-2.29 4.95-4.06 2.54-1.94 5.46-3.35 2.79-1.58 5.98-2.63 9.52-3.14 1.42-.37 3.22-.6 1.66-.28 3.61-.42 1.84-.19 3.86-.23 1.96-.1 3.99-.05h4m-600.19.19 3.35.19 6.47.69 3.2.39 6.14 1.11 3.04.61 5.82 1.52 2.87.82 5.49 1.93 2.7 1.02 5.15 2.35 2.54 1.22 4.8 2.75 2.36 1.43 4.45 3.15 2.19 1.63 4.09 3.55 2.01 1.82 3.73 3.95 1.82 2.02 3.37 4.34 1.63 2.21 2.99 4.73 1.45 2.41 2.6 5.1 1.26 2.6 2.22 5.49 2.88 8.65.35 1.19.63 2.35.3 1.16.49 2.11.23 1 .31 1.61.2 1.61V194h-53.68l-2.67-6.75-.64-1.63-1.53-3.15-.8-1.55-1.81-2.96-.95-1.46-2.07-2.75-1.07-1.34-2.31-2.51-1.19-1.22-2.51-2.23-1.28-1.08-2.68-1.93-1.37-.92-2.82-1.59-4.38-1.98-.89-.34-2.09-.59-1.09-.29-2.4-.47-2.47-.45-5.43-.51-2.74-.19-5.34.06-1.29.05-2.43.22-3.29.5-2.27.47-4.3 1.42-2.12.78-3.98 2.02-1.95 1.09-3.64 2.61-1.77 1.38-3.28 3.17-1.59 1.66-2.88 3.72-1.39 1.92-2.48 4.24-1.19 2.19-2.05 4.74-2.56 7.65-.17.59-.29 1.42-.14.74-.26 1.71-.24 1.77-.37 4.23-.16 2.2-.21 4.82-.08 2.46-.04 5.08v2.53l.13 5 .08 2.45.29 4.56.16 2.2.45 3.79.12.89.28 1.56.46 2 .78 2.8 1.95 5.21 1.04 2.53 2.44 4.64 1.28 2.25 2.91 4.07 1.51 1.95 3.36 3.47 1.73 1.65 3.79 2.84 1.94 1.34 4.19 2.2 2.15 1.02 4.57 1.54 7.27 1.54 3.16.43 6.13.09 3.03-.07 5.8-.9 2.85-.56 5.39-1.83 2.63-1.02 4.91-2.71 2.38-1.47 4.35-3.55 2.09-1.88 3.7-4.35 1.77-2.27 2.99-5.09.7-1.32 1.25-2.77 1.64-4.34 2.14-6.44h28.87l3.52-.01 1.69-.01 3.02-.02 1.45-.01H1424.49l2.13.03 1.01.02 1.73.08.82.05 1.37.15.65.09 1.03.24.48.13.74.34.34.19.47.47.21.25.24.61.19.65-.19 1.8-.17 1-.7 2.6-1.34 4.97-.38 1.52-.97 3.17-.52 1.6-1.2 3.28-1.25 3.29-3.03 6.57-1.59 3.24-3.47 6-.88 1.44-1.79 2.66-2.7 3.58-1.48 1.82-3.21 3.45-1.64 1.7-3.51 3.19-1.8 1.57-3.8 2.93-1.94 1.43-4.08 2.65-2.08 1.29-4.34 2.36-2.2 1.15-4.58 2.06-2.32 1-4.8 1.76-7.44 2.27-1.13.3-2.01.51-.98.24-1.85.4-1.84.37-3.89.48-1.05.1-2.36.16-1.24.08-2.86.11-1.51.06-3.54.08-6.24.12-1.85.03-3.37.03-1.64.01h-2.99l-1.45-.01-2.63-.04-1.28-.02-2.32-.08-1.12-.05-2.04-.11-.98-.07-1.79-.16-1.74-.17-2.88-.47-3-.56-5.76-1.39-2.85-.73-5.45-1.73-2.69-.91-5.14-2.06-2.53-1.08-4.83-2.39-2.37-1.25-4.5-2.72-2.22-1.41-4.18-3.05-2.05-1.57-3.85-3.38-1.89-1.73-3.53-3.7-1.72-1.89-3.19-4.01-1.56-2.05-2.86-4.33-1.38-2.2-2.52-4.64-1.22-2.36-2.18-4.94-1.04-2.51-1.84-5.25-.87-2.66-1.49-5.55-.7-2.81-1.13-5.85-1.31-9.09-.48-4.33-.41-8.57-.12-4.27.3-8.38.24-4.16 1.01-8.12.59-4.02 1.69-7.78.92-3.85 2.36-7.37 1.25-3.62 3-6.89 1.58-3.37 3.63-6.32 6.13-8.77 2.01-2.53 4.49-4.69 2.32-2.29 5.07-4.18 2.61-2.02 5.61-3.66 2.86-1.75 6.1-3.1 3.11-1.48 6.54-2.53 3.32-1.19 6.94-1.93 3.51-.89 7.29-1.31 11.28-1.25 3.66-.25 7.1-.16 3.5-.03m-138.58 4.86v207l-27.25.27-27.25.26V116.97M2162 325h-55V117h55m-349-95.99.02.71.01.44.04 1.37.02.76.07 1.99.03 1.06.09 2.57.04 1.36.1 3.12.06 1.62.12 3.63.06 1.88.14 4.11.07 2.11.15 4.55.08 2.33.17 4.96.09 2.52.18 5.34.09 2.7.2 5.67.1 2.88.2 5.97.21 6.04.45 12.84.7 20.12.17 5.05.34 9.71.17 4.8.32 9.2.16 4.54.3 8.7.15 4.29.29 8.21.14 4.05.27 7.75.13 3.82.25 7.29.13 3.59.23 6.84.12 3.37.22 6.43.11 3.15.21 6.01.1 2.96.2 5.61.09 2.75.18 5.23.09 2.56.17 4.86.08 2.38.15 4.5.08 2.21.14 4.16.07 2.03.13 3.84.06 1.87.12 3.52.05 1.72.11 3.22.05 1.57.1 2.94.09 2.87.16 4.94.08 2.35.12 3.99.06 1.89.09 3.16.04 1.48.07 2.44.03 1.14.04 1.83.01.85.02 1.34.02 1.58V325h-56.81l-.57-10.25-.02-.32-.05-1.2-.03-.7-.08-1.93-.04-1.05-.09-2.62-.05-1.39-.12-3.25-.06-1.7-.13-3.84-.07-1.99-.14-4.39-.08-2.25-.16-4.89-.08-2.5-.18-5.35-.09-2.72-.19-5.75-.09-2.92-.2-6.12-.1-3.1-.21-6.43-.1-3.26-.22-6.71-.21-6.76-.45-14.17-.23-7.16-.46-14.67-.47-14.73-.91-29.44-.22-7.24-.43-14.01-.11-3.45-.2-6.73-.1-3.33-.2-6.46-.1-3.19-.18-6.15-.09-3.03-.17-5.78-.09-2.84-.16-5.38-.07-2.64-.15-4.92-.07-2.41-.12-4.43-.06-2.14-.11-3.89-.06-1.88-.08-3.3-.12-4.24-.06-2.52-.13-4.55-.07-2.19-.14-3.87-.08-1.85-.15-3.21-.08-1.53-.16-2.55-.09-1.19-.17-1.89-.09-.87-.18-1.24-.1-.54-.19-.59-.31-.17-.01.02-.08.27-.05.17-.15.57-.08.32-.21.85-.11.47-.27 1.12-.28 1.19-.72 3.13-.38 1.68-.91 4-.47 2.1-1.07 4.76-.55 2.46-1.19 5.37-.61 2.76-1.3 5.87-2.02 9.24-.69 3.15-1.52 6.95-.78 3.55-1.66 7.57-.83 3.83-1.74 7.94-.87 3.99-1.77 8.07-.88 4.03-1.74 7.96-.86 3.95-1.67 7.6-.81 3.74-1.54 7.01-2.09 9.57-1.73 7.9-3.53 16.17-1.77 8.09-3.53 16.16-1.76 8.02-3.4 15.6-.84 3.84-1.64 7.47-.8 3.7-1.56 7.15-.77 3.53-1.48 6.75-.72 3.32-1.37 6.29-.67 3.08-1.26 5.75-.61 2.8-1.12 5.15-.55 2.5-.97 4.47-.47 2.15-.81 3.74-.39 1.77-.64 2.94-.74 3.41-2.76 12.75h-61.15l-4.74-.01h-2.3l-4.14-.01-2.01-.01-3.59-.01-1.73-.01-3.08-.03-1.48-.01-2.6-.03-1.25-.02-2.17-.04-1.04-.03-1.78-.05-.85-.03-1.42-.07-.67-.03-1.12-.09-1.04-.08-1.31-.23-.56-.12-.58-.29-.39-.55-.02-.06-.08-.35-.05-.21-.14-.64-.07-.35-.2-.92-.1-.49-.25-1.17-.26-1.24-.66-3.17-.35-1.7-.83-4.01-.43-2.09-.97-4.71-.49-2.44-1.08-5.28-.55-2.71-1.17-5.74-1.82-8.97-.31-1.53-.69-3.4-.36-1.75-.77-3.82-.4-1.96-.85-4.19-.43-2.14-.92-4.52-.47-2.31-.97-4.81-.5-2.45-1.03-5.07-1.04-5.12-2.2-10.83-1.12-5.48-2.29-11.3-1.16-5.67-2.32-11.44-1.16-5.7-2.29-11.23-3.32-16.28-2.14-10.52-4.34-21.35-1.08-5.27-2.09-10.27-1.03-5.06-1.95-9.64-.96-4.71-1.77-8.72-.43-2.11-.82-4-.39-1.96-.75-3.68-.36-1.79-.68-3.31-.32-1.61-.59-2.91-.29-1.41-.5-2.48-.65-3.2-.38-1.89-.74-3.64-.36-1.79-.7-3.38-.34-1.65-.63-3.05-.31-1.48-.55-2.64-.27-1.26-.46-2.15-.21-1.01-.35-1.59-.16-.71-.23-.96-.17-.62-.04-.04-.08.13-.04.11-.09.43-.04.25-.09.71-.05.4-.09 1-.05.54-.09 1.29-.05.68-.1 1.58-.05.82-.1 1.85-.05.96-.11 2.14-.05 1.1-.11 2.41-.05 1.24-.11 2.68-.06 1.38-.11 2.95-.06 1.52-.12 3.22-.05 1.65-.12 3.5-.06 1.78-.12 3.76-.37 12.28-.04 1.24-.08 2.75-.04 1.41-.09 3.09-.05 1.58-.1 3.38-.05 1.73-.11 3.65-.11 3.71-.24 8.09-.13 4.13-.27 8.73-.27 8.84-.57 18.45-.14 4.59-.28 9.04L1522 174l-.13 4.23-.28 8.87-.14 4.48-.28 9.18-.29 9.2-.56 18.2-.13 4.44-.26 8.49-.13 4.16-.23 7.72-.05 1.88-.11 3.55-.05 1.74-.1 3.27-.05 1.6-.08 2.95-.12 4.04-.14 5.02-.31 9.8-.08 2.39-.15 4.57-.08 2.24-.15 4.18-.07 2.03-.14 3.66-.07 1.75-.12 3.03-.06 1.42-.11 2.26-.14 2.4-.57 8.25H1463v-6.23l.01-.63v-.35l.02-.9.02-.96.07-2.67.04-1.44.1-3.53.05-1.86.13-4.26.07-2.21.15-4.86.08-2.49.18-5.32.09-2.71.19-5.65.3-8.7.05-1.47.11-3.19.06-1.63.12-3.49.12-3.56.28-7.87.14-4.04.29-8.63.16-4.38.31-9.1.32-9.18.64-18.6.16-4.59.3-8.88.43-12.62.13-3.68.24-7.12.12-3.52.24-6.78.11-3.35.22-6.46.11-3.19.21-6.13.11-3.04.2-5.82.1-2.88.19-5.53.09-2.72.18-5.23.09-2.58.18-4.94.08-2.43.16-4.66.08-2.29.16-4.38.15-4.31.28-7.83.13-3.79.25-6.82.12-3.29.22-5.86.1-2.82.19-4.97.09-2.37.16-4.13.08-1.96.14-3.35.06-1.57.12-2.62.06-1.22.1-1.94.04-.9.08-1.33.04-.59.06-.77.09-.59.04-.12.65-.22.43-.1 1.56-.16.45-.04 1.11-.07.59-.04 1.39-.06.73-.02 1.69-.05.89-.03 2.02-.04 1.05-.02 2.36-.03 1.22-.01 2.73-.02 1.41-.01 3.11-.02h1.6l3.52-.01h7.77l4.39.01 2.25.01 4.85.02 7.82.03 55.23.26 15.61 83.5.54 2.87 1.12 5.98.56 3.03 1.17 6.26 1.18 6.31 2.48 13.24 2.49 13.37 5.14 27.52 1.27 6.81 2.48 13.29 1.23 6.56 2.33 12.5.57 3.05 1.1 5.89.54 2.9 1.03 5.55.51 2.73.96 5.15 1.35 7.23.85 4.59 1.66 8.82.81 4.33 1.55 8.18.76 3.99 1.41 7.34.34 1.78.65 3.36.32 1.65.6 3.1.29 1.51.55 2.81.27 1.36.5 2.49.24 1.2.43 2.15.21 1.03.37 1.79.17.85.3 1.41.14.65.22 1 .1.45.15.57.12.34h.02l.09-.26.06-.17.16-.6.08-.34.22-.92.12-.49.28-1.22.14-.64.34-1.5.17-.79.38-1.76.4-1.83.93-4.38.48-2.3 1.09-5.22.56-2.7 1.22-5.92.62-3.03 1.31-6.48 2.05-10.19.49-2.46 1.03-5.16.52-2.62 1.09-5.47.56-2.77 1.14-5.74.59-2.9 1.19-5.99 1.21-6.05 2.54-12.69 1.29-6.43 2.65-13.27 2.68-13.36 5.49-27.43 1.37-6.83 2.71-13.52 1.35-6.72 2.63-13.11 1.3-6.49 2.5-12.46 1.23-6.12 2.31-11.56.57-2.82 1.09-5.43.54-2.67 1.03-5.12.5-2.52.96-4.78.47-2.34.89-4.41.43-2.15.81-4.01.39-1.95.72-3.56.34-1.73.63-3.11.3-1.49.53-2.61.25-1.23.42-2.09.19-.97.31-1.52.14-.69.2-.94.14-.71.52-2.25H1813m496.15 89.73.01 7.07.02 13.61.01 3.34.01 6.52.01 3.23.01 6.25.01 3.09.01 5.96v2.93l.01 5.62.01 2.76.01 5.24.01 2.57.01 4.83v2.37l.02 4.38v2.14l.01 3.91.01 1.89.01 3.4v1.63l.01 2.84.01 1.35.01 2.25v1.06l.01 1.63v.74l.01.97.01.69.03.41.34.53.73.17.04-.02.26-.26.17-.17.52-.55.3-.32.76-.84.41-.45.99-1.11.53-.58 1.2-1.36.63-.7 1.4-1.59.73-.83 1.59-1.81.82-.93 1.76-2.01 1.81-2.06 4.07-4.67 2.1-2.42 4.59-5.28 2.34-2.7 4.99-5.77 7.83-9.07 2.67-3.1 5.18-6.02 2.56-2.97 4.88-5.65 2.39-2.76 4.45-5.15 2.17-2.5 3.92-4.52.94-1.09 1.76-2.03.86-.98 1.59-1.83.77-.89 1.4-1.6.68-.78 1.2-1.37.57-.66.99-1.12.46-.53.76-.85.34-.39.51-.57.48-.51 2.7-2.77 64.35.53-7.21 8.04-2.81 3.13-5.48 6.12-2.72 3.04-5.29 5.91-2.62 2.93-5.08 5.68-2.51 2.81-4.83 5.42-2.39 2.68-4.57 5.13-2.25 2.53-4.29 4.83-2.1 2.37-3.98 4.48-1.95 2.2-3.64 4.13-1.78 2.01-3.29 3.73-1.6 1.82-2.91 3.31-1.41 1.61-2.51 2.87-1.2 1.38-2.09 2.41-.99 1.14-1.64 1.92-.77.89-1.17 1.39-.52.63-.68.85-.44.63-.01.04.23.37.15.23.56.72.31.4.86 1.06.46.57 1.15 1.37.61.73 1.42 1.67.74.87 1.67 1.95.87 1.01 1.91 2.21.98 1.14 2.14 2.45 1.09 1.26 2.34 2.67 1.19 1.36 2.53 2.88 2.58 2.93 5.64 6.38 2.9 3.26 6.18 6.95 9.75 10.9 48.56 54.1h-67.92l-45.29-52.97-2.17-2.53-4.05-4.74-1.99-2.32-3.7-4.31-1.8-2.1-3.36-3.9-1.64-1.9-3.02-3.5-1.48-1.7-2.71-3.12-1.32-1.51-2.4-2.75-1.17-1.33-2.12-2.4-1.02-1.15-1.84-2.06-.89-.99-1.58-1.74-.75-.83-1.33-1.42-.63-.68-1.09-1.13-.52-.53-.87-.86-.4-.39-.66-.59-.3-.27-.46-.34-.21-.14-.28-.11-.22.09-.02.06-.05.38-.02.23-.05.72-.02.4-.04 1.03-.02.56-.05 1.33-.02.7-.04 1.62-.02.84-.04 1.87-.04 1.94-.07 4.59-.03 2.4-.06 5.4-.03 2.79-.05 6.07-.02 3.11-.03 6.6-.03 10.33L2309 325h-55.01l.51-319.5 54.5-.53M508 279h135v46H533.38l-4.32-.01h-8.02l-3.9-.01-7.23-.01-3.52-.01-6.47-.02-3.14-.01-5.75-.02-2.79-.01-5.06-.03-2.45-.02-4.42-.04-2.12-.02-3.8-.04-1.82-.03-3.22-.05-1.53-.03-2.67-.06-1.27-.03-2.16-.07-1.01-.04-1.68-.08-.79-.04-1.24-.09-.56-.04-.84-.1-.37-.05-.46-.11-.18-.06-.13-.12-.01-.04-.04-.88-.01-.56-.03-1.87-.01-1.06-.03-2.82-.01-1.53-.02-3.72-.01-1.97-.02-4.56-.01-2.38-.02-5.36-.01-2.77-.01-6.1-.01-3.13-.01-6.78v-3.47l-.01-7.42v-3.78l-.01-8v-30.49l.01-9.43v-4.77l.01-9.8.01-4.94.01-10.13.02-15.49.26-152 28.75-.27 28.75-.26m1452.8 138.11-4.84.36-1.17.12-2.17.32-2.93.61-2.23.58-4.21 1.56-2.06.84-3.85 2.06-1.87 1.1-3.48 2.56-1.69 1.35-3.1 3.05-1.5 1.59-2.7 3.52-1.31 1.83-2.3 3.99-1.1 2.06-1.89 4.45-2.37 7.17-.95 3.52-1.3 7.2-.55 3.61-.5 7.26-.16 3.61.27 7.14.23 3.55 1.01 6.87.6 3.38 1.72 6.44.95 3.15 2.41 5.84 1.28 2.83 3.07 5.08.8 1.21 1.73 2.27 2.77 3.11 1.97 2 4.18 3.29 2.15 1.54 4.75 2.45 1.23.57 2.61 1 1.34.48 2.84.83 1.45.4 3.1.67 4.97.86 1.14.17 1.9.19.92.07h1.85l.96-.03 2.28-.22.62-.07 1.41-.18.73-.1 1.69-.24 2.02-.29 4.29-1.13 2.16-.65 4.32-1.73 2.13-.93 3.99-2.18 5.21-3.59.77-.63 1.56-1.51.78-.8 1.55-1.81 1.55-1.88 2.98-4.47 1.45-2.33 2.62-5.1 3.3-7.99.39-1.15.66-1.95.3-.93.49-1.65.46-1.61.52-3.16.1-.85.15-1.91.06-1.01.07-2.39.03-1.27.03-3.04.02-5.51v-1.85l-.01-3.19-.01-1.52-.04-2.62-.03-1.24-.09-2.16-.05-1.03-.14-1.83-.16-1.76-.54-3.02-1.2-4.74-.74-2.57-1.81-4.82-.96-2.35-2.23-4.38-1.16-2.13-2.63-3.92-1.36-1.9-3.01-3.44-1.55-1.66-3.36-2.94-1.73-1.41-3.71-2.42-1.89-1.14-4.03-1.88-6.39-2.19-.85-.23-1.96-.36-1.02-.17-2.24-.25-2.28-.22-4.99-.09M758.33 156l-5.97.68-2.92.45-5.47 1.56-2.66.89-4.94 2.43-2.4 1.32-4.38 3.26-2.12 1.74-3.79 4.09-1.82 2.14-3.19 4.89-1.52 2.54-2.55 5.66-3.08 9.35-.29 1.1-.5 2.74-.24 1.44-.4 3.28-.19 1.69-.3 3.63-.13 1.84-.18 3.8-.14 3.81.08 7.34.05 1.75.22 3.19.48 4.16.33 2.03.87 3.97.47 1.96 1.14 3.8.6 1.88 1.39 3.59.73 1.77 1.62 3.36.84 1.64 1.84 3.08.95 1.5 2.03 2.76 1.04 1.34 2.21 2.41 3.49 3.17 1.81 1.45 3.57 2.32 1.81 1.08 3.92 1.72 1.03.4 2.19.72 1.13.35 2.45.64 1.26.31 2.75.57 4.55.82.43.07 1.2.07.64.03 1.55-.01 1.61-.02 3.83-.26 1.95-.16 3.86-.48.93-.13 1.72-.28.83-.15 1.45-.32 2.11-.5 4.01-1.43 1.97-.79 3.71-1.99 1.82-1.06 3.4-2.52 1.66-1.33 3.07-3.03 1.49-1.58 2.72-3.54 1.32-1.82 2.34-4.01 1.13-2.06 1.96-4.46 2.48-7.19.51-1.74.71-3.02.31-1.52.38-3.32.08-.9.12-2.01.05-1.06.07-2.43.03-1.28.03-2.98.02-5.2v-2.47l-.06-4.32-.04-2.07-.16-3.65-.1-1.75-.29-3.13-.17-1.52-.46-2.77-.51-2.72-1.63-5.04-.47-1.28-1.14-2.67-2.01-4.31-1.09-2.23-2.5-4.06-1.3-1.97-2.91-3.53-1.5-1.69-3.31-2.99-1.71-1.43-3.69-2.43-1.89-1.15-4.06-1.88-2.08-.87-4.41-1.31-2.26-.58-4.75-.74-7.5-.44m232.81 0-6 .68-2.94.45-5.49 1.57-2.67.9-4.94 2.44-2.4 1.33-4.38 3.29-2.12 1.75-3.79 4.14-1.82 2.17-3.19 4.95-1.51 2.57-2.56 5.75-3.11 9.51-.32 1.23-.52 3.04-.24 1.59-.36 3.62-.16 1.87-.2 3.99-.09 2.03-.04 4.18-.01 2.09.11 4.15.08 2.06.27 3.93.16 1.92.43 3.5.82 4.55.62 2.64 1.62 4.97.87 2.43 2.12 4.53 1.11 2.21 2.57 4.06 1.34 1.96 3.01 3.56 1.55 1.72 3.42 3.03 1.75 1.44 3.8 2.47 1.94 1.17 4.14 1.88 6.59 2.13.99.23 2.16.39 1.12.17 2.37.26 2.4.22 5.1.08 2.56-.03 4.96-.42 1.21-.14 2.28-.36 1.11-.2 2.05-.48 1.51-.4 2.89-.97 1.42-.52 2.73-1.21 1.34-.64 2.56-1.46 1.25-.76 2.39-1.69 1.17-.87 2.21-1.92 1.08-.99 2.03-2.14 1-1.09 1.84-2.36.9-1.2 1.67-2.57.81-1.31 1.47-2.78.71-1.41 1.28-2.97.62-1.51 1.09-3.17.51-1.61.89-3.36.42-1.7.68-3.54.32-1.8.48-3.72.21-1.88.27-3.89.16-6.03v-1.94l-.08-3.58-.06-1.75-.21-3.24-.12-1.58-.35-2.98-.2-1.46-.51-2.79-.55-2.75-1.64-5.27-3.39-8.12-1.1-2.3-2.52-4.2-1.32-2.03-2.94-3.65-1.52-1.76-3.34-3.09-1.72-1.48-3.73-2.52-1.91-1.19-4.1-1.94-2.09-.9-4.46-1.36-2.27-.6-4.8-.76-7.56-.46M2013 254l-.66.67-.26 1.07-.03.81v1.79l.1 1.13.26 2.39.23 1.39.37 1.97.18.68.17.61.08.19.14.3h.05l.14-.51.09-.81.03-.59.06-1.29.02-.78.03-1.63v-.89l-.08-2.56-.12-1.48-.09-.59-.2-1.05-.12-.32-.25-.5m.28-81.75-.31.78-.2.94-.09.63-.35 2.86-.12 1.63-.18 3.3-.01 1.36.02 1.28.04.49.09.85.08.22.28.67.12.22.24.36.1.06.2.05.08-.11.16-.29.06-.27.12-.62.05-.44.08-.98.03-.61.05-1.33.02-.8.02-1.68v-.99l-.05-3.12-.07-1.79-.05-.68-.12-1.23-.07-.34-.14-.5M2224 171h-32.63l-2.45-.01h-1.19l-2.17-.02h-1.05l-1.9-.02-1.83-.02-2.95-.06-1.36-.04-2.11-.1-.96-.06-1.41-.15-.63-.08-.86-.2-.37-.11-.45-.27-.19-.14-.17-.34-.14-.36-.1-1.12-.02-.62.11-1.55.09-.81.31-1.88.17-.97.48-2.1.52-2.14 1.43-4.51 2.55-6.32.99-2.09 2.52-3.99 1.34-1.96 3.11-3.69 1.62-1.79 3.58-3.3 1.84-1.6 3.95-2.84 2-1.35 4.19-2.3 2.12-1.07 4.32-1.68 2.16-.75 4.33-.99 6.39-.6h4.82M1169.23 25.23l27.23.27-.31 4.37-.2 2.7-1.07 5.31-.65 2.63-1.91 5.09-1.05 2.5-2.66 4.77-1.42 2.33-3.33 4.35-1.74 2.11-3.92 3.83-2.02 1.84-4.42 3.2-2.27 1.51-4.84 2.49-7.65 2.79-1.77.49-3.34.76-1.61.34-2.8.45-1.29.18-1.94.09h-.41l-.62-.08-.27-.05-.3-.18-.04-.04-.09-.64-.04-.4-.08-1.29-.04-.72-.07-1.88-.04-1-.06-2.38-.03-1.24-.05-2.82-.02-1.45-.04-3.17-.05-10.47V24.97m613.62-1.93-.22.23-.19.79.16.73.21.34.53.77h.18l.33-.25.17-.51.11-1.03-.14-.59-.15-.2-.34-.32-.21-.02Z"
        fill="rgba(74,79,84,1)"></path>
    <path
        d="m1047.43 252.89.13.18.18 1.04.08.64.1 1.97.06 4.03.01 1.27-.03 2.32-.02 1.11-.05 1.83-.04.84-.08 1.15-.14.73h-.05l-.14-.3-.08-.19-.17-.61-.18-.68-.37-1.97-.23-1.38-.25-2.77-.1-1.37v-2.53l.04-1.2.25-1.98.65-2.02.17-.26m966.22 1.76.12.32.2 1.05.09.59.12 1.48.08 2.56v.89l-.03 1.63-.02.78-.06 1.29-.03.59-.09.81-.14.51h-.05l-.14-.3-.08-.19-.17-.61-.18-.68-.37-1.97-.23-1.39-.26-2.39-.1-1.13v-1.79l.03-.81.26-1.07.66-.67h.14M43.47 113.06l4.87.25 1.16.08 2.13.21 2.87.4 3.87.68 7.61 1.96 3.77 1.08 7.35 2.72 3.64 1.45 7.04 3.43 3.47 1.8 6.64 4.1 3.27 2.13 6.19 4.72 3.03 2.44 5.67 5.31 2.76 2.72 5.07 5.84 6.87 9.32.83 1.26 1.66 2.76.83 1.41 1.61 2.93 1.59 2.94 2.7 5.72.62 1.36 1.01 2.48.47 1.19.68 2.01.29.93.26 1.38-.15 1.18-.04.04-.36.16-.23.1-.73.28-.4.15-1.07.39-.58.21-1.39.49-.73.25-1.68.58-.87.31-1.95.66-2.01.69-4.72 1.59-2.46.82-5.47 1.83-2.81.93-6.03 1.99-3.06 1.02-6.38 2.09-3.21 1.06-6.54 2.13-3.27 1.07-6.5 2.11-3.23 1.05-6.26 2.02-3.08.99-5.83 1.87-2.84.91-5.2 1.65-2.5.79-4.37 1.37-1.03.32-1.87.58-.9.28-1.6.49-.76.23-1.3.38-.61.18-.97.28-.45.12-.62.16-.52.1-.49.01-.9-.36-.41-.22-.43-.65-.02-.04-.1-.31-.06-.18-.19-.58-.11-.32-.27-.84-.15-.45-.35-1.08-.37-1.14-.96-2.96-.52-1.58-1.21-3.74-.64-1.96-1.43-4.42-.74-2.28-1.6-4.96-.83-2.55-1.74-5.4-2.74-8.46-1.87-5.78-3.67-11.35-.9-2.78-1.73-5.32-.84-2.61-1.59-4.89-.77-2.38-1.4-4.31-.67-2.07-1.17-3.59-.55-1.69-.89-2.73-.2-.62-.34-1.05-.43-1.28-.47-1.44-.8-2.68-.37-1.28-.56-2.18-.25-1.01-.25-1.45-.05-.3-.02-.43.08-.35.27-.23.89-.47.5-.22 1.32-.44.7-.21 1.68-.41.89-.21 2-.37 2.07-.37 4.88-.63 2.53-.3 5.5-.45 2.79-.21 5.69-.25 2.84-.1 5.49-.02m1972.85 59.63.07.34.12 1.23.05.68.07 1.79.05 3.12v.99l-.02 1.68-.02.8-.05 1.33-.03.61-.08.98-.05.44-.12.62-.06.27-.16.29-.08.11-.2-.05-.1-.06-.24-.36-.12-.22-.28-.67-.08-.22-.09-.85-.04-.49-.02-1.28.01-1.36.18-3.3.12-1.63.35-2.86.09-.63.2-.94.31-.78.08-.08M1756.27 23l.34.32.15.2.14.59-.11 1.03-.17.51-.33.25h-.18l-.53-.77-.21-.34-.16-.73.19-.79.22-.23.44-.06Z"
        fill="rgba(97,102,152,1)"></path>
    <path
        d="m255.92 68.19.22.12.68.42.37.24.98.64.52.34 1.24.84.65.45 1.5 1.03.77.53 1.72 1.2 1.78 1.24 4.14 2.93 2.15 1.53 4.78 3.41 2.45 1.76 5.23 3.77 2.66 1.91 5.53 4 2.78 2.02 5.64 4.11 2.82 2.05 5.59 4.09 2.77 2.03 5.36 3.94 2.63 1.94 4.97 3.68 2.41 1.79 4.39 3.28 2.11 1.58 3.65 2.76.86.65 1.55 1.18.74.57 1.31 1.02.62.48 1.03.82.48.39.75.62.34.28.44.4.29.33.02.09-.16.4-.11.22-.4.63-.23.34-.62.84-.34.44-.82 1-.86 1.05-2.19 2.47-3.79 4.04-2.21 2.29-4.56 4.22-2.3 2.05-4.73 3.78-2.39 1.83-4.92 3.32-2.48 1.61-5.12 2.89-2.58 1.38-5.31 2.45-2.69 1.17-5.52 2.02-2.79.95-5.74 1.59-8.86 1.9-.97.17-2.51.29-1.34.14-3.1.24-1.6.1-3.48.17-1.76.07-3.62.09-1.82.04-3.56.02h-1.76l-3.29-.06-1.59-.05-2.8-.14-1.32-.09-2.1-.23-.77-.11-1.8-.33-.94-.18-2.08-.45-2.14-.48-4.75-1.26-2.4-.66-4.77-1.47-6.45-2.26-1.25-.48-2.68-1.17-1.35-.62-2.78-1.37-2.76-1.4-5.15-2.99-1.21-.73-2.11-1.38-.99-.67-1.57-1.19-.7-.57-.87-.9-.34-.93.1-.18.38-.58.21-.33.59-.87.32-.47.79-1.13.42-.6.97-1.37.5-.72 1.14-1.6.59-.83 1.3-1.81 1.33-1.85 3.06-4.23 1.59-2.2 3.48-4.79 1.79-2.45 3.79-5.19 3.85-5.26 8.11-11.02 2.02-2.75 4.01-5.41 1.98-2.68 3.84-5.18 1.88-2.54 3.56-4.76 1.73-2.32 3.15-4.2 1.51-2.01 2.63-3.48.62-.81L251 73.6l.54-.71.95-1.23.45-.58.76-.97.36-.46.57-.69.25-.32.35-.4.26-.24h.06Z"
        fill="rgba(178,210,55,1)"></path>
    <path
        d="m151.24 155.25-.25-.32-.63-.81-.33-.44-.8-1.06-.83-1.11-2.12-2.85-1.12-1.53-2.63-3.57-1.37-1.86-3.04-4.16-1.56-2.14-3.35-4.6-1.7-2.34-3.57-4.91-3.59-4.96-7.41-10.27-1.84-2.55-3.61-5.01-1.79-2.48-3.42-4.77-1.68-2.35-3.15-4.39-1.52-2.14-2.77-3.88-1.32-1.87-2.29-3.23-1.07-1.52-1.71-2.44-.39-.56-.64-.94-.31-.44-.47-.7-.21-.31-.27-.44-.19-.34-.04-.13.56-.69.39-.42 1.42-1.27.41-.36 1-.83.52-.43 1.22-.98.63-.51 1.45-1.14.75-.59 1.69-1.3.87-.67 1.91-1.46.99-.75 2.16-1.62 1.11-.83 2.4-1.8 1.24-.91 2.65-1.97 1.35-1 2.91-2.13 1.48-1.09 3.16-2.32 1.61-1.17 3.41-2.49 5.42-3.94 2.96-2.15 5.76-4.17 2.83-2.05 5.42-3.91 2.65-1.91 4.94-3.56 2.4-1.72 4.35-3.12 2.09-1.49 3.63-2.58.85-.61 1.56-1.1.75-.54 1.33-.93.64-.45 1.09-.76.52-.36.84-.58.38-.26.57-.38.53-.34.74-.41 1.01-.5.46-.2.67-.02.31.05.62.5L182.03 3l.52.65 1.22 1.93.65 1.05 1.42 2.59.72 1.36 1.52 3.05.77 1.57 1.54 3.32 1.52 3.36 2.71 6.68.62 1.61 1.05 2.96 1.19 3.87.76 2.86 1.18 5.83.54 2.92.74 5.92.32 2.96.31 5.95.1 2.97-.14 5.92-.11 2.96-.57 5.84-.34 2.91-.99 5.71-.55 2.83-1.43 5.52-2.61 8-1.25 3.32-2.93 6.48-1.52 3.21-3.44 6.2-1.78 3.05-3.9 5.8-6.29 8.15-.52.61-1.41 1.5-.76.79-1.78 1.76-1.85 1.79-4.08 3.72-1 .89-1.89 1.63-.91.78-1.6 1.3-.74.59-1.14.81-1.02.52h-.09l-.41-.3-.24-.19-.62-.61-.66-.68Z"
        fill="rgba(251,201,47,1)"></path>
</svg>