<svg xmlns="http://www.w3.org/2000/svg" viewBox="12.62 290.27 1209.2 265.9">
    <path
        d="m126.118 555.481-3.52-.694-6.853-1.675-3.401-.88-6.583-2.064-3.266-1.083-6.329-2.437-3.131-1.269-6.024-2.809-2.995-1.455-5.737-3.164-2.843-1.641-5.432-3.503-2.691-1.811-5.11-3.841-2.521-1.98-4.789-4.163-2.369-2.132-4.45-4.501-2.183-2.284-4.095-4.789-1.997-2.437-3.74-5.093-1.811-2.589-3.367-5.381-1.624-2.707-2.978-5.652-1.438-2.86-2.572-5.923-1.235-2.978-2.149-6.16-2.775-9.527-.558-2.268-.931-5.026-.44-2.589-.643-5.517-.575-5.635-.322-11.93-.017-5.956.829-11.49.271-2.758.761-5.195 1.472-7.09 1.066-4.163 2.64-8.038 1.405-3.977 3.334-7.632 1.743-3.757 3.977-7.209 2.064-3.554 4.637-6.769 2.403-3.334 5.263-6.329 2.707-3.097 5.906-5.855 3.029-2.877 6.515-5.364 10.441-7.496 2.775-1.811 5.533-3.232 2.775-1.557 5.601-2.741 2.809-1.32 5.686-2.268 2.877-1.066 5.855-1.811 2.944-.846 6.075-1.354 3.063-.626 6.312-.931 3.198-.406 6.633-.508 10.356-.322h5.77l11.185 1.015 5.517.677 10.644 2.335 5.263 1.32 10.052 3.554 4.941 1.912 9.392 4.67 4.603 2.471 8.664 5.686 4.23 2.978 7.886 6.633 3.841 3.435 7.023 7.479 3.401 3.841 6.109 8.241 2.927 4.214 5.127 8.901 2.437 4.535 4.078 9.476 1.912 4.806 2.978 9.967 1.337 5.026 1.811 10.356.745 5.212.575 10.644.118 5.364-.728 10.847-.525 5.449-2.098 10.982-4.738 16.482-1.743 4.941-4.383 9.459-2.335 4.654-5.5 8.833-2.877 4.332-6.515 8.106-3.384 3.977-7.463 7.327-3.824 3.554-8.309 6.464-4.247 3.114-9.087 5.5-4.62 2.64-9.747 4.467-15.297 5.483-1.421.423-3.774.778-2.031.372-4.721.677-2.454.338-5.33.558-2.691.271-5.533.423-2.775.203-5.381.254-2.657.102-4.873.068-2.352.017-3.994-.169-1.861-.102m19.866-57.822 3.283-1.066 7.666-2.403 3.926-1.201 8.207-2.488 4.078-1.235 7.75-2.268 1.878-.541 3.469-.998 4.721-1.32 2.911-.795 5.466-1.641 2.64-.812 4.552-1.54 2.132-.728 3.147-1.252.677-.288.981-.491.914-.592.491-.491.575-1.134.203-.626-.017-1.76-.102-.998-.66-2.877-.203-.812-.541-1.895-1.015-3.367-.592-1.895-1.1-3.317-.541-1.574-1.015-2.674-.508-1.252-.981-2.098-.491-.981-.998-1.574-.998-1.455-2.166-1.591-3.824-.846h-.338l-1.1.135-.626.085-1.608.271-.863.152-2.081.423-1.083.22-2.488.541-2.572.558-6.126 1.455-3.181.761-7.073 1.777-7.192 1.828-15.382 4.163-3.79 1.049-7.276 2.081-10.035 2.995-2.64.812-4.383 1.438-2.048.694-3.283 1.32-1.523.66-2.284 1.32-1.032.694-1.421 1.489-.609.761-.643 1.794-.237.948.017 2.217.068 1.185.558 2.809 1.337 5.026.558 1.929 1.032 3.384.508 1.624.948 2.809.474 1.354.88 2.284.423 1.066.829 1.777.406.829.795 1.303.389.592.761.863 2.284 1.117h.186l.863-.152.508-.102 1.421-.355.778-.203 1.912-.508 1.015-.288 2.335-.66 2.42-.694 5.787-1.76 3.012-.931M83.238 463.32l3.452-1.557 7.615-3.131 3.909-1.557 8.393-3.114 4.281-1.557 9.019-3.029 4.569-1.506 9.459-2.911 9.527-2.877 19.663-5.144 28.987-6.43 3.621-.694 6.193-1.337 2.911-.66 4.654-1.235 2.115-.592 2.961-1.083.626-.254.914-.491.829-.66.271-.372.322-1.117.118-.626.051-1.591-.034-1.692-.846-4.467-.541-2.369-1.743-5.381-3.52-8.427-2.826-5.923-11.964.322-1.472.034-3.3.22-1.709.135-3.723.423-3.807.44-8.698 1.405-4.484.778-9.747 1.98-4.958 1.049-10.407 2.454-10.475 2.572-21.254 6.143-5.195 1.591-9.984 3.317-13.927 5.093-2.352.914-4.027 1.658-1.929.812-3.215 1.455-1.523.728-2.488 1.337-1.168.677-1.828 1.269-.846.643-1.286 1.286-.575.643-.778 1.354-.948 4.569v.778l.22 2.183.135 1.168.457 2.758.508 2.877 1.438 6.396.389 1.574.778 2.995.406 1.455.778 2.572.372 1.201.711 1.861.914 1.743.609.728 1.066.863.592.305 1.709-.118.525-.102 1.303-.406.711-.254 1.794-.711.948-.389 2.386-1.049 1.269-.558m39.445-72.967 3.097-.795 7.344-1.726 3.774-.88 7.97-1.743 3.96-.863 7.615-1.574 10.001-1.912 2.944-.525 5.043-.931 2.403-.457 4.027-.812 1.895-.389 3.114-.711 1.455-.355 2.352-.66 1.083-.338 1.658-.643.778-.338 1.117-.66 1.878-2.251.118-.322-.22-1.692-.169-.998-.745-2.792-.423-1.489-1.168-3.52-2.098-5.703-5.584-14.197-7.107-.525-.998-.068-2.606.051-1.388.051-3.317.254-1.743.169-3.909.457-2.014.254-4.383.643-4.484.677-9.899 1.76-5.026.948-10.288 2.132-5.11 1.1-9.747 2.318-2.352.575-4.45 1.151-2.166.575-3.994 1.117-1.929.558-3.401 1.083-1.624.525-2.724.998-1.269.474-1.912.897-1.811 1.201-.829.812-1.015 1.32-.406.694-.169 1.844.017.541.186 1.354.135.745.406 1.861.237.998.643 2.488 1.201 4.569.525 1.912.914 3.249.44 1.54.829 2.589.406 1.218.778 1.997.389.914.761 1.472.761 1.354 1.641 1.405 2.978.745h.203l.863-.118.491-.068 1.388-.271 1.506-.288 4.298-.931 2.318-.525 5.517-1.303 2.86-.677m328.859 154.886-2.183-.423-3.909-1.421-1.861-.812-3.266-2.081-1.54-1.117-2.555-2.623-1.185-1.371-1.794-3.063-.795-1.574-.965-3.367-.389-1.709-.085-3.571.085-1.794.846-3.655 2.403-5.415.525-.897 1.472-1.726.812-.863 1.98-1.641 2.081-1.624 5.398-2.826 2.843-1.337 6.498-2.048 10.373-1.912 1.641-.169 2.978-.457 1.421-.237 2.352-.541 1.066-.288 1.523-.609 1.134-.914.102-.288-.169-.863-.135-.457-.575-1.117-2.826-3.638-.998-.998-1.608-1.32-.812-.558-1.743-.592-.948-.203-2.538.017-.711.034-1.709.152-3.029.338-1.946.237-3.232.372-1.506.152-2.471.203-1.151.085-1.861.017-.863-.034-1.388-.203-1.286-.288-1.811-1.371-2.741-3.52-1.066-1.574-1.692-3.097-.355-.711-.491-1.185-.305-1.252v-.423l.677-.846.44-.406 1.489-.812.829-.389 2.149-.745 1.151-.355 2.741-.66 2.843-.626 6.904-.897 11.236-.575h2.115l3.875.169 1.878.118 3.418.423 1.658.254 2.995.677 1.438.389 2.606.948 1.269.525 2.251 1.252 1.083.66 1.929 1.557 4.789 5.889.728 1.235 1.049 2.691.237.745.389 1.709.186.914.305 2.166.135 1.151.22 2.775.118 1.472.169 3.503.085 1.878.135 4.4.203 7.801.575 26.669-7.53 3.334-.88.389-2.318.812-1.235.406-2.86.795-2.961.778-6.718 1.405-3.367.643-6.396.88-1.506.169-2.674.22-3.317.051-.457-.034-1.354-.135-.711-.085-1.692-.22-1.743-.254m18.394-19.528 1.185-.406 1.658-.778.711-.423.897-1.032.372-.592.338-1.658.169-3.571v-6.6h-9.324l-3.283.338-1.574.22-2.775.728-1.32.389-2.217 1.049-1.032.558-1.574 1.286-.694.66-.863 1.472-.338.745-.068 1.591.051.795.778 1.624 2.2 2.403 1.1.88 2.284 1.168 1.168.474 2.572.389 1.354.102 3.012-.389 1.591-.288m711.209 17.514-1.658-.338-3.012-.88-1.455-.491-2.606-1.201-1.269-.626-2.217-1.489-1.049-.795-1.811-1.777-.863-.931-1.388-2.064-.643-1.066-.981-2.335-.44-1.201-.541-2.623-.355-4.214v-1.726l.626-3.3.423-1.608 1.421-3.046.812-1.489 2.166-2.741 1.168-1.32 2.877-2.403 1.506-1.151 3.503-2.031 1.811-.948 4.078-1.608 2.115-.745 4.603-1.117 7.412-1.117 1.54-.152 2.589-.322 1.218-.169 2.014-.406.931-.203 1.472-.508.66-.271.965-.626.406-.338.474-.812.186-.423.034-.998-.034-.525-.355-1.201-.981-2.115-.457-.863-.998-1.151-.592-.508-1.912-.525-.575-.118-1.472-.102-.795-.051-1.997-.017h-1.066l-2.64.068-4.772.169-1.844.085-3.046.102-1.438.034-2.335.034h-1.083l-1.743-.068-.812-.051-1.286-.203-1.201-.237-1.523-.948-2.048-2.369-1.032-1.421-1.32-2.521-.525-1.201-.322-2.115-.034-1.015.711-1.726.474-.829 1.777-1.371 1.015-.626 2.877-1.032 1.574-.474 3.977-.694 2.149-.305 5.144-.389 9.053-.271 2.217-.017 3.943.102 1.895.085 3.351.305 1.608.169 2.843.525 1.371.305 2.437.795 2.352.863 3.875 2.657 5.246 5.669.812 1.1 1.117 2.251.254.626.372 1.523.186.829.271 2.048.118 1.117.169 2.775.068 1.489.085 3.706.051 1.98.034 4.823.017 8.715v28.209l-9.307 3.638-2.724 1.049-6.684 1.641-3.469.728-7.446.914-3.723.355-7.175.085-1.743-.034-3.232-.237-1.574-.152m19.883-18.919.931-.338 1.303-.761.575-.406.745-1.083.322-.609.305-1.709.169-3.554v-6.803H1188.49l-4.078.66-1.912.423-3.012 1.438-1.354.812-1.76 2.115-1.1 3.875v.846l.423 1.506.288.728.931 1.235.508.592 1.371.948.728.423 1.726.643 1.811.558 4.383.068 2.268-.135m-853.759-34.199V445.08l9.73-1.337 4.264-.575 8.461-.626 4.163-.22 7.835.118 3.774.135 6.616.812 1.557.254 2.775.609 3.621 1.117 2.369.914 4.4 2.691 2.115 1.455 3.689 3.503 1.709 1.811 2.589 3.943 2.301 6.007.338 1.828-.254 3.943-.271 1.98-1.32 3.909-.778 1.895-2.2 3.351-4.044 3.875-4.535 2.978 6.16 3.147 2.352 1.218 3.655 2.894 1.658 1.54 2.335 3.689.998 1.946 1.066 4.67.322 8.275-.085 1.641-.372 2.978-.203 1.438-.643 2.606-.355 1.269-.948 2.301-.508 1.117-1.303 2.048-.694.981-1.675 1.844-.88.914-2.098 1.692-1.117.829-2.555 1.608-4.4 2.352-2.268 1.117-3.689 1.506-1.861.677-4.18.829-1.151.186-2.707.271-1.421.135-3.418.186-1.811.102-4.349.152-7.801.203-24.96.626v-51.679m43.777 29.123 1.117-.372 1.912-1.049.914-.558 1.506-1.32.711-.694 1.066-1.557.474-.795.609-1.692.254-.863.135-1.777v-.897l-.355-1.794-.254-.88-.863-1.726-1.929-2.454-.677-.677-1.472-.981-.795-.457-1.98-.592-1.083-.254-2.826-.271-5.55-.152h-10.999v23.69h9.389l4.738-.541 1.168-.169 2.132-.44 1.015-.22m2.792-46.772 1.235-1.252 1.608-2.149.643-1.032.44-1.963.085-.965-.711-2.064-2.318-3.503-.643-.795-1.32-1.168-.694-.508-1.675-.694-.897-.305-2.369-.322-4.67-.203-9.104-.085-.508 10.576-.508 10.576H369.826l2.707-.186 1.252-.118 2.031-.525.965-.322 1.658-.948.812-.541m127.608 31.441V477.06l6.346-3.215 1.794-.897 4.027-1.574 2.064-.745 4.434-1.201 4.484-1.117 9.425-1.1 2.335-.169 4.569-.068 2.251.034 4.247.338 2.081.237 3.774.778 4.924 1.658 1.878.846 4.298 2.944 1.032.778 1.895 1.624 2.318 2.352 4.586 5.449v64.049h-23.69V494.164l-4.552-3.587-.863-.677-1.692-1.015-.863-.44-1.828-.575-.965-.237-2.183-.203-3.875.051-7.716.508-.457 30.036-.474 30.036h-23.606v-35.502m104.916 32.811-1.878-.812-3.435-2.031-1.675-1.066-2.961-2.521-1.421-1.32-2.488-2.961-1.168-1.54-1.98-3.384-.931-1.726-1.455-3.774-.66-1.929-.914-4.112-.389-2.098-.338-4.417.135-6.938.169-2.268.761-4.298.457-2.098 1.286-3.909.711-1.912 1.794-3.537.965-1.709 2.301-3.147 1.218-1.523 2.809-2.741 1.472-1.32 3.3-2.335 1.709-1.117 3.79-1.929 6.227-2.403.914-.288 2.572-.423 1.371-.203 3.3-.254 3.401-.203 7.649.068 1.861.051 3.571.237 1.709.118 3.029.372 1.405.203 2.166.491 1.946.88.237.237.152.998.017.575-.288 1.574-.186.863-.711 2.081-1.472 3.571-3.824 8.326-10.542-.44-1.269-.051-2.115-.068-.998-.017-1.658.034-1.574.051-2.301.541-1.083.372-1.997 1.388-3.638 3.401-1.455 1.455-1.912 2.149-.829 1.015-.897 1.912-.355 1.015-.152 2.504.288 5.313.169 1.929.711 3.452.423 1.641 1.252 2.877.677 1.354 1.743 2.301.931 1.066 2.234 1.692 1.168.778 2.707 1.083 1.405.474 3.164.491 1.624.152 3.587-.135 5.872-.948 7.243-1.658 1.828 7.259.508 1.997.778 3.875.169.897.22 1.472.152 1.574v.355l-.355.694-.22.338-.778.643-.863.626-2.775 1.049-1.54.491-3.824.761-2.014.355-4.484.44-4.569.372-9.425-.338-2.268-.186-4.078-.677-1.946-.406m65.048-2.454-1.523-.728-2.792-1.743-1.371-.931-2.471-2.098-2.386-2.183-3.774-5.246-1.726-2.741-2.403-6.092-1.032-3.131-.998-6.583-.322-3.334.44-6.718.406-3.351 1.912-6.515 1.151-3.181 3.418-5.94.965-1.438 2.183-2.691 3.723-3.74 1.743-1.523 4.112-2.471 2.132-1.134 4.721-1.675 2.403-.728 5.11-.88 2.572-.355 5.263-.102 2.623.051 5.195.677 2.555.44 4.873 1.438 2.386.829 4.349 2.217 5.669 4.197 2.183 2.064 3.384 4.264 1.54 2.183 2.2 4.738.965 2.454 1.151 5.55.677 9.612v2.115l-.237 3.926-.152 1.912-.558 3.554-.322 1.743-.914 3.198-.508 1.574-1.269 2.894-.694 1.405-1.641 2.589-.88 1.269-2.031 2.318-1.083 1.134-2.437 2.098-4.112 2.894-1.777 1.1-2.995 1.557-1.455.694-2.978.931-1.557.389-3.757.474-1.032.102-2.335.152-4.027.186-1.455.051-2.555.051-1.218.034-2.149-.034-2.064-.051-3.351-.389-1.608-.271-3.029-.931-1.54-.541m28.564-22.151 1.523-1.506 2.115-3.52.914-1.811.981-3.926.355-1.997-.034-4.044-.152-2.014-.981-3.875-.609-1.895-1.828-3.435-1.032-1.624-2.589-2.707-1.388-1.235-3.283-1.675-5.567-1.066h-1.929l-3.503 1.1-1.675.694-2.894 2.268-1.371 1.269-2.217 3.164-.998 1.658-1.438 3.757-.609 1.912-.541 4.061-.169 2.031.423 4.044.338 1.997 1.489 3.74 3.52 4.958.711.711 1.675 1.151.88.525 1.929.795 1.98.694 4.349.305 2.166-.034 4.18-1.134.998-.372 1.844-1.032.897-.541m45.114-28.496v-51.696l5.5-2.301 1.506-.626 4.247-1.337 6.092-1.523 6.346-1.185v110.364h-23.69v-51.696m58.38 48.481-1.777-.812-3.232-1.912-1.54-.998-2.775-2.268-1.32-1.168-2.318-2.623-1.1-1.337-1.861-2.995-.88-1.523-1.421-3.351-.643-1.726-.981-3.723-.44-1.912-.541-4.095-.322-6.6v-1.997l.288-3.824.186-1.878.643-3.537.372-1.743 1.015-3.283.558-1.608 1.388-2.995.728-1.472 1.76-2.724.914-1.32 2.115-2.437 1.1-1.185 2.471-2.149 4.095-2.894 1.895-1.151 3.012-1.591 1.472-.694 2.961-.829 1.557-.355 3.943-.305 1.1-.068 2.538-.051 4.501-.034h1.658l2.843.034 1.337.017 2.301.102 2.183.102 3.317.558 1.574.338 2.86 1.185 4.907 2.741 1.472.914 2.674 2.014 1.286 1.032 2.301 2.301 1.1 1.201 1.929 2.589.914 1.32 1.557 2.877.745 1.472 1.185 3.164.541 1.624.829 3.452.355 1.76.457 3.757.254 5.94-.017 2.318-.355 4.366-.237 2.149-.829 3.977-.474 1.929-1.286 3.604-.694 1.743-1.743 3.198-.931 1.557-2.217 2.826-1.151 1.354-2.674 2.42-1.388 1.168-3.131 2.031-5.212 2.623-1.117.457-2.707.745-1.421.338-3.198.491-3.266.44-7.243.135-3.621-.068-6.853-.829-1.624-.254-2.911-.711-1.405-.389m28.243-21.948.694-.592 1.201-1.557.575-.829.965-1.98.914-2.064 1.049-4.907.389-2.521-.102-5.127-1.591-7.039-.575-1.354-1.929-2.521-1.066-1.201-2.657-2.014-1.388-.914-3.029-1.269-4.569-.812h-1.489l-3.08.812-1.54.525-2.877 1.658-1.388.931-2.335 2.284-2.504 3.875-.305.778-.491 1.963-.22 1.049-.288 2.386.017 7.767.254 2.758 1.371 4.484.812 2.081 2.488 3.114 1.371 1.371 3.587 1.743 6.616 1.032h2.217l3.858-.965 1.844-.643m45.74 20.848-.085-.068-.152-.863-.085-.541-.152-1.709-.068-.948-.135-2.437-.051-1.32-.118-3.08-.051-1.624-.102-3.638-.034-1.878-.068-4.095-.102-13.487v-34.504l9.459-4.332 1.709-.778 3.418-1.269 1.726-.575 3.621-.897 1.861-.423 4.061-.592 6.87-.592 1.523-.102 2.606-.118 1.252-.051 2.149-.034h2.064l3.181.322 1.506.22 2.741.88 4.535 2.081 7.767 4.01 7.463-3.401 1.354-.609 3.181-.998 1.658-.457 3.655-.694 3.723-.609 7.919-.305h1.946l3.74.237 1.828.152 3.334.541 1.608.305 2.724.846 3.147 1.608 1.421 1.066 2.335 1.844 1.1.914 1.743 1.811.812.914 1.252 2.081.575 1.1.829 2.64.389 1.438.491 3.554.22 1.912.254 4.772.118 2.572.085 6.295.017 1.692.017 3.706v37.736l-11.422.508-11.422.491v-29.596l-.017-5.33v-2.488l-.068-4.027-.034-1.878-.118-2.978-.085-1.371-.237-2.115-.135-.981-.355-1.506-.22-.694-.525-1.1-2.352-2.86-.761-.745-1.523-1.168-.778-.525-1.675-.761-.863-.338-1.946-.389-3.317-.22h-3.858l-1.1.034-1.743.271-.812.186-1.185.795-.541.508-.728 1.608-.322.948-.372 2.707-.152 1.506-.102 4.078-.034 2.234.068 5.72.034 1.54.051 3.452.102 5.737.541 29.596h-23.911v-30.002l-.017-5.347v-2.504l-.068-4.078-.034-1.895-.118-2.995-.085-1.388-.22-2.149-.135-.981-.338-1.506-.203-.694-.491-1.066-2.2-2.64-.728-.66-1.523-1.049-.795-.457-1.777-.677-.931-.288-2.183-.338-3.875-.203h-7.886l-.474 30.036-.457 30.036-11.067.491-1.523.068-2.877.034h-1.388l-2.386-.102-1.117-.068-1.641-.203-.711-.118m143.277-1.963-8.038-2.471v-97.672l6.346-2.521 1.743-.694 4.349-1.438 5.753-1.574 5.5-1.185v20.374l.102 4.484.068 2.132.22 3.554.118 1.624.305 2.234.085.44.169.592.271.372h.186l.846-.271.508-.169 1.354-.558 5.077-2.386 2.081-1.066 4.654-1.32 2.403-.541 5.026-.305h2.521l5.026.745 7.192 2.318 1.641.745 2.944 1.777 1.405.948 2.454 2.166 1.168 1.134 1.98 2.589.931 1.354 1.54 3.029.694 1.557 1.083 3.486.491 1.794.626 3.96.271 2.031.186 4.434-.169 7.243-.152 2.403-.711 4.552-.423 2.234-1.201 4.18-.677 2.048-1.692 3.79-.914 1.828-2.149 3.351-1.134 1.624-2.606 2.877-1.354 1.388-3.012 2.386-1.574 1.134-3.401 1.878-5.55 2.166-1.117.338-2.961.508-1.574.237-3.706.338-3.824.288-8.782.017-4.417-.068-8.359-.677-1.963-.22-3.503-.541-1.658-.288m36.45-19.376 1.32-.914 2.251-2.707 1.049-1.472 1.675-3.621.761-1.912.998-4.298.609-6.921v-1.608l-.203-2.504-.152-1.185-.609-1.963-.355-.931-1.151-1.76-2.471-2.809-1.015-.998-1.794-1.472-.88-.66-1.828-.863-.948-.355-2.2-.389-4.146-.203h-1.726l-2.86.085-1.337.051-2.166.322-.998.203-1.557.711-.694.423-1.049 1.252-.474.694-.626 1.946-.288 1.083-.322 2.775-.135 1.506-.118 3.79-.051 6.938v2.504l.085 4.67.068 2.251.186 3.807.102 1.76.254 2.521.068.541.135.745.237.592.288.288 1.168.423.66.186 1.794.203 1.895.169 4.755-.186 2.42-.169 4.552-.795 1.049-.237 1.794-.558.812-.288m47.06-18.868v-16.498l.017-3.689.017-1.76.051-3.114.034-1.506.102-2.589.068-1.235.152-2.115.186-2.014.609-2.792.338-1.235 1.032-1.523.558-.626 1.557-.626.846-.237 2.183-.102 4.095.017h1.557l2.538-.017 1.185.017 1.844.322.846.237 1.269 1.015.575.643.795 2.115.355 1.218.44 3.587.085.998.135 2.352.051 1.235.085 2.86.034 1.489.034 3.384.017 1.777v57.991h-23.69v-39.58m4.45-55.301-.795-.643-1.252-1.286-.575-.66-.812-1.421-.355-.728-.423-1.641-.237-2.809v-1.523l1.049-3.029.677-1.472 2.064-2.606 1.134-1.201 2.674-1.726 4.247-1.134h1.421l2.826 1.134 1.371.711 2.437 2.217 1.117 1.218 1.624 2.86 1.049 4.552v1.523l-1.049 3.029-.677 1.472-2.064 2.606-1.134 1.201-2.674 1.726-4.247 1.134h-.406l-1.083-.271-.575-.186-1.32-.575-1.337-.626m-541.855-73.542v-5.093l.017-8.901.017-4.247.068-7.327.034-3.469.102-5.855.068-2.741.152-4.518.068-2.115.203-3.3.118-1.523.254-2.217.135-.981.322-1.269.558-.965.474-.305 2.098-.491 1.218-.237 3.283-.372 1.743-.169 4.078-.237 2.098-.102 4.45-.085 2.234-.034 4.45.051 2.183.034 4.044.203 1.929.118 3.249.355 3.554.711 2.2.728 4.501 2.572 2.217 1.438 4.163 3.655 1.997 1.912 3.367 4.281 3.621 6.616.541 1.405.778 2.86.338 1.472.406 3.249.169 1.692.068 4.01-.203 7.226-.085 1.574-.186 2.707-.085 1.303-.22 2.217-.22 2.132-.694 3.232-.406 1.506-1.201 2.64-2.623 4.163-1.709 2.42-3.858 3.858-2.014 1.777-4.535 2.606-2.352 1.134-5.297 1.388-8.884.745-3.012-.034-5.855-.846-1.371-.271-2.437-.66-2.978-1.185-5.5-2.86V416.889l-.017 2.995-.017 1.421-.068 2.352-.051 1.117-.118 1.794-.085.846-.203 1.337-.22 1.252-.761 1.489-1.726 1.438-1.1.592-1.794.914-.829.355-1.32.152-.609-.051-.931-1.049-.203-.355-.355-.998-.169-.558-.271-1.438-.135-.795-.203-1.946-.102-1.032-.152-2.504-.085-1.32-.102-3.114-.051-1.624-.068-3.774-.034-1.963-.034-4.484-.017-2.335-.017-5.246v-11.929m43.692 2.217 1.472-.897 2.589-2.572 1.218-1.388 2.081-3.367.965-1.76 1.523-3.926.677-1.997.914-4.247.389-2.132.271-4.315.051-2.132-.423-4.146-.288-2.014-1.151-3.723-2.589-4.823-1.743-2.352-3.266-3.418-1.641-1.523-3.587-1.997-1.895-.846-4.637-.897-1.252-.169-2.843-.203-4.84-.102h-12.996l-.457 28.209-.034 2.014-.068 3.621-.051 1.743-.051 3.131-.051 3.012.017 4.67.034 2.149.305 3.181.203 1.438.761 1.963.457.846 1.354 1.049.778.44 2.115.406 1.168.169 3.012.068 5.737.068 1.861.034 3.164-.118 1.506-.102 2.606-.44 1.235-.254 2.234-.761 1.1-.44m-250.9 12.454-2.538-.525-4.349-1.371-2.098-.761-3.74-1.963-1.844-1.083-3.554-2.826-5.55-5.449-2.251-2.42-3.571-5.381-1.658-2.775-2.437-6.143-1.066-3.181-1.32-7.006-.761-11.591.017-4.027.897-7.463.575-3.638 1.963-6.65 1.1-3.215 2.978-5.753 1.608-2.758 3.926-4.789 2.081-2.284 4.84-3.774 2.521-1.743 5.652-2.691 2.944-1.201 6.447-1.54 10.475-.931h3.164l6.176.694 3.046.457 5.753 1.557 2.792.88 5.06 2.335 6.583 4.298.914.761 1.506 1.371.711.66 1.1 1.201.998 1.168.778 1.98.203.948-.761 1.76-2.86 2.674-.863.609-1.286.728-.575.271-.965.017-.491-.102-1.015-.795-1.997-2.183-1.489-1.777-3.757-2.877-1.98-1.337-4.484-1.98-2.318-.88-4.975-1.083-2.521-.44-5.161-.186-2.589.017-5.093.694-2.521.457-4.755 1.591-2.301.914-4.146 2.471-5.212 4.721-1.794 2.166-2.911 5.127-1.337 2.691-1.929 5.956-.846 3.08-.897 6.549-.102 10.255.152 2.268.677 4.281.389 2.098 1.117 3.926.626 1.912 1.54 3.554.829 1.726 1.963 3.131 1.049 1.523 2.369 2.707 1.235 1.303 2.758 2.268 1.421 1.083 3.131 1.794 5.093 2.149.948.322 2.318.457 1.201.186 2.724.254 2.792.186 6.227-.254 3.131-.203 6.092-.998 1.472-.288 2.707-.711 3.604-1.252 6.346-2.674V370.24l.017-3.114v-1.455l.068-2.335.034-1.1.135-1.692.085-.795.254-1.185.288-1.083 1.066-1.168 2.572-1.269 1.032-.389 1.726-.525.795-.22 1.337-.118h.609l.965.423.457.271.677 1.049.305.592.44 1.777.186.981.237 2.606.102 1.405.102 3.554.051 6.464v17.853l-7.987 5.06-3.215 2.048-7.276 3.147-3.74 1.421-7.919 1.828-3.994.728-7.987.389-3.96.017m307.859-1.794-2.318-.66-4.298-2.014-2.098-1.117-3.824-2.944-1.844-1.574-3.3-3.824-4.315-6.701-.626-1.201-1.032-2.927-.491-1.523-.711-3.418-.626-3.503-.322-7.767.017-3.875.965-7.412.322-1.777.88-3.198 1.692-4.163 1.032-1.98 2.454-3.554 1.286-1.726 2.927-3.029 1.523-1.438 3.317-2.454 1.709-1.168 3.638-1.861 1.844-.846 3.892-1.235 1.963-.525 4.078-.575 2.048-.186 4.163.135 6.312 1.032 2.927.728 4.992 1.861 2.369.998 4.044 2.504 1.912 1.354 3.283 3.3 4.315 6.007 1.032 1.76 1.438 2.911.626 1.438.778 3.012.322 1.608.305 4.095.051 1.134.051 2.64.034 4.654v1.76l-.034 2.995-.017 1.405-.085 2.42-.118 2.284-.541 3.401-.338 1.608-1.185 2.877-2.775 4.941-1.049 1.726-2.538 3.097-1.337 1.489-3.029 2.589-1.574 1.235-3.435 2.064-1.777.948-3.774 1.506-1.929.677-4.027.897-2.048.389-4.214.288-2.115.051-4.315-.355-2.149-.254m19.815-13.521 2.217-1.134 3.52-2.927 1.608-1.591 2.318-4.01 1.015-2.166 1.235-5.263.237-1.405.288-3.08.152-5.026v-2.623l-.423-4.687-.271-2.251-.965-3.994-.541-1.912-1.506-3.283-.829-1.54-2.048-2.606-1.1-1.201-2.606-1.895-1.371-.88-3.164-1.218-1.658-.525-3.74-.541-6.261-.068-1.929.118-3.52.66-1.692.389-3.029 1.201-1.455.677-2.555 1.743-1.201.931-2.064 2.284-.981 1.218-1.574 2.826-.728 1.472-1.1 3.367-.474 1.76-.609 3.892-.372 6.464v3.503l.981 6.278.643 2.995 2.183 5.144 1.218 2.42 3.3 3.807.88.863 1.963 1.438 3.215 1.726 1.438.592 3.689.626 1.929.237 4.197-.085 2.115-.118 4.078-.761 1.98-.457m-263.947-25.434v-37.16l8.766-2.606 1.201-.355 3.063-.66 1.608-.305 3.52-.525 1.777-.237 3.554-.322 4.924-.203h1.151l1.946.017.931.017 1.523.068 1.421.068 1.726.322.711.186.558.626-.118 1.371-.288.745-.44 1.777-.305 2.318v.338l-.643.643-.44.322-1.472.558-.846.271-2.251.474-4.214.575-2.098.22-3.384.305-1.574.169-2.454.457-1.117.271-1.658.948-.745.558-1.032 1.794-.44 1.032-.525 2.978-.22 1.675-.203 4.535-.034 1.252-.034 2.843-.017 1.472v9.003l.017 6.515v32.811h-11.846v-37.16m69.278 35.553-1.98-.592-3.3-1.201-1.54-.626-2.504-1.472-1.168-.778-1.811-2.014-.829-1.1-1.235-2.826-.541-1.557-.745-3.943-.322-2.132-.355-5.347-.068-1.421-.085-3.181-.034-1.641-.034-3.638v-1.861l.034-4.112.085-6.735.457-30.899 5.5-.525 5.5-.541v32.016l.085 6.65.051 3.164.22 5.28.135 2.488.406 4.078.237 1.895.626 3.046.355 1.421.914 2.183.491.998 1.218 1.489.643.677 1.574.981 2.809 1.049 1.421.389 3.909.474 2.081.186 4.603.085 2.318-.017 4.484-.305 5.652-.897 4.62-1.168.457-32.541.457-32.558 5.533-.525 5.533-.541-.457 36.923-.457 36.907-10.999 2.843-2.911.761-6.278 1.049-3.164.457-6.278.423-3.063.135-5.533-.237-1.303-.102-2.352-.322-1.134-.186z"
        fill="#fefdfd"></path>
</svg>