<svg id="logo-cafeto-svg" xmlns="http://www.w3.org/2000/svg" viewBox="35.19 125.45 1029.66 219.26">
    <title>Logo Cafeto Software</title>
    <path style="fill:#fe073c;fill-opacity:1;stroke:#fe073c;stroke-width:1.13126;stroke-opacity:1"
        d="M975.407 335.181c-23.866-3.695-42.723-17.102-52.412-37.265-6.377-13.271-8.647-25.267-7.807-41.269.36-6.856 1.497-15.265 2.527-18.687 5.445-18.09 19.164-34.885 34.492-42.222 22.706-10.868 49.431-11.096 71.124-.607 18.258 8.828 32.6 27.463 36.88 47.92 3.922 18.745 1.317 41.547-6.44 56.351-5.11 9.754-18.62 23.047-28.064 27.613-14.943 7.225-35.17 10.51-50.3 8.166zm21.483-23.791c19.503-3.606 34.871-20.415 38.175-41.755 3.455-22.325-7.987-44.549-28-54.381-7.313-3.593-8.688-3.879-18.665-3.879-9.334 0-11.64.407-17.279 3.05-3.579 1.677-9.291 5.683-12.694 8.9-21.888 20.701-23.556 48.972-4.3 72.859 10.78 13.37 25.115 18.468 42.763 15.206zM859.6 333.09c-7.716-2.666-14.937-9.684-18.786-18.26-3.9-8.689-5.098-24.437-5.131-67.418l-.026-32.97-9.016-.409c-10.764-.488-12.565-1.802-13.325-9.72-.448-4.653-.103-6.032 2.168-8.672 2.316-2.692 4.034-3.314 12.079-4.377l9.379-1.238-.765-8.158c-1.05-11.212.22-19.414 3.52-22.713 2.327-2.328 3.72-2.646 11.608-2.646 6.956 0 9.31.42 10.515 1.87 1.076 1.297 1.726 6.589 2.118 17.252l.566 15.382 19.427.565c18.623.542 19.547.68 22.342 3.308 3.61 3.397 3.776 7.861.508 13.677-3.007 5.35-4.349 5.64-26.08 5.64h-16.89l.346 41.574.347 41.573 2.828 5.657c5.372 10.743 16.081 12.338 30.122 4.486 3.856-2.156 7.738-3.92 8.626-3.92 3.998 0 5.726 13.075 2.541 19.233-2.094 4.05-9.836 9.507-15.858 11.178-7.309 2.03-26.17 1.52-33.163-.895zM736.564 335.195c-20.796-2.118-36.731-10.626-48.467-25.878-10.147-13.186-15.282-28.445-15.32-45.522-.053-23.165 8.412-43.629 24.105-58.274 12.693-11.844 28.009-17.348 48.198-17.32 6.646.01 15.173.776 19.203 1.725 20.46 4.823 36.364 20.317 44.342 43.197 2.41 6.913 4.211 28.105 2.85 33.53l-.749 2.982h-46.189c-25.404 0-50.142.334-54.973.742l-8.785.743.678 4.948c1.714 12.5 12.49 26.619 24.736 32.407 8.16 3.857 20.807 5.585 30.022 4.1 13.35-2.15 22.706-6.932 31.882-16.299 6.211-6.34 9.45-6.661 14.51-1.44 7.222 7.451 5.911 15.702-3.881 24.43-11.658 10.39-24.793 15.123-45.085 16.246-4.977.276-12.662.133-17.077-.317zm51.054-90.072c-2.321-12.37-8.582-22.86-17.173-28.77-7.77-5.347-12.134-6.57-23.652-6.625-8.906-.043-11.046.348-16.403 3.001-9.116 4.515-17.9 13.89-23.485 25.066-2.598 5.198-4.441 9.907-4.097 10.464.35.567 19.314 1.013 43.107 1.013h42.481zM609.834 330.537c-3.527-1.708-3.8-6.337-3.811-64.454l-.01-51.63-12.341-.422c-15.472-.53-17.072-1.574-17.072-11.14 0-9.045 1.546-10.174 16.086-11.751l11.605-1.259 1.967-14.621c1.082-8.042 2.766-17.026 3.742-19.966 2.465-7.422 8.005-15.412 13.392-19.315 11.496-8.328 32.89-10.215 46.247-4.08 9.114 4.187 12.17 7.782 12.161 14.312-.008 5.114-1.83 13.692-2.912 13.692-.303 0-2.952-1.216-5.886-2.702-15.026-7.608-23.892-7.649-31.398-.143-4.046 4.047-4.894 5.753-5.956 11.983-2.15 12.622-2.538 16.841-1.814 19.729l.705 2.808h14.898c19.28 0 20.367.602 19.71 10.911-.679 10.666-1.235 10.994-19.55 11.53l-15.224.444-.323 57.09c-.374 66.292.935 60.351-13.265 60.224-4.703-.042-9.63-.6-10.951-1.24zM481.23 334.01c-7.908-1.156-18.852-6.752-23.453-11.993-1.846-2.102-4.628-6.332-6.182-9.399-2.458-4.85-2.826-7.062-2.826-16.965 0-9.987.357-12.093 2.908-17.126 9.834-19.407 33.219-28.1 83.493-31.036l12.305-.719-.647-5.46c-.656-5.541-3.874-13.01-7.732-17.951-6.053-7.75-17.757-12.677-30.11-12.677-12.294 0-20.536 4.139-31.818 15.98-5.766 6.052-9.445 9.033-11.147 9.033-2.973 0-11.016-6.91-13.392-11.504-1.503-2.906-1.435-3.612.764-7.921 2.795-5.48 12.264-15.843 17.337-18.975 6.1-3.765 20.094-7.779 31.517-9.04 27.719-3.058 53.16 5.459 63.094 21.122 8.787 13.856 10.551 29.871 9.428 85.58l-.773 38.335-8.889-.686c-8.646-.666-13.106-2.055-14.777-4.6-.45-.685-1.151-4.172-1.56-7.75-.409-3.577-1.096-6.505-1.527-6.505-.43 0-4.31 2.819-8.62 6.264-4.311 3.445-10.456 7.55-13.656 9.123-10.497 5.16-28.244 7.137-43.738 4.87zm33.762-20.87c13.873-3.59 26.184-13.905 29.36-24.6.923-3.11 2.016-9.7 2.428-14.645l.75-8.991-6.11.63c-3.36.347-10.437.936-15.726 1.31-37.642 2.662-56.163 16.33-47.62 35.143 4.924 10.842 20.24 15.469 36.918 11.153zM342.997 334.164c-22.482-3.717-45.057-19.276-58.635-40.412-11.181-17.405-14.89-33.807-14.023-62.014.625-20.34 2.217-27.154 10-42.79 10.106-20.304 20.548-30.851 40.445-40.853 11.185-5.623 22.515-8.349 38.406-9.241 24-1.348 42.571 2.782 57.073 12.691 12.7 8.677 23.43 23.035 21.867 29.26-.721 2.872-8.945 12.54-12.107 14.231-1.828.979-3.672-.29-12.267-8.434-7.255-6.876-12.46-10.714-18.41-13.575-23.704-11.402-47.351-9.53-67.11 5.31-19.267 14.471-28.945 37.225-27.283 64.148 1.464 23.708 10.824 41.013 29.956 55.385 10.618 7.976 19.099 10.613 34.147 10.618 23.524.007 37.446-6.466 52.548-24.43 7.039-8.373 8.989-9.078 14.99-5.42 6.13 3.738 9.1 11.941 7.064 19.505-1.958 7.269-18.355 23.103-29.376 28.368-13.836 6.61-19.742 7.767-41.832 8.2-10.888.214-22.342-.032-25.453-.547z">
    </path>
    <path style="fill:#fe073c;fill-opacity:1;stroke:#fe073c;stroke-width:.69235;stroke-opacity:1"
        d="M135.265 342.254c-2.25-.956-4.848-3.39-5.547-5.2-.362-.934.27-4.786 1.816-11.077 3.816-15.532 4.618-23.682 4.214-42.878-.398-18.973-1.196-26.3-6.068-55.734-1.923-11.614-3.954-24.232-4.514-28.04-1.434-9.745-1.99-31.48-1.073-41.96 1.287-14.712 4.191-21.29 10.837-24.541 3.192-1.562 4.527-1.783 10.816-1.793 14.65-.022 27.221 5.892 39.42 18.544 2.885 2.992 6.503 7.31 8.042 9.594 8.873 13.178 15.943 33.656 18.646 54.003 1.7 12.797.967 39.173-1.411 50.825-5.454 26.715-14.317 45.505-28.38 60.164-8.967 9.348-16.919 14.297-27.412 17.062-5.47 1.441-16.978 2.053-19.386 1.03zM95.36 341.953c-12.104-2.633-25.188-11.147-34.2-22.254-4.935-6.082-4.638-6.483 4.802-6.483h7.59l1.537 2.25c2.597 3.801 9.175 10.212 10.48 10.212 1.229 0 6.28-4.713 7.506-7.003.48-.898.2-1.732-1.1-3.277-2.27-2.7-7.787-6.335-9.62-6.34-.792-.003-2.374-.53-3.516-1.17-1.664-.933-4.506-1.22-14.274-1.446l-12.198-.28-3.523-7.378c-1.938-4.057-4.15-9.286-4.917-11.62-1.882-5.728-4.647-19.825-5.551-28.297-.406-3.808-.897-8.092-1.09-9.52l-.35-2.596 5.72-.059c12.068-.123 16.3-1.448 18.417-5.767.51-1.04 1.172-5.45 1.47-9.8.322-4.691.908-8.347 1.44-8.988.493-.594 1.037-3.509 1.209-6.477l.312-5.397-2.247-.45c-1.235-.247-4.066-.45-6.29-.45-5.074 0-5.805 1.03-5.29 7.442.285 3.555.717 4.819 2.162 6.327 1.675 1.748 1.806 2.341 1.806 8.153v6.268l-4.255.445c-5.962.623-11.838.535-12.99-.194-2.082-1.318.439-27.052 3.87-39.518 1.943-7.054 6.905-20.54 7.75-21.063.508-.314 22.866 16.697 26.592 20.231 1.06 1.005 2.695 3.14 3.635 4.742 1.644 2.805 1.707 3.379 1.707 15.357 0 11.807-.088 12.633-1.724 16.147-1.871 4.02-2.422 11.161-.931 12.082.443.275 3.023.641 5.733.815 6.018.386 6.752-.245 7.181-6.18.268-3.704.113-4.338-1.46-6l-1.76-1.86-.23-15.577c-.311-20.975 1.41-18.23-23.647-37.71-6.351-4.937-11.548-9.313-11.548-9.724 0-1.388 6.751-11.028 11.812-16.867 8.668-10 20.169-17.952 29.729-20.556 2.094-.57 7.08-1.223 11.077-1.45 9.037-.514 11.94.42 13.593 4.377 1.209 2.892 1.142 3.341-3.511 23.773-1.678 7.367-2.54 9.983-3.242 9.83-.525-.115-3.447-1.269-6.493-2.564-3.047-1.295-8.187-3.015-11.424-3.82-3.237-.807-8.26-2.068-11.16-2.803-7.017-1.777-11.403-1.775-12.355.003-.87 1.625-.935 9.708-.09 11.043.872 1.376 6.852 1.085 12.308-.6 5.888-1.82 8.937-1.761 14.983.285 5.893 1.994 14.054 5.644 14.602 6.53.213.346.699 7.597 1.079 16.114.763 17.095 1.652 25.256 5.272 48.37 2.424 15.484 6.516 44.853 6.516 46.77 0 .849-2.633 1.001-17.135.993-9.425-.006-17.8-.188-18.612-.405-1.384-.372-1.494-.925-1.757-8.852-.311-9.333-1.268-11.78-5.457-13.946-1.103-.57-8.26-2.018-15.905-3.218-13.08-2.054-13.969-2.113-15.076-1.006-1.268 1.268-1.623 7.406-.636 10.993.65 2.365 2.456 2.451 10.883.52 3.594-.824 8.48-1.356 12.553-1.367l6.669-.018.278 8.92c.264 8.494.373 9.058 2.281 11.811 1.102 1.59 2.65 3.246 3.44 3.68 1.198.658 18.42 1.542 35.878 1.842l3.289.056v5.072c0 12.057-2.21 26.456-4.859 31.646-3.639 7.134-14.159 9.986-26.737 7.25z">
    </path>
</svg>